<svg width="20" height="17" viewBox="0 0 20 17" fill="none" xmlns="http://www.w3.org/2000/svg">
<path d="M2.12811 5.96041V13.5144M2.12811 13.5144C1.8025 13.5144 1.49022 13.6401 1.25998 13.8638C1.02974 14.0875 0.900391 14.3908 0.900391 14.7072C0.900391 15.0235 1.02974 15.3269 1.25998 15.5506C1.49022 15.7742 1.8025 15.8999 2.12811 15.8999C2.45372 15.8999 2.766 15.7742 2.99624 15.5506C3.22648 15.3269 3.35583 15.0235 3.35583 14.7072C3.35583 14.3908 3.22648 14.0875 2.99624 13.8638C2.766 13.6401 2.45372 13.5144 2.12811 13.5144ZM4.62529 6.80527C4.59649 7.34034 4.58257 7.87608 4.58355 8.41189C4.58355 9.642 4.64862 10.4145 4.71246 10.8769C4.76852 11.2808 5.0067 11.6243 5.37829 11.8132C6.09692 12.179 7.55667 12.7193 9.90366 12.7193C12.2507 12.7193 13.7104 12.1794 14.429 11.8136C14.8006 11.6247 15.0388 11.2812 15.0949 10.8777C15.1587 10.4149 15.2238 9.64239 15.2238 8.41268C15.2248 7.87674 15.2108 7.34087 15.182 6.80566M1.33091 5.38591C0.765342 5.12271 0.765342 4.41263 1.33091 4.14943C2.07245 3.80434 3.18026 3.31452 4.74724 2.68038C6.9244 1.79934 8.41158 1.27692 9.21 1.01213C9.65962 0.862492 10.1477 0.862492 10.5973 1.01213C11.3953 1.27692 12.8833 1.79934 15.0601 2.68038C16.6275 3.31452 17.7349 3.80434 18.4768 4.14943C19.0416 4.41263 19.0416 5.12271 18.4768 5.38591C17.7349 5.73101 16.6271 6.22082 15.0601 6.85496C12.8829 7.736 11.3958 8.25842 10.5973 8.52321C10.1477 8.67285 9.65962 8.67285 9.21 8.52321C8.41199 8.25842 6.92399 7.736 4.74724 6.85496C3.17986 6.22043 2.07245 5.73101 1.33091 5.38591Z" stroke="#142204" stroke-opacity="0.9" stroke-width="1.8" stroke-linecap="round" stroke-linejoin="round"/>
</svg>