<svg width="23" height="30" viewBox="0 0 23 30" fill="none" xmlns="http://www.w3.org/2000/svg">
<path d="M2.875 30C2.08437 30 1.40755 29.7202 0.844531 29.1607C0.28151 28.6012 0 27.9286 0 27.1429V12.8571C0 12.0714 0.28151 11.3988 0.844531 10.8393C1.40755 10.2798 2.08437 10 2.875 10H4.3125V7.14286C4.3125 5.16667 5.01328 3.48214 6.41484 2.08929C7.81641 0.696429 9.51146 0 11.5 0C13.4885 0 15.1836 0.696429 16.5852 2.08929C17.9867 3.48214 18.6875 5.16667 18.6875 7.14286V10H20.125C20.9156 10 21.5924 10.2798 22.1555 10.8393C22.7185 11.3988 23 12.0714 23 12.8571V27.1429C23 27.9286 22.7185 28.6012 22.1555 29.1607C21.5924 29.7202 20.9156 30 20.125 30H2.875ZM2.875 27.1429H20.125V12.8571H2.875V27.1429ZM11.5 22.8571C12.2906 22.8571 12.9674 22.5774 13.5305 22.0179C14.0935 21.4583 14.375 20.7857 14.375 20C14.375 19.2143 14.0935 18.5417 13.5305 17.9821C12.9674 17.4226 12.2906 17.1429 11.5 17.1429C10.7094 17.1429 10.0326 17.4226 9.46953 17.9821C8.90651 18.5417 8.625 19.2143 8.625 20C8.625 20.7857 8.90651 21.4583 9.46953 22.0179C10.0326 22.5774 10.7094 22.8571 11.5 22.8571ZM7.1875 10H15.8125V7.14286C15.8125 5.95238 15.3932 4.94048 14.5547 4.10714C13.7161 3.27381 12.6979 2.85714 11.5 2.85714C10.3021 2.85714 9.28385 3.27381 8.44531 4.10714C7.60677 4.94048 7.1875 5.95238 7.1875 7.14286V10Z" fill="#C4C8C3"/>
</svg>
