<svg width="21" height="22" viewBox="0 0 21 22" fill="none" xmlns="http://www.w3.org/2000/svg">
<path d="M16.9941 10.9746C18.031 10.659 19.0775 11.0306 19.7939 11.7275C20.5579 12.4709 20.9784 13.6139 20.6221 14.7627C20.5695 14.9321 20.5173 15.0831 20.4316 15.249C20.3464 15.4141 20.2315 15.5856 20.0596 15.8057C19.7193 16.2411 19.1301 16.8945 18.0381 18.0947C16.8898 19.3568 16.2949 20.0124 15.7979 20.4102C15.2819 20.823 14.8648 20.9634 14.1143 21.2197C13.6962 21.3625 13.2765 21.4928 12.9365 21.5879C12.7669 21.6354 12.6151 21.6745 12.4922 21.7021C12.378 21.7278 12.2654 21.7495 12.1875 21.75H12.1865C11.8674 21.7514 11.6033 21.6153 11.3535 21.3662V21.3652C11.0418 21.0533 10.8574 20.7409 10.8193 20.2617C10.7837 19.8122 10.8776 19.2215 11.0654 18.3525C11.2291 17.5956 11.3184 17.1759 11.6699 16.6113C12.0085 16.0677 12.5955 15.3824 13.7275 14.0566C14.8454 12.7478 15.4262 12.0679 15.8115 11.6855C16.0072 11.4914 16.1617 11.3648 16.3174 11.2686C16.4721 11.173 16.6202 11.1139 16.7871 11.0479L16.9941 10.9746ZM18.8018 13.666C18.5426 12.9762 17.9068 12.6728 17.3574 12.874C17.3508 12.8798 17.3428 12.8883 17.332 12.8984C17.297 12.9315 17.2478 12.9802 17.1855 13.0449C17.0615 13.1739 16.8917 13.3575 16.6885 13.583C16.2822 14.0337 15.7452 14.6468 15.1768 15.3125C14.1348 16.533 13.6319 17.124 13.3564 17.5439C13.1622 17.8401 13.0866 18.0419 13.0146 18.3477L12.9395 18.6953C12.8794 18.9882 12.8248 19.2687 12.7852 19.4844C12.7752 19.5384 12.7666 19.5882 12.7588 19.6328C12.7624 19.6316 12.7668 19.6311 12.7705 19.6299C12.9739 19.561 13.2505 19.4661 13.5508 19.3613V19.3604C14.0975 19.1704 14.334 19.0878 14.6875 18.7959C15.062 18.4867 15.5554 17.9529 16.5791 16.8438C17.7573 15.5673 18.3676 14.8857 18.6592 14.4453C18.8024 14.229 18.8511 14.0954 18.8633 13.9971C18.8748 13.9032 18.8565 13.813 18.8018 13.667V13.666ZM4.96094 11.46C6.4296 11.0711 8.24712 11.0347 9.72168 11.2441C10.4589 11.3489 11.1253 11.5167 11.626 11.7422C11.8762 11.8549 12.0952 11.9865 12.2617 12.1396C12.4284 12.2929 12.555 12.4804 12.5898 12.7021C12.6226 12.9115 12.6346 13.1285 12.5586 13.3096C12.47 13.5203 12.2893 13.6299 12.0713 13.6689C11.8686 13.7052 11.6104 13.6864 11.3018 13.6357C10.9876 13.5841 10.595 13.4946 10.1133 13.3721C7.84983 12.7951 5.68845 13.0039 3.73535 13.9795C2.92328 14.3853 2.45973 14.7439 2.26172 15.0635C2.168 15.2148 2.13743 15.3515 2.15137 15.4824C2.16584 15.6175 2.23049 15.7719 2.36816 15.9502C2.48541 16.1019 2.58253 16.2027 2.70215 16.2783C2.82184 16.3539 2.98044 16.4151 3.23145 16.4609C3.7465 16.5549 4.5817 16.5732 6.11719 16.5732C6.89279 16.5732 7.49234 16.5765 7.95312 16.5908C8.41056 16.6051 8.7468 16.6309 8.99023 16.6816C9.2303 16.7316 9.43101 16.815 9.55469 16.9873C9.67409 17.1537 9.68262 17.3532 9.68262 17.5146C9.6826 17.67 9.66452 17.8153 9.60938 17.9463C9.55215 18.0821 9.46247 18.1868 9.34766 18.2705H9.34668C9.25734 18.3352 9.15102 18.3738 9.01758 18.4004C8.88567 18.4266 8.71093 18.4446 8.47363 18.457C7.99794 18.4819 7.2276 18.4883 5.94922 18.4883C4.46435 18.4883 3.69443 18.4874 3.2207 18.4521C2.97999 18.4342 2.80557 18.407 2.64648 18.3633C2.5677 18.3416 2.49467 18.3162 2.42188 18.2881L2.19922 18.1953C1.76187 18.007 1.40681 17.7748 1.11621 17.4648C0.825937 17.1551 0.610077 16.7787 0.436523 16.3174C0.0360718 15.2529 0.291657 14.2501 1.09766 13.4121C1.88977 12.5887 3.21019 11.9229 4.96094 11.46ZM7.70215 0.25C8.9992 0.250022 10.2418 0.783229 11.1582 1.72949C12.0741 2.67533 12.5904 3.95706 12.5967 5.29395V5.29688C12.5905 6.63397 12.0743 7.91637 11.1582 8.8623C10.2418 9.80849 8.99914 10.3408 7.70215 10.3408C6.40516 10.3408 5.16253 9.80846 4.24609 8.8623C3.32998 7.91637 2.81378 6.63397 2.80762 5.29688V5.29395C2.81386 3.95703 3.33013 2.67534 4.24609 1.72949C5.16255 0.783209 6.40507 0.25 7.70215 0.25ZM7.42578 2.41113C6.34719 2.47649 5.54587 3.104 5.16016 3.9668C4.77338 4.8321 4.80219 5.94357 5.41895 6.96582C5.58544 7.24133 5.69518 7.39357 5.81445 7.50684C5.93128 7.61774 6.07006 7.70345 6.31641 7.82227L6.49805 7.90625C6.66189 7.97837 6.78088 8.01615 6.92383 8.03809C7.12589 8.06907 7.38492 8.06995 7.87891 8.05566C8.76652 8.02994 9.37879 7.81573 9.78711 7.42969C10.1952 7.04365 10.4396 6.44673 10.5088 5.56836C10.5972 4.43941 10.3494 3.63063 9.84961 3.11914C9.34997 2.60786 8.55021 2.3435 7.42578 2.41113Z" fill="#142204" stroke="#142204" stroke-width="0.5"/>
</svg>