<?xml version="1.0" encoding="utf-8"?>
<!DOCTYPE svg PUBLIC "-//W3C//DTD SVG 20010904//EN" "http://www.w3.org/TR/2001/REC-SVG-20010904/DTD/svg10.dtd">
<svg version="1.0" width="74.235pt" height="74.235pt" viewBox="0 0 74.235 74.235" preserveAspectRatio="xMidYMid meet" xmlns="http://www.w3.org/2000/svg">
  <g transform="translate(0,74.235)scale(.0735,.0735)">
    <path id="path1" d="M 210 -1000 c -8 4 -34 16 -58 26 -46 19 -96 68 -107 106 -4 13 -13 26 -19 30 -6 4 -11 37 -11 80 0 58 5 83 25 123 36 72 36 189 0 260 -37 73 -35 153 5 230 36 70 69 96 158 126 l 67 23 63 -23 c 34 -13 88 -29 119 -36 65 -15 121 -6 235 36 60 22 63 22 115 5 93 -30 131 -59 168 -128 43 -79 46 -148 11 -222 -44 -94 -44 -188 0 -281 34 -72 32 -144 -6 -219 -16 -32 -44 -69 -61 -83 -63 -48 -193 -80 -220 -54 -5 5 -37 19 -71 30 -88 30 -161 27 -253 -9 -74 -30 -131 -37 -160 -20 z " />
  </g>
</svg>