<?xml version="1.0" encoding="utf-8"?>
<!DOCTYPE svg PUBLIC "-//W3C//DTD SVG 20010904//EN" "http://www.w3.org/TR/2001/REC-SVG-20010904/DTD/svg10.dtd">
<svg version="1.0" width="75.75pt" height="75.75pt" viewBox="0 0 75.75 75.75" preserveAspectRatio="xMidYMid meet" xmlns="http://www.w3.org/2000/svg">
  <g transform="translate(0,75.75)scale(.075,.075)">
    <path id="path1" d="M 475 -1004 c -11 3 -49 19 -85 36 -94 45 -302 254 -351 352 -33 67 -34 73 -34 185 0 115 1 117 38 187 47 89 112 154 201 201 70 37 72 38 187 38 112 0 118 -1 185 -34 99 -49 306 -256 355 -355 33 -67 34 -73 34 -185 0 -115 -1 -117 -38 -187 -47 -90 -112 -154 -201 -201 -66 -34 -78 -37 -171 -39 -55 -2 -109 -1 -120 2 z " />
  </g>
</svg>