<?xml version="1.0" encoding="utf-8"?>
<!DOCTYPE svg PUBLIC "-//W3C//DTD SVG 20010904//EN" "http://www.w3.org/TR/2001/REC-SVG-20010904/DTD/svg10.dtd">
<svg version="1.0" width="74.235pt" height="74.235pt" viewBox="0 0 74.235 74.235" preserveAspectRatio="xMidYMid meet" xmlns="http://www.w3.org/2000/svg">
  <g transform="translate(0,74.235)scale(.0735,.0735)">
    <path id="path1" d="M 472 -988 c -17 13 -52 41 -77 62 -42 36 -52 39 -128 47 -45 4 -90 10 -99 14 -21 9 -38 64 -38 127 0 61 -10 84 -59 138 -23 25 -48 57 -57 73 -18 33 -11 50 54 122 52 59 62 81 62 143 0 26 5 64 10 84 9 31 17 39 48 48 20 5 58 10 84 10 62 0 84 10 143 64 80 73 110 73 190 0 59 -54 81 -64 143 -64 26 0 64 -5 84 -10 31 -9 39 -17 48 -48 5 -20 10 -58 10 -84 0 -62 10 -84 64 -143 49 -54 62 -82 52 -118 -3 -12 -27 -45 -52 -72 -54 -59 -64 -81 -64 -143 0 -26 -5 -64 -10 -84 -9 -31 -17 -39 -48 -48 -20 -5 -58 -10 -84 -10 -60 0 -84 -10 -133 -55 -40 -36 -94 -75 -106 -75 -3 0 -20 10 -37 22 z " />
  </g>
</svg>