<?xml version="1.0" encoding="utf-8"?>
<!DOCTYPE svg PUBLIC "-//W3C//DTD SVG 20010904//EN" "http://www.w3.org/TR/2001/REC-SVG-20010904/DTD/svg10.dtd">
<svg version="1.0" width="74.235pt" height="74.235pt" viewBox="0 0 74.235 74.235" preserveAspectRatio="xMidYMid meet" xmlns="http://www.w3.org/2000/svg">
  <g transform="translate(0,74.235)scale(.0735,.0735)">
    <path id="path1" d="M 580 -994 c -274 98 -478 305 -565 572 -13 39 -16 76 -13 145 3 86 6 96 40 147 22 33 58 69 90 90 53 35 53 35 168 35 113 0 116 -1 208 -42 87 -38 208 -121 271 -184 63 -63 146 -184 184 -271 41 -91 42 -95 42 -208 l 0 -115 -37 -55 c -22 -33 -58 -69 -90 -90 -50 -33 -58 -35 -153 -37 -73 -2 -112 1 -145 13 z " />
  </g>
</svg>