<svg width="20" height="20" viewBox="0 0 20 20" fill="none" xmlns="http://www.w3.org/2000/svg">
<path d="M15.367 8.38652H17.2373C17.8535 8.38652 18.4076 7.9934 18.5844 7.39985C19.0873 5.71211 19.1641 4.6176 18.6471 3.46981C18.4445 3.01973 17.9704 2.7748 17.479 2.7748H15.367V8.38652ZM15.367 8.38652L17.479 8.38656C17.9704 8.38656 18.4445 8.63149 18.6471 9.08156C19.1641 10.2294 19.0873 11.3239 18.5844 13.0116C18.4076 13.6051 17.8535 13.9983 17.2373 13.9983H15.367V8.38652ZM13.877 18.7012C14.566 18.6318 15.1005 18.0686 15.1432 17.3738C15.2899 14.985 15.3679 12.6567 15.3679 9.99997C15.3679 7.34322 15.2899 5.01492 15.1432 2.62614C15.1005 1.93134 14.566 1.36815 13.877 1.29881C9.91835 0.900396 6.44957 0.900396 2.49086 1.29881C1.80189 1.36815 1.26737 1.93134 1.2247 2.62614C1.078 5.01492 1 7.34322 1 9.99997C1 12.6567 1.078 14.985 1.2247 17.3738C1.26737 18.0686 1.80189 18.6318 2.49086 18.7012C6.44956 19.0996 9.91835 19.0996 13.877 18.7012ZM6.1134 4.84722H10.2522C10.2522 4.84722 11.3322 4.84722 11.3322 5.93309V7.3954C11.3322 7.3954 11.3322 8.48127 10.2522 8.48127H6.1134C6.1134 8.48127 5.03334 8.48127 5.03334 7.3954V5.93309C5.03334 5.93309 5.03334 4.84722 6.1134 4.84722Z" stroke="#B4FF5E" stroke-width="2" stroke-linecap="round" stroke-linejoin="round"/>
</svg>