<svg width="69" height="64" viewBox="0 0 69 64" fill="none" xmlns="http://www.w3.org/2000/svg">
<path d="M14.68 48.3152C9.89098 44.1678 6.64574 36.6267 7.11199 29.9893M7.06751 51.3696C4.19409 48.9502 2.24694 44.5513 2.52669 40.6795M45.1301 4.02765C50.6251 6.65389 54.912 13.0246 55.7876 19.2992M55.7876 2.50049C58.9276 4.33885 61.3773 8.79832 61.8776 13.1906M53.8252 32.5254C48.8151 34.1082 44.0334 39.5166 45.4779 46.5982M26.8717 16.5151C29.0935 15.4548 31.5434 16.625 32.7761 18.7608C34.9793 22.5779 38.1025 28.0558 38.7819 29.2484C37.7224 27.3718 35.4451 22.9907 33.9147 20.0246C32.9605 18.1753 33.0286 15.9125 34.692 14.6661C35.0387 14.4064 35.4283 14.1449 35.8633 13.8931C36.1823 13.7083 36.5127 13.5435 36.8424 13.3971C38.8556 12.5028 41.0887 13.4397 42.4 15.2139C45.0442 18.7918 49.689 25.3425 53.8237 32.5257C53.8237 32.5257 54.6524 30.4727 56.1814 27.4292C57.6607 24.485 61.1137 22.9325 63.7708 24.8732C64.1908 25.1802 64.6069 25.5239 65.0052 25.9086C66.3264 27.1847 66.6749 29.0975 66.4246 30.9202C65.9276 34.5423 64.7354 41.1524 62.1023 47.588C61.0948 50.0504 59.4813 52.2016 57.3399 53.7735C55.707 54.9721 53.3451 56.5596 50.0654 58.4589C49.4188 58.8334 48.7976 59.1845 48.2023 59.5138C42.0923 62.8915 34.7234 61.9801 30.2119 56.6425C27.2431 53.1302 24.5765 49.1654 22.5541 45.6354C19.6957 40.6683 17.8903 36.3058 16.9007 33.6006C16.2285 31.763 16.3785 29.6636 17.7665 28.2879C18.1788 27.8794 18.6513 27.4903 19.1735 27.1879C19.8796 26.779 20.6777 26.5911 21.4119 26.5186C22.9715 26.3645 24.3328 27.3564 25.2111 28.6583L30.1845 36.0309C30.1845 36.0309 25.996 28.9709 23.3424 24.315C22.101 22.1372 22.4386 19.4155 24.4695 17.9514C24.903 17.6389 25.3644 17.3335 25.8424 17.0568C26.1887 16.8561 26.534 16.6762 26.8717 16.5151Z" stroke="#C9FF8A" stroke-width="5" stroke-linecap="round" stroke-linejoin="round"/>
</svg>