<svg width="16" height="16" viewBox="0 0 16 16" fill="none" xmlns="http://www.w3.org/2000/svg">
<path d="M4.73041 1V3.79995M11.0314 1V3.79995M1.11867 6.31991H14.8828M1.22675 11.9479C1.41172 13.56 2.75298 14.84 4.41157 14.918C5.55795 14.9719 6.72902 15 8.00002 15C9.27101 15 10.4421 14.9719 11.5884 14.918C13.2471 14.84 14.5883 13.56 14.7732 11.9479C14.8979 10.8623 15 9.74929 15 8.61547C15 7.48167 14.8979 6.36866 14.7732 5.28305C14.5883 3.67096 13.2471 2.39101 11.5884 2.31297C10.4421 2.25903 9.27101 2.23099 8.00002 2.23099C6.72902 2.23099 5.55795 2.25903 4.41157 2.31297C2.75299 2.39101 1.41172 3.67096 1.22675 5.28305C1.10219 6.36866 1 7.48167 1 8.61547C1 9.74929 1.10219 10.8623 1.22675 11.9479Z" stroke="#142204" stroke-width="2" stroke-linecap="round" stroke-linejoin="round"/>
</svg>