<svg width="20" height="20" viewBox="0 0 20 20" fill="none" xmlns="http://www.w3.org/2000/svg">
<path d="M13.75 1.94036C13.9689 1.72149 14.2287 1.54787 14.5147 1.42942C14.8006 1.31097 15.1071 1.25 15.4167 1.25C15.7262 1.25 16.0327 1.31097 16.3187 1.42942C16.6046 1.54787 16.8645 1.72149 17.0833 1.94036C17.3022 2.15923 17.4758 2.41906 17.5943 2.70503C17.7127 2.991 17.7737 3.29749 17.7737 3.60702C17.7737 3.91655 17.7127 4.22305 17.5943 4.50902C17.4758 4.79498 17.3022 5.05482 17.0833 5.27369L5.83333 16.5237L1.25 17.7737L2.5 13.1904L13.75 1.94036Z" stroke="#142204" stroke-width="2.5" stroke-linecap="round" stroke-linejoin="round"/>
</svg>