<svg width="54" height="53" viewBox="0 0 54 53" fill="none" xmlns="http://www.w3.org/2000/svg">
<path d="M26.9996 23.5354C26.9996 22.2451 28.0736 21.4541 29.9628 20.2176C31.7188 19.0656 32.6438 17.5795 32.2322 15.552C32.0144 14.5438 31.5026 13.6193 30.7588 12.8906C30.015 12.1619 29.0713 11.6604 28.0422 11.4471C27.2701 11.3059 26.4759 11.3319 25.7151 11.5232C24.9543 11.7145 24.2455 12.0665 23.6383 12.5546C23.031 13.0427 22.5401 13.655 22.2 14.3485C21.8598 15.0421 21.6786 15.8002 21.669 16.5696M27.0048 32.4747V31.5147M10.3016 40.1243C6.79754 39.8018 3.85396 37.2904 3.36794 33.8805C2.1977 25.7277 2.2109 17.4537 3.40713 9.30449C3.87748 6.11729 6.53493 3.70961 9.80384 3.37553C15.5174 2.79074 21.2582 2.4985 27.0028 2.50001C32.8861 2.50001 38.5576 2.82641 44.0842 3.38321C45.7006 3.53307 47.2192 4.20897 48.3978 5.30307C49.5764 6.39717 50.347 7.84644 50.5867 9.41969C51.1895 13.5291 51.4946 17.6751 51.5 21.8267C51.5 26.0354 51.1355 30.125 50.5632 34.0994C50.3243 35.7029 49.5434 37.1816 48.3454 38.299C47.1473 39.4163 45.6014 40.1077 43.9549 40.2626C38.1841 40.8544 32.3858 41.1518 26.5834 41.1534C22.4718 45.7845 19.3205 48.077 13.8135 50.5V40.4392L11.1482 40.2011L10.3016 40.1243Z" stroke="#B4FF5E" stroke-width="5" stroke-linecap="round" stroke-linejoin="round"/>
</svg>