<svg width="20" height="18" viewBox="0 0 20 18" fill="none" xmlns="http://www.w3.org/2000/svg">
<path d="M9.72964 16.75C8.83959 15.7475 8.26769 15.336 7.06222 14.9799H2.86765C1.26012 14.9044 0.884393 14.3674 0.75 12.9082V3.17281M9.72964 16.75C10.4982 15.8058 11.0088 15.3846 12.1731 14.9799H16.3473C17.7459 14.6503 18.2877 14.2131 18.75 12.9082V2.89121C18.5384 1.19452 17.9369 0.816063 16.3473 0.759086H12.1731C10.4509 1.03623 9.99115 1.56541 9.68891 2.89121M9.72964 16.75L9.71522 11.8421M0.75 3.17281C0.855871 1.71047 1.24029 0.76697 2.86765 0.759086C5.46572 0.740055 5.72021 0.756406 7.36765 0.759086C8.98258 0.818588 9.49041 1.29851 9.68891 2.89121M0.75 3.17281C1.15937 5.01979 1.70037 5.51415 3.17308 5.52614H7.63235C8.85623 5.56131 9.21345 5.98812 9.70079 6.93414M9.68891 2.89121L9.70079 6.93414M9.70079 6.93414L9.71522 11.8421M0.892534 9.02604C1.45635 9.7949 1.82199 10.0609 2.56222 10.2128H7.63235C8.78859 10.2679 9.22306 10.6641 9.71522 11.8421" stroke="#B4FF5E" stroke-width="1.5" stroke-linecap="round"/>
</svg>