<svg width="18" height="19" viewBox="0 0 18 19" fill="none" xmlns="http://www.w3.org/2000/svg">
<path d="M8.84863 0.199707C10.0253 0.198236 10.9511 0.214229 11.6777 0.275879C12.4014 0.337292 12.9471 0.445875 13.3545 0.640137C13.7728 0.839642 14.0398 1.12714 14.2061 1.52393C14.3672 1.90857 14.4314 2.38955 14.4678 2.97119C14.4838 3.22808 14.4951 3.40933 14.5156 3.55127C14.5357 3.6901 14.5623 3.77713 14.6016 3.84717C14.6409 3.9172 14.7014 3.98534 14.8096 4.07471C14.9202 4.16602 15.0691 4.27022 15.2803 4.41748C16.7402 5.43606 17.5162 6.75549 17.5938 8.51025C17.6704 10.2471 17.0631 12.3959 15.8086 15.0894C15.2669 16.252 14.8806 16.9813 14.4746 17.4595C14.0555 17.953 13.6194 18.1747 13.0078 18.3452C12.3132 18.539 11.8994 18.5639 9.45117 18.5923C7.39518 18.6158 6.40454 18.5871 5.58301 18.4751C4.61182 18.3431 3.95577 18.1325 3.3623 17.4849C2.78808 16.8582 2.28186 15.83 1.54492 14.1196C0.524391 11.7511 0.0733796 9.809 0.231445 8.20752C0.390884 6.59243 1.16773 5.34336 2.55176 4.36963C2.75622 4.22561 2.90021 4.1237 3.00684 4.03467C3.11089 3.94774 3.16769 3.88168 3.20508 3.81396C3.24254 3.74608 3.26829 3.66201 3.28711 3.52588C3.30633 3.38677 3.31672 3.20874 3.33105 2.95654C3.36408 2.38329 3.42622 1.90861 3.58496 1.52783C3.74872 1.13506 4.01238 0.849041 4.4248 0.649902C4.82655 0.45595 5.36421 0.346991 6.0752 0.283691C6.78892 0.220155 7.69669 0.201179 8.84863 0.199707ZM10.6611 1.9165C9.50815 1.85996 8.12313 1.86003 7.03613 1.9165C6.45929 1.94619 6.04618 1.96297 5.74121 1.99854C5.43112 2.0347 5.27683 2.0866 5.18945 2.15576C5.11367 2.21585 5.06041 2.31235 5.02734 2.53271C4.99349 2.75839 4.98687 3.06405 4.96973 3.50928C4.95571 3.87604 4.94711 4.15826 4.92676 4.37549C4.90647 4.59185 4.87245 4.76839 4.79688 4.91748C4.71774 5.07355 4.60275 5.18095 4.45508 5.27686C4.31407 5.3684 4.12672 5.45958 3.89941 5.57471C3.26722 5.89449 2.79172 6.28627 2.46094 6.7583C2.13068 7.22966 1.93743 7.79251 1.88574 8.46631C1.78176 9.8232 2.25227 11.6211 3.32617 13.9839C3.75665 14.9304 4.06011 15.537 4.31738 15.938C4.57193 16.3347 4.77091 16.5139 4.9873 16.6216H4.98828C5.05737 16.6561 5.22261 16.7052 5.45117 16.7524C5.67241 16.7982 5.9327 16.838 6.17676 16.8618C6.66797 16.9086 8.20306 16.9303 9.58984 16.9067L10.7969 16.8833C11.1459 16.8735 11.4456 16.86 11.7061 16.8384C12.2267 16.7951 12.5695 16.7203 12.8301 16.5874C13.0846 16.4574 13.2786 16.2625 13.4824 15.9448C13.6902 15.621 13.8987 15.1859 14.1904 14.5806C15.4112 12.0476 15.9823 10.1701 15.9355 8.74463C15.9123 8.03715 15.737 7.44387 15.4141 6.93506C15.0904 6.42515 14.6119 5.9886 13.9658 5.60693C13.7204 5.46192 13.5235 5.34608 13.373 5.23584C13.2192 5.12315 13.0999 5.00673 13.0156 4.854C12.9324 4.70302 12.8928 4.53254 12.8691 4.32861C12.8457 4.12648 12.8361 3.87292 12.8242 3.55029C12.8073 3.08842 12.8027 2.77261 12.7695 2.53955C12.7371 2.31197 12.6834 2.21431 12.6055 2.15381C12.5146 2.08329 12.3527 2.03188 12.0264 1.99658C11.7055 1.96192 11.2701 1.94618 10.6611 1.9165ZM8.87207 4.8374C9.07973 4.83141 9.27163 4.89947 9.47754 5.01221C9.68053 5.12335 9.91861 5.2903 10.2188 5.49951L10.6484 5.80225C11.0326 6.08073 11.2853 6.29362 11.4424 6.51416C11.6674 6.83017 11.6885 7.14993 11.6885 7.60498C11.6885 8.05243 11.7054 8.23507 11.7949 8.38916C11.8902 8.55298 12.0789 8.70566 12.5273 9.02783C13.0354 9.39356 13.3529 9.63209 13.5225 9.93994C13.6951 10.2534 13.7041 10.618 13.7041 11.1743C13.7041 11.8102 13.6937 12.22 13.4863 12.5757C13.3826 12.7536 13.2355 12.9083 13.041 13.0718C12.8477 13.2342 12.5967 13.4136 12.2783 13.6362C11.9637 13.8564 11.7153 14.0284 11.5078 14.1479C11.3003 14.2675 11.1136 14.3465 10.9229 14.3628C10.7263 14.3795 10.5495 14.3276 10.3652 14.2339C10.2758 14.1884 10.1804 14.1315 10.0771 14.064L9.74023 13.8335C9.49797 13.6639 9.33427 13.5467 9.2002 13.4702C9.06995 13.396 8.99267 13.3749 8.92578 13.3765C8.8552 13.3782 8.76548 13.4057 8.6123 13.4907C8.45859 13.576 8.26674 13.7039 7.99023 13.8853C7.74167 14.0483 7.50397 14.1976 7.32031 14.3062C7.22896 14.3601 7.14866 14.4048 7.08691 14.437C7.05633 14.453 7.027 14.4673 7.00195 14.478C6.98972 14.4833 6.97562 14.489 6.96094 14.4937C6.95089 14.4968 6.92125 14.5063 6.88574 14.5063C6.84202 14.5063 6.80591 14.4919 6.79785 14.4888C6.78213 14.4827 6.76645 14.476 6.75293 14.4692C6.72548 14.4555 6.69288 14.4367 6.65723 14.4155C6.58492 14.3726 6.4888 14.312 6.37793 14.2388C6.15565 14.092 5.86487 13.8897 5.55762 13.6685C5.22656 13.4304 4.96748 13.2414 4.76855 13.0737C4.569 12.9055 4.41846 12.7504 4.3125 12.5767C4.09841 12.2255 4.08984 11.8364 4.08984 11.2368C4.08985 10.6674 4.09641 10.3 4.25391 9.99072C4.41085 9.68285 4.70797 9.45235 5.17871 9.1001C5.42084 8.91874 5.59911 8.78301 5.73242 8.66748C5.86532 8.5523 5.94391 8.46529 5.99414 8.38428C6.09044 8.22892 6.10547 8.06223 6.10547 7.63525C6.10548 7.17803 6.12576 6.85675 6.33594 6.54639C6.53316 6.25523 6.89003 5.98785 7.47559 5.57275L7.90918 5.26904C8.03854 5.18071 8.15413 5.10535 8.25977 5.04443C8.47233 4.92191 8.66654 4.84345 8.87207 4.8374ZM6.86133 10.0376C6.80772 10.0415 6.73515 10.0651 6.61523 10.1401C6.49502 10.2154 6.34743 10.329 6.14062 10.4897C5.92866 10.6542 5.77858 10.9211 5.72461 11.1831C5.66872 11.4547 5.72564 11.6515 5.8252 11.7368C5.92303 11.8189 6.18783 12.044 6.41211 12.2358V12.2368C6.5165 12.3266 6.62848 12.4072 6.72266 12.4644C6.76988 12.493 6.80997 12.5139 6.83984 12.5269C6.8473 12.5301 6.85373 12.532 6.8584 12.5337C6.86402 12.5318 6.87259 12.53 6.88281 12.5259C6.91504 12.5129 6.95736 12.4922 7.00879 12.4644C7.1118 12.4086 7.23845 12.3299 7.36719 12.2417C7.49562 12.1537 7.62371 12.0588 7.72949 11.9712C7.78434 11.9258 7.83017 11.8849 7.86621 11.8501L7.94434 11.7642C8.0851 11.5723 8.11782 11.3441 8.04492 11.105C7.97062 10.8615 7.78388 10.602 7.47852 10.3774C7.29709 10.2444 7.17142 10.1549 7.06836 10.0991C6.9696 10.0457 6.91053 10.0341 6.86133 10.0376ZM10.8965 10.0327C10.8564 10.0325 10.8014 10.045 10.7002 10.105C10.5968 10.1662 10.4699 10.2612 10.2832 10.3999C10.1323 10.512 10.0266 10.5898 9.94922 10.6558C9.87267 10.721 9.837 10.7638 9.81641 10.7993C9.77513 10.8705 9.76856 10.9521 9.76855 11.2651C9.76855 11.5776 9.77479 11.6614 9.81543 11.7339C9.8355 11.7696 9.87054 11.8122 9.94434 11.8774C10.0191 11.9435 10.1207 12.0218 10.2666 12.1343H10.2676C10.4211 12.2531 10.5747 12.3606 10.6982 12.437C10.7604 12.4754 10.8125 12.5044 10.8506 12.5229C10.8555 12.5253 10.8602 12.5269 10.8643 12.5288C10.8691 12.5266 10.8749 12.5249 10.8809 12.522C10.9204 12.5029 10.9737 12.4731 11.0381 12.4341C11.1664 12.3563 11.3277 12.2481 11.4883 12.1274C11.938 11.7894 12.1118 11.4938 12.1172 11.2476C12.1223 11.0062 11.9665 10.7251 11.5352 10.4106C11.3416 10.2696 11.2081 10.1731 11.1006 10.1099C10.9946 10.0476 10.9375 10.033 10.8965 10.0327ZM9.09473 6.79346C8.91141 6.73697 8.74221 6.76724 8.51367 6.92236L8.51465 6.92334C8.31521 7.05898 8.16788 7.16198 8.05762 7.24951C7.94772 7.33678 7.88389 7.4016 7.84375 7.45947C7.77083 7.56473 7.75293 7.67549 7.75293 7.98291C7.75293 8.27208 7.75984 8.33809 7.7998 8.40088C7.8214 8.4348 7.86067 8.47663 7.94238 8.54248C8.02409 8.60832 8.13456 8.6875 8.29199 8.79932C8.46125 8.91908 8.62486 9.02744 8.75 9.10498C8.80756 9.14064 8.85579 9.16764 8.8916 9.18701C8.92786 9.16764 8.9768 9.14064 9.03516 9.10498C9.16142 9.02782 9.32567 8.92035 9.49609 8.80127C9.81279 8.57967 10.0056 8.30432 10.0742 8.05127C10.1417 7.80252 10.0909 7.57775 9.92773 7.41357C9.55878 7.04262 9.30238 6.85757 9.09473 6.79346Z" fill="#B4FF5E" stroke="#B4FF5E" stroke-width="0.4"/>
</svg>