<svg width="42" height="42" viewBox="0 0 42 42" fill="none" xmlns="http://www.w3.org/2000/svg">
<path d="M21 21.0001C19.2291 21.0001 17.7448 20.4011 16.5468 19.2032C15.3489 18.0053 14.75 16.5209 14.75 14.7501C14.75 13.014 15.3489 11.5383 16.5468 10.323C17.7448 9.10772 19.2291 8.50008 21 8.50008C22.7361 8.50008 24.2118 9.10772 25.427 10.323C26.6423 11.5383 27.25 13.014 27.25 14.7501C27.25 16.5209 26.6423 18.0053 25.427 19.2032C24.2118 20.4011 22.7361 21.0001 21 21.0001ZM21 16.8334C21.5902 16.8334 22.085 16.6338 22.4843 16.2345C22.8836 15.8352 23.0833 15.3404 23.0833 14.7501C23.0833 14.1598 22.8836 13.665 22.4843 13.2657C22.085 12.8664 21.5902 12.6667 21 12.6667C20.4097 12.6667 19.9149 12.8664 19.5156 13.2657C19.1163 13.665 18.9166 14.1598 18.9166 14.7501C18.9166 15.3404 19.1163 15.8352 19.5156 16.2345C19.9149 16.6338 20.4097 16.8334 21 16.8334ZM8.49996 33.5001V29.5418C8.49996 28.8126 8.68225 28.1268 9.04684 27.4845C9.41142 26.8421 9.90621 26.3299 10.5312 25.948C12.1284 25.0105 13.8038 24.2987 15.5573 23.8126C17.3107 23.3265 19.125 23.0834 21 23.0834C22.875 23.0834 24.6892 23.3265 26.4427 23.8126C28.1961 24.2987 29.8715 25.0105 31.4687 25.948C32.0937 26.3299 32.5885 26.8421 32.9531 27.4845C33.3177 28.1268 33.5 28.8126 33.5 29.5418V33.5001H8.49996ZM21 27.2501C19.5763 27.2501 18.1875 27.4237 16.8333 27.7709C15.4791 28.1181 14.1944 28.639 12.9791 29.3334H29.0208C27.8055 28.639 26.5208 28.1181 25.1666 27.7709C23.8125 27.4237 22.4236 27.2501 21 27.2501ZM4.33329 41.8334C3.18746 41.8334 2.20656 41.4254 1.39058 40.6095C0.574612 39.7935 0.166626 38.8126 0.166626 37.6668V29.3334H4.33329V37.6668H12.6666V41.8334H4.33329ZM0.166626 12.6667V4.33342C0.166626 3.18758 0.574612 2.20668 1.39058 1.39071C2.20656 0.574734 3.18746 0.166748 4.33329 0.166748H12.6666V4.33342H4.33329V12.6667H0.166626ZM29.3333 41.8334V37.6668H37.6666V29.3334H41.8333V37.6668C41.8333 38.8126 41.4253 39.7935 40.6093 40.6095C39.7934 41.4254 38.8125 41.8334 37.6666 41.8334H29.3333ZM37.6666 12.6667V4.33342H29.3333V0.166748H37.6666C38.8125 0.166748 39.7934 0.574734 40.6093 1.39071C41.4253 2.20668 41.8333 3.18758 41.8333 4.33342V12.6667H37.6666Z" fill="#B2B6AE"/>
</svg>
