<svg width="43" height="43" viewBox="0 0 43 43" fill="none" xmlns="http://www.w3.org/2000/svg">
<path d="M11.8251 11.8429V14.9797M30.6324 11.8429V14.9797M21.2287 16.5481V20.469C21.2287 22.2015 19.8253 23.6058 18.0942 23.6058H16.5269M15.8565 31.6484C17.3063 33.0267 19.2295 33.7949 21.2291 33.7949C23.2287 33.7949 25.152 33.0267 26.6017 31.6484M30.6752 2.25024C31.8375 2.37555 32.9894 2.50987 34.1301 2.64215C37.1377 2.99099 39.5375 5.39092 39.8754 8.40189C40.0027 9.53596 40.1309 10.6813 40.25 11.837M30.6752 40.2502C31.8375 40.1251 32.9894 39.9908 34.1301 39.8585C37.1377 39.5097 39.5375 37.1097 39.8754 34.0987C40.0027 32.9647 40.1309 31.8192 40.25 30.6636M11.8249 2.25024C10.6625 2.37555 9.51052 2.50987 8.36992 2.64215C5.36235 2.99099 2.96254 5.39092 2.62476 8.40189C2.49753 9.53596 2.36924 10.6813 2.25 11.837M11.8249 40.2502C10.6625 40.1251 9.51052 39.9908 8.36992 39.8585C5.36235 39.5097 2.96254 37.1097 2.62476 34.0987C2.49753 32.9647 2.36924 31.8192 2.25 30.6636" stroke="#142204" stroke-width="4.5" stroke-linecap="round" stroke-linejoin="round"/>
</svg>