<svg width="45" height="45" viewBox="0 0 45 45" fill="none" xmlns="http://www.w3.org/2000/svg">
<path d="M44.8335 35.8436L40.6668 31.6769V10.5832H32.2293L28.4272 6.4165H19.573L17.5939 8.604L14.6251 5.63525L17.7501 2.24984H30.2501L34.1043 6.4165H40.6668C41.8126 6.4165 42.7935 6.82449 43.6095 7.64046C44.4255 8.45643 44.8335 9.43734 44.8335 10.5832V35.8436ZM7.33346 39.7498C6.18762 39.7498 5.20672 39.3419 4.39075 38.5259C3.57478 37.7099 3.16679 36.729 3.16679 35.5832V10.5832C3.16679 9.43734 3.57478 8.45643 4.39075 7.64046C5.20672 6.82449 6.18762 6.4165 7.33346 6.4165H9.46887L13.6355 10.5832H7.33346V35.5832H38.6355L42.8022 39.7498H7.33346ZM31.6043 28.5519C30.7362 29.7325 29.6512 30.6787 28.3491 31.3905C27.047 32.1023 25.5973 32.4582 24.0001 32.4582C21.396 32.4582 19.1824 31.5467 17.3595 29.7238C15.5366 27.9009 14.6251 25.6873 14.6251 23.0832C14.6251 21.4859 14.981 20.0363 15.6928 18.7342C16.4046 17.4321 17.3508 16.3471 18.5314 15.479L21.5522 18.4998C20.7189 18.9512 20.0505 19.5762 19.547 20.3748C19.0435 21.1734 18.7918 22.0762 18.7918 23.0832C18.7918 24.5415 19.2953 25.7741 20.3022 26.7811C21.3092 27.788 22.5418 28.2915 24.0001 28.2915C25.0071 28.2915 25.9098 28.0398 26.7085 27.5363C27.5071 27.0328 28.1321 26.3644 28.5835 25.5311L31.6043 28.5519ZM30.6668 16.4165C31.5348 17.2498 32.2032 18.2394 32.672 19.3853C33.1408 20.5311 33.3751 21.7637 33.3751 23.0832V23.7082C33.3751 23.9165 33.3578 24.1248 33.323 24.3332L22.7501 13.7603C22.9585 13.7255 23.1668 13.7082 23.3751 13.7082H24.0001C25.3196 13.7082 26.5522 13.9425 27.698 14.4113C28.8439 14.88 29.8335 15.5484 30.6668 16.4165ZM41.6564 44.5415L0.406372 3.2915L3.37512 0.322754L44.6251 41.5728L41.6564 44.5415Z" fill="#B2B6AE"/>
</svg>
