<svg width="38" height="40" viewBox="0 0 38 40" fill="none" xmlns="http://www.w3.org/2000/svg">
<path d="M12.75 39.7501V29.3334C10.5972 29.1598 8.48785 28.9167 6.42188 28.6042C4.3559 28.2917 2.29861 27.8404 0.25 27.2501L1.29167 23.0834C4.17361 23.882 7.09028 24.4289 10.0417 24.724C12.9931 25.0192 15.9792 25.1667 19 25.1667C21.9861 25.1667 24.9549 25.0192 27.9062 24.724C30.8576 24.4289 33.7917 23.882 36.7083 23.0834L37.75 27.2501C35.6667 27.8404 33.592 28.2917 31.526 28.6042C29.4601 28.9167 27.3681 29.1598 25.25 29.3334V39.7501H12.75ZM19 23.0834C17.8194 23.0834 16.8299 22.6841 16.0312 21.8855C15.2326 21.0869 14.8333 20.0973 14.8333 18.9167C14.8333 17.7709 15.2326 16.79 16.0312 15.974C16.8299 15.1581 17.8194 14.7501 19 14.7501C20.1458 14.7501 21.1267 15.1581 21.9427 15.974C22.7587 16.79 23.1667 17.7709 23.1667 18.9167C23.1667 20.0973 22.7587 21.0869 21.9427 21.8855C21.1267 22.6841 20.1458 23.0834 19 23.0834ZM3.375 16.8334C2.47222 16.8334 1.72569 16.5383 1.13542 15.948C0.545139 15.3577 0.25 14.6112 0.25 13.7084C0.25 12.8404 0.545139 12.1025 1.13542 11.4949C1.72569 10.8872 2.47222 10.5834 3.375 10.5834C4.24306 10.5834 4.9809 10.8872 5.58854 11.4949C6.19618 12.1025 6.5 12.8404 6.5 13.7084C6.5 14.6112 6.19618 15.3577 5.58854 15.948C4.9809 16.5383 4.24306 16.8334 3.375 16.8334ZM34.625 16.8334C33.7222 16.8334 32.9757 16.5383 32.3854 15.948C31.7951 15.3577 31.5 14.6112 31.5 13.7084C31.5 12.8404 31.7951 12.1025 32.3854 11.4949C32.9757 10.8872 33.7222 10.5834 34.625 10.5834C35.4931 10.5834 36.2309 10.8872 36.8385 11.4949C37.4462 12.1025 37.75 12.8404 37.75 13.7084C37.75 14.6112 37.4462 15.3577 36.8385 15.948C36.2309 16.5383 35.4931 16.8334 34.625 16.8334ZM9.10417 9.02091C8.20139 9.02091 7.45486 8.72578 6.86458 8.1355C6.27431 7.54522 5.97917 6.79869 5.97917 5.89591C5.97917 5.02786 6.27431 4.29001 6.86458 3.68237C7.45486 3.07473 8.20139 2.77091 9.10417 2.77091C9.97222 2.77091 10.7101 3.07473 11.3177 3.68237C11.9253 4.29001 12.2292 5.02786 12.2292 5.89591C12.2292 6.79869 11.9253 7.54522 11.3177 8.1355C10.7101 8.72578 9.97222 9.02091 9.10417 9.02091ZM28.8958 9.02091C27.9931 9.02091 27.2465 8.72578 26.6562 8.1355C26.066 7.54522 25.7708 6.79869 25.7708 5.89591C25.7708 5.02786 26.066 4.29001 26.6562 3.68237C27.2465 3.07473 27.9931 2.77091 28.8958 2.77091C29.7639 2.77091 30.5017 3.07473 31.1094 3.68237C31.717 4.29001 32.0208 5.02786 32.0208 5.89591C32.0208 6.79869 31.717 7.54522 31.1094 8.1355C30.5017 8.72578 29.7639 9.02091 28.8958 9.02091ZM19 6.41675C18.0972 6.41675 17.3507 6.12161 16.7604 5.53133C16.1701 4.94105 15.875 4.19453 15.875 3.29175C15.875 2.42369 16.1701 1.68585 16.7604 1.07821C17.3507 0.470567 18.0972 0.166748 19 0.166748C19.8681 0.166748 20.6059 0.470567 21.2135 1.07821C21.8212 1.68585 22.125 2.42369 22.125 3.29175C22.125 4.19453 21.8212 4.94105 21.2135 5.53133C20.6059 6.12161 19.8681 6.41675 19 6.41675Z" fill="#B2B6AE"/>
</svg>
