<svg width="43" height="43" viewBox="0 0 43 43" fill="none" xmlns="http://www.w3.org/2000/svg">
<path d="M40.25 25.1157C40.2491 24.1204 39.9781 23.1429 39.4646 22.2813C38.9511 21.4197 38.213 20.7044 37.3245 20.2072C36.436 19.71 35.4282 19.4484 34.4024 19.4486C33.3767 19.4489 32.8999 19.7125 32.0117 20.2101L31.4807 13.6056C31.4807 12.8534 31.1727 12.1319 30.6247 11.6C30.0765 11.0681 29.333 10.7692 28.5578 10.7692L22.5682 10.1443C23.0836 9.28208 23.3648 8.92831 23.3664 7.93156C23.368 6.93477 23.0989 5.95519 22.5862 5.09143C22.0735 4.22771 21.3353 3.51029 20.4459 3.01146C19.5566 2.51264 18.5475 2.25 17.5203 2.25C16.493 2.25 15.4839 2.51264 14.5946 3.01146C13.7053 3.51029 12.9671 4.22771 12.4544 5.09143C11.9416 5.95519 11.6725 6.93477 11.6741 7.93156C11.6757 8.92831 11.9389 9.28208 12.4544 10.1443L5.1731 10.7692C4.39783 10.7692 3.65433 11.0681 3.10617 11.6C2.55797 12.1319 2.25 12.8534 2.25 13.6056L2.34121 16.8412C2.38138 18.2662 3.82197 19.2777 5.24982 19.613C6.28424 19.8559 7.25058 20.3628 8.01476 21.1044C9.11114 22.1682 9.72707 23.6111 9.72707 25.1157C9.72707 26.6202 9.11114 28.0631 8.01476 29.127C7.25058 29.8685 6.28424 30.3755 5.24982 30.6184C3.82109 30.9537 2.37921 31.9642 2.33669 33.39L2.25 36.2968C2.25 37.0492 2.55797 37.7706 3.10617 38.3026C7.36697 41.0359 26.9375 40.7587 30.6247 38.3026C31.1727 37.7706 31.4807 37.0492 31.4807 36.2968L32.0117 30.0241C32.8999 30.5217 33.3767 30.7823 34.4024 30.7826C35.4282 30.7829 36.436 30.5214 37.3245 30.0241C38.213 29.5269 38.9511 28.8116 39.4646 27.95C39.9781 27.0885 40.2491 26.111 40.25 25.1157Z" stroke="#142204" stroke-width="4.5" stroke-linecap="round" stroke-linejoin="round"/>
</svg>