<svg width="35" height="34" viewBox="0 0 35 34" fill="none" xmlns="http://www.w3.org/2000/svg">
<path d="M17.2619 33.3333C12.443 33.3333 8.36124 31.7188 5.01674 28.4896C1.67225 25.2604 0 21.3194 0 16.6667C0 12.0139 1.67225 8.07292 5.01674 4.84375C8.36124 1.61458 12.443 0 17.2619 0C19.7433 0 22.1168 0.494792 24.3824 1.48438C26.6481 2.47396 28.59 3.88889 30.2083 5.72917V0H34.5238V14.5833H19.4196V10.4167H28.4821C27.3314 8.47222 25.758 6.94444 23.7621 5.83333C21.7662 4.72222 19.5995 4.16667 17.2619 4.16667C13.6657 4.16667 10.6089 5.38194 8.09152 7.8125C5.57416 10.2431 4.31548 13.1944 4.31548 16.6667C4.31548 20.1389 5.57416 23.0903 8.09152 25.5208C10.6089 27.9514 13.6657 29.1667 17.2619 29.1667C20.031 29.1667 22.5304 28.4028 24.76 26.875C26.9897 25.3472 28.5541 23.3333 29.4531 20.8333H33.9844C32.9774 24.5139 30.9276 27.5174 27.8348 29.8437C24.7421 32.1701 21.2178 33.3333 17.2619 33.3333Z" fill="#B2B6AE"/>
</svg>