<svg width="22" height="22" viewBox="0 0 22 22" fill="none" xmlns="http://www.w3.org/2000/svg">
<path d="M21.3662 17.6162C21.3166 17.7438 21.2098 17.808 21.1191 17.8418C21.0299 17.875 20.9162 17.8945 20.7822 17.9092C20.5102 17.9389 20.0763 17.9539 19.4014 17.9658L17.9668 17.9912C17.948 19.0532 17.924 19.7846 17.8945 20.2803C17.8787 20.546 17.8622 20.7473 17.8438 20.8965C17.826 21.0396 17.805 21.1537 17.7754 21.2334L17.7744 21.2344C17.7187 21.3826 17.6508 21.5515 17.4951 21.6514C17.347 21.7464 17.1622 21.75 16.9902 21.75C16.8167 21.75 16.6241 21.7484 16.4697 21.6396C16.3896 21.5832 16.335 21.5101 16.293 21.4355C16.2523 21.3634 16.2155 21.2769 16.1787 21.1836V21.1826C16.1083 21.0044 16.0661 20.7627 16.0391 20.4492C16.0116 20.1304 15.9982 19.7175 15.9971 19.1885L15.9941 17.9414C14.5045 17.9411 13.709 17.9387 13.2686 17.9082C13.0402 17.8924 12.876 17.8675 12.7539 17.8174C12.6437 17.7721 12.5772 17.7101 12.5293 17.6514L12.4873 17.5947C12.3309 17.3732 12.2195 17.1403 12.2266 16.9092C12.2346 16.6519 12.3845 16.4623 12.6006 16.3369C12.8061 16.2177 13.0899 16.1433 13.4307 16.0967C13.7761 16.0495 14.2034 16.0283 14.7129 16.0283H15.9844C16.0009 15.2572 16.0137 14.6581 16.0352 14.1953C16.0586 13.6896 16.0925 13.3243 16.1602 13.0664C16.2299 12.8007 16.3486 12.6009 16.5723 12.4961C16.7621 12.4071 16.9961 12.4082 17.209 12.4082C17.3125 12.4082 17.4658 12.4081 17.5938 12.4824C17.7455 12.5708 17.8056 12.7219 17.8359 12.8662C17.866 13.0093 17.8783 13.2039 17.8877 13.4541C17.8972 13.7067 17.9044 14.0446 17.918 14.4746L17.9648 15.9824C19.5348 16.0391 20.4415 16.0962 20.957 16.209C21.2256 16.2678 21.4384 16.3505 21.5771 16.499C21.7269 16.6594 21.7496 16.8504 21.75 17.0107L21.7383 17.2012C21.7293 17.2625 21.7142 17.321 21.6914 17.374C21.6441 17.4841 21.5414 17.6035 21.3711 17.6133C21.369 17.6149 21.3674 17.6177 21.3662 17.6191C21.3654 17.6203 21.365 17.6191 21.3662 17.6162ZM8.19531 11.1094C9.76168 11.1133 11.3951 11.4468 12.626 11.9268C13.2401 12.1662 13.7681 12.4475 14.1387 12.7529C14.4976 13.0489 14.7694 13.4195 14.7207 13.8359V13.8369C14.6993 14.0172 14.6544 14.2065 14.5322 14.3477C14.3958 14.5052 14.2057 14.557 14.0039 14.5498C13.811 14.5428 13.5791 14.4821 13.3057 14.3857C13.028 14.2879 12.6872 14.1451 12.2725 13.96C9.74684 12.8323 7.13781 12.7331 4.70215 13.6621C3.60618 14.0801 2.91378 14.4772 2.56152 14.8564C2.3897 15.0414 2.31112 15.2092 2.29297 15.3623C2.27954 15.476 2.2974 15.5992 2.35742 15.7363L2.43164 15.8779L2.50879 15.9971C2.58371 16.1051 2.65458 16.1827 2.74316 16.2441C2.86263 16.327 3.03488 16.3964 3.33105 16.4482C3.93553 16.5541 4.95869 16.5727 6.86816 16.5732L8.1123 16.5752C9.20758 16.5811 9.87371 16.602 10.2734 16.6738C10.5388 16.7215 10.7571 16.8022 10.8887 16.9805C11.0159 17.1531 11.0186 17.365 11.0186 17.5234C11.0186 17.6863 11.0029 17.8416 10.9326 17.9795C10.8587 18.1243 10.742 18.2165 10.6123 18.291L10.6113 18.29C10.5136 18.3463 10.3938 18.3801 10.2422 18.4033C10.0882 18.4269 9.88161 18.4431 9.59863 18.4551C9.03121 18.479 8.12495 18.4863 6.6543 18.4863C5.00871 18.4863 4.10258 18.4826 3.54492 18.4531C2.9756 18.423 2.74657 18.3645 2.46094 18.251C1.78396 17.9821 1.19575 17.4928 0.797852 16.9326C0.402711 16.3762 0.174683 15.7192 0.272461 15.1152C0.461208 13.9514 1.50606 12.9488 2.9248 12.2471C4.35675 11.5388 6.22995 11.1044 8.19531 11.1094ZM8.08496 0.25C9.43274 0.250083 10.7258 0.780623 11.6816 1.72559C12.6375 2.67067 13.1782 3.95353 13.1846 5.29395V5.2959C13.1782 6.63635 12.6376 7.92014 11.6816 8.86523C10.7259 9.81004 9.43262 10.3398 8.08496 10.3398C6.73711 10.3398 5.44316 9.81022 4.4873 8.86523C3.53138 7.92014 2.99079 6.63635 2.98438 5.2959V5.29395C2.99079 3.95361 3.53154 2.67065 4.4873 1.72559C5.44317 0.780549 6.73707 0.25 8.08496 0.25ZM7.79492 2.41113C6.65898 2.47701 5.82081 3.1094 5.41895 3.96973C5.01632 4.83208 5.04525 5.94009 5.68848 6.96094C5.86223 7.23624 5.97647 7.38921 6.10156 7.50293C6.22452 7.6147 6.37105 7.70025 6.62891 7.81934L6.81934 7.90332C6.99128 7.9758 7.11694 8.01483 7.26855 8.03711C7.48183 8.06844 7.75408 8.06896 8.26953 8.05469C9.20064 8.02889 9.84536 7.81344 10.2744 7.4248C10.7011 7.03814 10.9553 6.44282 11.0273 5.56738C11.1195 4.44148 10.8611 3.63483 10.3389 3.12305C9.87987 2.6733 9.17891 2.41361 8.2207 2.40137L7.79492 2.41113Z" fill="#142204" stroke="#142204" stroke-width="0.5"/>
</svg>
