<svg width="13" height="15" viewBox="0 0 13 15" fill="none" xmlns="http://www.w3.org/2000/svg">
<path fill-rule="evenodd" clip-rule="evenodd" d="M6.49997 0C5.00213 0 3.73682 0.429955 2.84718 1.33308C1.95836 2.23539 1.5363 3.51693 1.5363 5.03345C1.5363 5.63411 1.44911 5.97397 1.35623 6.18115C1.26733 6.37944 1.15258 6.50531 0.986299 6.65966C0.965564 6.67892 0.942327 6.69992 0.917139 6.72268C0.757348 6.86709 0.518798 7.08267 0.340719 7.37365C0.116231 7.74046 0 8.18567 0 8.77303C0 9.57363 0.440093 10.1597 0.988 10.5569C1.52153 10.9437 2.20882 11.1953 2.88141 11.3654C4.2347 11.7075 5.75394 11.7735 6.49997 11.7735C7.24598 11.7735 8.76526 11.7076 10.1186 11.3654C10.7912 11.1953 11.4785 10.9437 12.012 10.5569C12.56 10.1597 13 9.57363 13 8.77303C13 8.18566 12.8838 7.74044 12.6593 7.37363C12.4812 7.08264 12.2426 6.86705 12.0829 6.72266C12.0576 6.69989 12.0344 6.67889 12.0136 6.65965C11.8473 6.50529 11.7326 6.37943 11.6437 6.18115C11.5508 5.97397 11.4636 5.63412 11.4636 5.03345C11.4636 3.51693 11.0416 2.23539 10.1528 1.33308C9.26312 0.429955 7.99781 0 6.49997 0ZM2.89046 5.03345C2.89046 3.76493 3.23998 2.87065 3.8086 2.29341C4.37641 1.71698 5.25439 1.36364 6.49997 1.36364C7.74554 1.36364 8.62353 1.71698 9.19134 2.29341C9.75997 2.87065 10.1095 3.76493 10.1095 5.03345C10.1095 5.76133 10.2143 6.30696 10.4095 6.74228C10.6087 7.18648 10.8781 7.46011 11.0958 7.66228C11.1332 7.69697 11.1671 7.72809 11.1979 7.75644C11.3585 7.90404 11.4377 7.97685 11.5064 8.08909C11.57 8.19295 11.6458 8.37549 11.6458 8.77303C11.6458 9.00141 11.5388 9.21968 11.2208 9.45017C10.8885 9.6911 10.3911 9.89048 9.78878 10.0428C8.59204 10.3454 7.19983 10.4098 6.49997 10.4098C5.8001 10.4098 4.40792 10.3454 3.21123 10.0428C2.60883 9.89047 2.1115 9.69109 1.77916 9.45017C1.4612 9.21968 1.35417 9.00141 1.35417 8.77303C1.35417 8.3755 1.42998 8.19296 1.49354 8.08909C1.56223 7.97685 1.64147 7.90404 1.80206 7.75644C1.83292 7.72809 1.86679 7.69696 1.90416 7.66227C2.12196 7.46008 2.39129 7.18646 2.59043 6.74225C2.78561 6.30695 2.89046 5.76132 2.89046 5.03345ZM4.78296 12.6075C4.55967 12.6075 4.35073 12.7185 4.22449 12.9039C4.09824 13.0894 4.07092 13.3256 4.15144 13.5353C4.33083 14.0025 4.63867 14.3825 5.06352 14.6387C5.48112 14.8904 5.97389 15 6.49972 15C7.02555 15 7.51831 14.8904 7.93592 14.6387C8.36077 14.3825 8.66861 14.0025 8.848 13.5353C8.92852 13.3256 8.9012 13.0894 8.77495 12.9039C8.64871 12.7185 8.43977 12.6075 8.21648 12.6075H4.78296Z" fill="#F4776A"/>
</svg>