<svg width="35" height="35" viewBox="0 0 35 35" fill="none" xmlns="http://www.w3.org/2000/svg">
<path d="M26.6188 29.8926C26.1105 27.9788 25.0114 26.2685 23.471 25.0094C21.786 23.6322 19.6767 22.8798 17.5004 22.8798C15.3242 22.8798 13.2149 23.6322 11.5299 25.0094C9.98955 26.2685 8.8904 27.9788 8.38221 29.8926M17.5 33.5C27.74 33.5 33.5 27.74 33.5 17.5C33.5 7.26 27.74 1.5 17.5 1.5C7.26 1.5 1.5 7.26 1.5 17.5C1.5 27.74 7.26 33.5 17.5 33.5ZM17.4976 18.9279C20.9438 18.9279 22.8822 16.9894 22.8822 13.5433C22.8822 10.0971 20.9438 8.15865 17.4976 8.15865C14.0514 8.15865 12.113 10.0971 12.113 13.5433C12.113 16.9894 14.0514 18.9279 17.4976 18.9279Z" stroke="#B4FF5E" stroke-width="3" stroke-linecap="round" stroke-linejoin="round"/>
</svg>
