<svg width="22" height="22" viewBox="0 0 22 22" fill="none" xmlns="http://www.w3.org/2000/svg">
<path d="M15.2588 14.1562C15.7121 14.0188 16.2187 14.0248 16.502 14.4521L16.5029 14.4531C16.5913 14.5872 16.6585 14.73 16.6787 14.8828C16.6998 15.042 16.6674 15.1941 16.5879 15.3359C16.4407 15.5982 16.1307 15.8228 15.7168 16.0566C15.359 16.2592 15.0108 16.5113 14.7549 16.7383C14.6654 16.8177 14.5909 16.8933 14.5312 16.959C14.6252 16.9661 14.7432 16.9739 14.8887 16.9795C15.4126 16.9995 16.2606 17.0068 17.5518 17.0068C19.4268 17.0068 20.4423 17.0135 20.9834 17.1035C21.2503 17.1479 21.4708 17.2211 21.6074 17.3867C21.7459 17.5547 21.75 17.7625 21.75 17.9141C21.75 18.0881 21.7442 18.3058 21.6143 18.4844C21.4799 18.6689 21.2579 18.757 20.9824 18.8096C20.4332 18.9142 19.407 18.9209 17.5254 18.9209C15.9095 18.9209 15.078 18.9239 14.6699 18.9551C14.717 18.9978 14.7749 19.0477 14.8438 19.1006C14.99 19.2129 15.1634 19.3279 15.3262 19.418C15.6783 19.6109 16.1146 19.8542 16.2969 19.957H16.2979C16.5486 20.099 16.7203 20.3165 16.7744 20.5801C16.8213 20.8088 16.7744 21.0465 16.6533 21.2666L16.5967 21.3594C16.5166 21.4804 16.4182 21.5818 16.293 21.6514C16.167 21.7212 16.0302 21.75 15.8867 21.75C15.8092 21.75 15.7196 21.7309 15.6377 21.709C15.5505 21.6856 15.451 21.6531 15.3467 21.6143C15.2422 21.5754 15.1298 21.5294 15.0156 21.4785L14.6738 21.3135C13.993 20.9576 13.3122 20.3721 12.8018 19.7676C12.5458 19.4644 12.3283 19.1501 12.1729 18.8516C12.02 18.5579 11.9161 18.2577 11.916 17.9863C11.916 17.4752 12.1585 16.9223 12.498 16.416C12.8415 15.904 13.3038 15.4099 13.7891 15.0107C14.2715 14.6139 14.7933 14.2975 15.2588 14.1562ZM8.10352 11.1084C9.77832 11.1068 11.3756 11.4257 12.4297 11.876C12.9488 12.0978 13.375 12.3675 13.5947 12.6787C13.7087 12.8401 13.7781 13.0289 13.7539 13.2324C13.7358 13.3846 13.6682 13.5216 13.5664 13.6426L13.4531 13.7588C13.3718 13.8317 13.2755 13.9088 13.1455 13.9531C13.0144 13.9978 12.8746 14.0003 12.7148 13.9785C12.5624 13.9577 12.3689 13.9108 12.1133 13.8359L11.1387 13.5273C9.00733 12.8295 6.73444 12.8837 4.60059 13.6875C3.53442 14.0892 2.85448 14.4812 2.50781 14.8584C2.3387 15.0424 2.26053 15.2107 2.24219 15.3643C2.22865 15.4782 2.24644 15.6016 2.30566 15.7373L2.37891 15.8779L2.45605 15.9961C2.53078 16.103 2.60295 16.1797 2.69141 16.2412C2.81094 16.3242 2.98155 16.3943 3.27051 16.4463C3.86095 16.5525 4.85298 16.5723 6.69043 16.5723C8.26108 16.5723 9.06599 16.5721 9.50977 16.6045C9.73123 16.6207 9.88874 16.6465 10.0146 16.6963C10.0824 16.7231 10.1375 16.7546 10.1836 16.7881L10.3018 16.8877V16.8887C10.4851 17.0558 10.6394 17.2509 10.6455 17.4971C10.65 17.6791 10.5717 17.8413 10.46 17.9893L10.3389 18.1328C10.276 18.2005 10.1971 18.2892 10.0547 18.3506C9.92503 18.4064 9.75862 18.4338 9.52441 18.4512C9.05266 18.4862 8.18285 18.4863 6.47754 18.4863C4.88975 18.4863 4.01396 18.4823 3.46973 18.4521C2.913 18.4213 2.68198 18.3613 2.38574 18.2471V18.248C1.34443 17.8485 0.636929 17.0645 0.369141 16.1758C0.10065 15.2844 0.279918 14.2993 0.989258 13.5244C1.62141 12.834 2.73765 12.2332 4.00684 11.8057C5.28299 11.3758 6.74766 11.1095 8.10352 11.1084ZM8.04785 0.25C9.39887 0.25 10.696 0.779716 11.6543 1.72461C12.6127 2.66965 13.1547 3.95328 13.1611 5.29395V5.2959C13.1547 6.63655 12.6127 7.9202 11.6543 8.86523C10.696 9.8102 9.39892 10.3398 8.04785 10.3398C6.69696 10.3398 5.40061 9.81003 4.44238 8.86523C3.48399 7.9202 2.94198 6.63657 2.93555 5.2959V5.29395C2.94198 3.95328 3.48399 2.66965 4.44238 1.72461C5.4006 0.779905 6.69703 0.250078 8.04785 0.25ZM10.3096 3.12305C9.78359 2.60902 8.94009 2.34328 7.75781 2.41113C6.6181 2.47705 5.77779 3.11027 5.375 3.9707C4.97138 4.83296 5.00044 5.9401 5.64551 6.96094L5.76562 7.14551C5.87724 7.30982 5.96552 7.41664 6.05957 7.50195C6.18289 7.61376 6.32938 7.70026 6.58789 7.81934L6.77832 7.90332C6.95102 7.97596 7.07721 8.01478 7.22949 8.03711C7.44346 8.06847 7.71662 8.06895 8.2334 8.05469C9.16718 8.02889 9.81379 7.81359 10.2441 7.4248C10.6721 7.03811 10.9268 6.44279 10.999 5.56738C11.0914 4.44179 10.8331 3.63486 10.3096 3.12305Z" fill="#231602" stroke="#231602" stroke-width="0.5"/>
</svg>