<svg width="216" height="216" viewBox="0 0 216 216" fill="none" xmlns="http://www.w3.org/2000/svg">
<path d="M107.998 95.6474C107.998 90.2714 112.382 86.9754 120.093 81.8234C127.26 77.0234 131.036 70.8315 129.356 62.3835C128.467 58.1827 126.378 54.3303 123.342 51.2941C120.306 48.2579 116.454 46.1685 112.254 45.2795C109.103 44.6912 105.861 44.7994 102.755 45.5966C99.6503 46.3938 96.7571 47.8606 94.2786 49.8942C91.8001 51.9278 89.7964 54.479 88.408 57.3689C87.0195 60.2588 86.2799 63.4175 86.241 66.6235M108.02 132.895V128.895M39.8434 164.768C25.541 163.424 13.5264 152.96 11.5426 138.752C6.76613 104.782 6.81999 70.3069 11.7026 36.352C13.6224 23.072 24.4691 13.04 37.8116 11.648C61.1322 9.21141 84.564 7.99375 108.012 8.00002C132.025 8.00002 155.174 9.36002 177.731 11.68C184.329 12.3045 190.528 15.1207 195.338 19.6795C200.149 24.2382 203.294 30.2768 204.272 36.832C206.733 53.9545 207.978 71.2297 208 88.528C208 106.064 206.512 123.104 204.176 139.664C203.201 146.345 200.014 152.507 195.124 157.162C190.234 161.818 183.924 164.699 177.204 165.344C153.649 167.81 129.983 169.049 106.3 169.056C89.5176 188.352 76.6551 197.904 54.1777 208V166.08L43.299 165.088L39.8434 164.768Z" stroke="#B4FF5E" stroke-width="16" stroke-linecap="round" stroke-linejoin="round"/>
</svg>