<svg width="28" height="22" viewBox="0 0 28 22" fill="none" xmlns="http://www.w3.org/2000/svg">
<path d="M3.33317 21.6666C2.59984 21.6666 1.97206 21.4055 1.44984 20.8833C0.927615 20.361 0.666504 19.7333 0.666504 18.9999V2.99992C0.666504 2.26659 0.927615 1.63881 1.44984 1.11659C1.97206 0.594363 2.59984 0.333252 3.33317 0.333252H24.6665C25.3998 0.333252 26.0276 0.594363 26.5498 1.11659C27.0721 1.63881 27.3332 2.26659 27.3332 2.99992V18.9999C27.3332 19.7333 27.0721 20.361 26.5498 20.8833C26.0276 21.4055 25.3998 21.6666 24.6665 21.6666H3.33317ZM13.9998 12.3333L3.33317 5.66658V18.9999H24.6665V5.66658L13.9998 12.3333ZM13.9998 9.66658L24.6665 2.99992H3.33317L13.9998 9.66658ZM3.33317 5.66658V2.99992V18.9999V5.66658Z" fill="#E0E4DB"/>
</svg>
