<?xml version="1.0" encoding="utf-8"?>
<!DOCTYPE svg PUBLIC "-//W3C//DTD SVG 20010904//EN" "http://www.w3.org/TR/2001/REC-SVG-20010904/DTD/svg10.dtd">
<svg version="1.0" width="74.235pt" height="74.235pt" viewBox="0 0 74.235 74.235" preserveAspectRatio="xMidYMid meet" xmlns="http://www.w3.org/2000/svg">
  <g transform="translate(0,74.235)scale(.0735,.0735)">
    <path id="path1" d="M 457 -990 c -14 11 -37 40 -51 64 -34 58 -65 69 -144 49 -71 -18 -108 -6 -130 41 -12 24 -12 37 1 88 20 79 9 110 -49 144 -56 33 -84 68 -84 106 0 31 21 55 89 101 56 37 65 64 46 137 -18 68 -10 100 30 126 23 15 33 16 93 4 37 -7 76 -11 87 -9 10 2 34 24 52 49 61 82 70 90 103 90 45 0 64 -13 99 -70 42 -68 64 -77 147 -61 117 24 157 -16 133 -133 -16 -83 -7 -105 61 -147 57 -35 70 -54 70 -99 0 -33 -8 -42 -90 -103 -25 -18 -47 -42 -49 -52 -2 -11 2 -50 9 -87 12 -60 11 -70 -4 -93 -26 -39 -57 -47 -127 -30 -76 17 -100 9 -136 -46 -62 -93 -103 -111 -156 -69 z " />
  </g>
</svg>