<?xml version="1.0" encoding="utf-8"?>
<!DOCTYPE svg PUBLIC "-//W3C//DTD SVG 20010904//EN" "http://www.w3.org/TR/2001/REC-SVG-20010904/DTD/svg10.dtd">
<svg version="1.0" width="75.75pt" height="75.75pt" viewBox="0 0 75.75 75.75" preserveAspectRatio="xMidYMid meet" xmlns="http://www.w3.org/2000/svg">
  <g transform="translate(0,75.75)scale(.075,.075)">
    <path id="path1" d="M 466 -1003 c -11 3 -43 21 -71 39 -36 24 -68 36 -106 41 -101 11 -153 59 -174 161 -4 18 -23 49 -43 69 -21 20 -45 48 -54 62 -25 36 -23 112 3 164 17 33 22 58 21 117 -2 102 21 144 102 185 41 21 71 46 102 86 53 69 85 84 162 74 75 -9 114 -9 189 0 82 10 110 -2 166 -75 33 -41 61 -66 103 -86 78 -39 108 -93 99 -176 -5 -47 -2 -67 20 -117 41 -99 32 -152 -39 -221 -26 -24 -43 -54 -57 -99 -29 -95 -79 -141 -154 -141 -43 0 -93 -20 -138 -54 -33 -25 -95 -39 -131 -29 z " />
  </g>
</svg>