<svg width="49" height="56" viewBox="0 0 49 56" fill="none" xmlns="http://www.w3.org/2000/svg">
<path d="M35.3889 41.6112C36.5232 41.6112 37.4873 41.2142 38.2812 40.4202C39.0752 39.6262 39.4722 38.6621 39.4722 37.5278C39.4722 36.3936 39.0752 35.4295 38.2812 34.6355C37.4873 33.8415 36.5232 33.4445 35.3889 33.4445C34.2546 33.4445 33.2905 33.8415 32.4965 34.6355C31.7025 35.4295 31.3056 36.3936 31.3056 37.5278C31.3056 38.6621 31.7025 39.6262 32.4965 40.4202C33.2905 41.2142 34.2546 41.6112 35.3889 41.6112ZM35.3889 49.7778C36.7954 49.7778 38.0884 49.4489 39.2681 48.791C40.4477 48.1332 41.4005 47.2598 42.1264 46.1709C41.1282 45.5811 40.062 45.1274 38.9278 44.8098C37.7935 44.4922 36.6139 44.3334 35.3889 44.3334C34.1639 44.3334 32.9843 44.4922 31.85 44.8098C30.7157 45.1274 29.6495 45.5811 28.6514 46.1709C29.3773 47.2598 30.3301 48.1332 31.5097 48.791C32.6894 49.4489 33.9824 49.7778 35.3889 49.7778ZM21.7778 55.2223C15.4713 53.6343 10.265 50.016 6.15903 44.3674C2.05301 38.7188 0 32.4464 0 25.5501V8.9445L21.7778 0.777832L43.5556 8.9445V24.3931C42.6935 24.0301 41.8088 23.7012 40.9014 23.4063C39.994 23.1114 39.0639 22.8959 38.1111 22.7598V12.7556L21.7778 6.63061L5.44444 12.7556V25.5501C5.44444 27.6825 5.72801 29.8149 6.29514 31.9473C6.86227 34.0797 7.65625 36.11 8.67708 38.0382C9.69792 39.9665 10.9343 41.7473 12.3861 43.3806C13.838 45.0139 15.4486 46.375 17.2181 47.4639C17.7171 48.9158 18.375 50.2996 19.1917 51.6153C20.0083 52.9311 20.9384 54.1107 21.9819 55.1542C21.9366 55.1542 21.9025 55.1656 21.8799 55.1882C21.8572 55.2109 21.8231 55.2223 21.7778 55.2223ZM35.3889 55.2223C31.6231 55.2223 28.4132 53.8952 25.759 51.241C23.1049 48.5869 21.7778 45.3769 21.7778 41.6112C21.7778 37.8454 23.1049 34.6355 25.759 31.9813C28.4132 29.3271 31.6231 28.0001 35.3889 28.0001C39.1546 28.0001 42.3646 29.3271 45.0188 31.9813C47.6729 34.6355 49 37.8454 49 41.6112C49 45.3769 47.6729 48.5869 45.0188 51.241C42.3646 53.8952 39.1546 55.2223 35.3889 55.2223Z" fill="#E0E4DB"/>
</svg>