<svg width="45" height="36" viewBox="0 0 45 36" fill="none" xmlns="http://www.w3.org/2000/svg">
<path d="M33.75 24.75C32.175 24.75 30.8438 24.2063 29.7563 23.1188C28.6688 22.0313 28.125 20.7 28.125 19.125C28.125 17.55 28.6688 16.2187 29.7563 15.1312C30.8438 14.0437 32.175 13.5 33.75 13.5C35.325 13.5 36.6562 14.0437 37.7437 15.1312C38.8312 16.2187 39.375 17.55 39.375 19.125C39.375 20.7 38.8312 22.0313 37.7437 23.1188C36.6562 24.2063 35.325 24.75 33.75 24.75ZM22.5 36V32.85C22.5 31.95 22.7344 31.1156 23.2031 30.3469C23.6719 29.5781 24.3375 29.025 25.2 28.6875C26.55 28.125 27.9469 27.7031 29.3906 27.4219C30.8344 27.1406 32.2875 27 33.75 27C35.2125 27 36.6656 27.1406 38.1094 27.4219C39.5531 27.7031 40.95 28.125 42.3 28.6875C43.1625 29.025 43.8281 29.5781 44.2969 30.3469C44.7656 31.1156 45 31.95 45 32.85V36H22.5ZM18 18C15.525 18 13.4063 17.1188 11.6438 15.3563C9.88125 13.5938 9 11.475 9 9C9 6.525 9.88125 4.40625 11.6438 2.64375C13.4063 0.88125 15.525 0 18 0C20.475 0 22.5937 0.88125 24.3562 2.64375C26.1187 4.40625 27 6.525 27 9C27 11.475 26.1187 13.5938 24.3562 15.3563C22.5937 17.1188 20.475 18 18 18ZM0 36V29.7C0 28.425 0.31875 27.2531 0.95625 26.1844C1.59375 25.1156 2.475 24.3 3.6 23.7375C5.85 22.6125 8.18438 21.75 10.6031 21.15C13.0219 20.55 15.4875 20.25 18 20.25C19.3125 20.25 20.625 20.3625 21.9375 20.5875C23.25 20.8125 24.5625 21.075 25.875 21.375L22.05 25.2C21.375 25.0125 20.7 24.8906 20.025 24.8344C19.35 24.7781 18.675 24.75 18 24.75C15.825 24.75 13.6969 25.0125 11.6156 25.5375C9.53437 26.0625 7.5375 26.8125 5.625 27.7875C5.25 27.975 4.96875 28.2375 4.78125 28.575C4.59375 28.9125 4.5 29.2875 4.5 29.7V31.5H18V36H0ZM18 13.5C19.2375 13.5 20.2969 13.0594 21.1781 12.1781C22.0594 11.2969 22.5 10.2375 22.5 9C22.5 7.7625 22.0594 6.70313 21.1781 5.82188C20.2969 4.94063 19.2375 4.5 18 4.5C16.7625 4.5 15.7031 4.94063 14.8219 5.82188C13.9406 6.70313 13.5 7.7625 13.5 9C13.5 10.2375 13.9406 11.2969 14.8219 12.1781C15.7031 13.0594 16.7625 13.5 18 13.5Z" fill="#E0E4DB"/>
</svg>
