<svg width="42" height="42" viewBox="0 0 42 42" fill="none" xmlns="http://www.w3.org/2000/svg">
<path d="M22.3048 35.493C23.9789 35.493 25.5873 35.2383 27.1301 34.7289C28.6729 34.2195 30.1172 33.4883 31.4631 32.5352C30.1172 31.5822 28.6729 30.8509 27.1301 30.3416C25.5873 29.8322 23.9789 29.5775 22.3048 29.5775C20.6307 29.5775 19.0223 29.8322 17.4795 30.3416C15.9367 30.8509 14.4924 31.5822 13.1465 32.5352C14.4924 33.4883 15.9367 34.2195 17.4795 34.7289C19.0223 35.2383 20.6307 35.493 22.3048 35.493ZM27.524 19.3239L24.7175 16.5141C24.8816 16.2512 25.0129 15.9718 25.1114 15.6761C25.2098 15.3803 25.2591 15.0845 25.2591 14.7887C25.2591 13.9671 24.9719 13.2688 24.3974 12.6937C23.823 12.1185 23.1254 11.831 22.3048 11.831C22.0094 11.831 21.7139 11.8803 21.4185 11.9789C21.1231 12.0775 20.8441 12.2089 20.5815 12.3732L17.7749 9.56338C18.3986 9.00469 19.0961 8.58568 19.8675 8.30634C20.6389 8.027 21.4513 7.88732 22.3048 7.88732C24.2087 7.88732 25.8335 8.56103 27.1794 9.90845C28.5252 11.2559 29.1981 12.8826 29.1981 14.7887C29.1981 15.6432 29.0586 16.4566 28.7796 17.2289C28.5006 18.0012 28.0821 18.6995 27.524 19.3239ZM38.7503 30.5634L35.8945 27.7042C36.6166 26.4883 37.1583 25.2066 37.5193 23.8592C37.8804 22.5117 38.061 21.1315 38.061 19.7183C38.061 15.3146 36.5346 11.5845 33.4818 8.52817C30.4291 5.47183 26.7034 3.94366 22.3048 3.94366C20.8933 3.94366 19.5147 4.12441 18.1688 4.48592C16.823 4.84742 15.5428 5.38967 14.3283 6.11268L11.4725 3.25352C13.0809 2.20188 14.8042 1.39671 16.6424 0.838028C18.4807 0.279343 20.3681 0 22.3048 0C25.0293 0 27.5897 0.517606 29.9859 1.55282C32.3822 2.58803 34.4666 3.99296 36.2392 5.76761C38.0117 7.54225 39.415 9.62911 40.449 12.0282C41.483 14.4272 42 16.9906 42 19.7183C42 21.6573 41.721 23.5469 41.163 25.3873C40.6049 27.2277 39.8007 28.9531 38.7503 30.5634ZM22.3048 39.4366C19.5803 39.4366 17.0199 38.919 14.6237 37.8838C12.2274 36.8486 10.143 35.4437 8.37046 33.669C6.59789 31.8944 5.19461 29.8075 4.16061 27.4085C3.12661 25.0094 2.60961 22.446 2.60961 19.7183C2.60961 17.7793 2.88042 15.8897 3.42204 14.0493C3.96366 12.2089 4.75967 10.4671 5.81008 8.82394L0 2.95775L2.80657 0.147887L41.803 39.1901L38.9965 42L8.71512 11.7324C7.99297 12.9484 7.45135 14.23 7.09027 15.5775C6.72919 16.9249 6.54865 18.3052 6.54865 19.7183C6.54865 21.5915 6.86049 23.3826 7.48417 25.0916C8.10785 26.8005 9.01055 28.3615 10.1923 29.7746C11.9648 28.4272 13.8769 27.4002 15.9285 26.6937C17.9801 25.9871 20.1055 25.6338 22.3048 25.6338C23.5522 25.6338 24.7995 25.7653 26.0469 26.0282C27.2943 26.2911 28.5088 26.6526 29.6905 27.1127L36.2392 33.669C34.3681 35.5423 32.2345 36.9718 29.8382 37.9577C27.442 38.9437 24.9308 39.4366 22.3048 39.4366Z" fill="#C4C8C3"/>
</svg>