<svg width="29" height="29" viewBox="0 0 29 29" fill="none" xmlns="http://www.w3.org/2000/svg">
<path d="M21.659 24.319C21.246 22.764 20.353 21.3744 19.1014 20.3514C17.7324 19.2324 16.0185 18.6211 14.2504 18.6211C12.4822 18.6211 10.7684 19.2324 9.39932 20.3514C8.14776 21.3744 7.2547 22.764 6.8418 24.319M14.25 27.25C22.57 27.25 27.25 22.57 27.25 14.25C27.25 5.93 22.57 1.25 14.25 1.25C5.93 1.25 1.25 5.93 1.25 14.25C1.25 22.57 5.93 27.25 14.25 27.25ZM14.248 15.4102C17.048 15.4102 18.623 13.8352 18.623 11.0352C18.623 8.23516 17.048 6.66016 14.248 6.66016C11.448 6.66016 9.87305 8.23516 9.87305 11.0352C9.87305 13.8352 11.448 15.4102 14.248 15.4102Z" stroke="#142204" stroke-width="2.5" stroke-linecap="round" stroke-linejoin="round"/>
</svg>