<svg width="20" height="20" viewBox="0 0 20 20" fill="none" xmlns="http://www.w3.org/2000/svg">
<path d="M15.1293 16.9708C14.8434 15.8943 14.2252 14.9323 13.3587 14.224C12.4109 13.4493 11.2244 13.0261 10.0002 13.0261C8.77612 13.0261 7.58965 13.4493 6.64183 14.224C5.77537 14.9323 5.1571 15.8943 4.87124 16.9708M10 19C15.76 19 19 15.76 19 10C19 4.24 15.76 1 10 1C4.24 1 1 4.24 1 10C1 15.76 4.24 19 10 19ZM9.99865 10.8032C11.9371 10.8032 13.0275 9.7128 13.0275 7.77434C13.0275 5.83588 11.9371 4.74549 9.99865 4.74549C8.06019 4.74549 6.9698 5.83588 6.9698 7.77434C6.9698 9.7128 8.06019 10.8032 9.99865 10.8032Z" stroke="#142204" stroke-opacity="0.9" stroke-width="2" stroke-linecap="round" stroke-linejoin="round"/>
</svg>
