<svg width="379" height="332" viewBox="0 0 379 332" fill="none" xmlns="http://www.w3.org/2000/svg">
<path d="M189.44 116.475V183.642M189.44 250.809H189.608M160.726 30.1661L18.5005 267.6C15.5681 272.678 14.0166 278.436 14.0001 284.3C13.9837 290.164 15.503 295.93 18.4069 301.024C21.3108 306.119 25.498 310.364 30.552 313.338C35.606 316.312 41.3506 317.911 47.2142 317.975H331.665C337.529 317.911 343.273 316.312 348.327 313.338C353.381 310.364 357.569 306.119 360.472 301.024C363.376 295.93 364.896 290.164 364.879 284.3C364.863 278.436 363.311 272.678 360.379 267.6L218.153 30.1661C215.16 25.2311 210.945 21.151 205.916 18.3193C200.886 15.4876 195.212 14 189.44 14C183.668 14 177.993 15.4876 172.964 18.3193C167.934 21.151 163.719 25.2311 160.726 30.1661Z" stroke="#C9FF8A" stroke-width="28" stroke-linecap="round" stroke-linejoin="round"/>
</svg>