<svg width="29" height="18" viewBox="0 0 29 18" fill="none" xmlns="http://www.w3.org/2000/svg">
<path d="M7.25 0C7.8506 0 8.3375 0.483538 8.3375 1.08V1.8H13.4125C14.0131 1.8 14.5 2.28354 14.5 2.88C14.5 3.47646 14.0131 3.96 13.4125 3.96H8.3375V5.4H10.875C12.2764 5.4 13.4125 6.52824 13.4125 7.92V10.08C13.4125 11.4718 12.2764 12.6 10.875 12.6H9.8753L12.3689 15.0764C12.7936 15.4981 12.7936 16.1819 12.3689 16.6036C11.9442 17.0254 11.2558 17.0254 10.8311 16.6036L8.3375 14.1271V16.92C8.3375 17.5164 7.8506 18 7.25 18C6.6494 18 6.1625 17.5164 6.1625 16.92V14.1271L3.66889 16.6036C3.2442 17.0254 2.5558 17.0254 2.13111 16.6036C1.7064 16.1819 1.7064 15.4981 2.13111 15.0764L4.6247 12.6H3.625C2.22358 12.6 1.0875 11.4718 1.0875 10.08V7.92C1.0875 6.52824 2.22358 5.4 3.625 5.4H6.1625V3.96H1.0875C0.486896 3.96 0 3.47646 0 2.88C0 2.28354 0.486896 1.8 1.0875 1.8H6.1625V1.08C6.1625 0.483538 6.6494 0 7.25 0ZM23.2 1.44C24.6472 1.44013 26.0249 1.82622 27.0814 2.52563C28.1272 3.21849 29 4.33392 29 5.76V15.12C29 15.915 28.3505 16.5596 27.55 16.56C26.9939 16.5599 26.5104 16.2487 26.267 15.7922C25.3475 16.2858 24.2803 16.56 23.2 16.56C20.2555 16.56 17.4 14.5382 17.4 11.52C17.4 8.50176 20.2555 6.48 23.2 6.48C24.2149 6.48 25.2196 6.71947 26.1 7.15781V5.76C26.1 5.59603 25.9988 5.27129 25.4713 4.92188C24.9536 4.57926 24.1544 4.32013 23.2 4.32C22.7775 4.32003 22.379 4.37132 22.0204 4.46063C21.244 4.65395 20.4567 4.18546 20.2617 3.41437C20.0668 2.64302 20.5385 1.86143 21.3153 1.66781C21.9094 1.51979 22.5446 1.44003 23.2 1.44ZM23.2 9.36C21.3397 9.36 20.3 10.5617 20.3 11.52C20.3 12.4783 21.3397 13.68 23.2 13.68C25.0604 13.68 26.1 12.4783 26.1 11.52C26.1 10.5617 25.0604 9.36 23.2 9.36ZM3.625 7.56C3.4248 7.56 3.2625 7.72114 3.2625 7.92V10.08C3.2625 10.2789 3.4248 10.44 3.625 10.44H6.1625V7.56H3.625ZM8.3375 10.44H10.875C11.0752 10.44 11.2375 10.2789 11.2375 10.08V7.92C11.2375 7.72114 11.0752 7.56 10.875 7.56H8.3375V10.44Z" fill="#C9FF8A"/>
</svg>