<svg width="12" height="12" viewBox="0 0 12 12" fill="none" xmlns="http://www.w3.org/2000/svg">
<path d="M4.47227 2.04965C3.77193 2.0818 3.08608 2.15734 2.41713 2.23449C2.04009 2.27889 1.68909 2.44905 1.421 2.71743C1.15291 2.98581 0.983417 3.33668 0.939977 3.71322C0.843379 4.57955 0.75 5.47563 0.75 6.39179C0.75 7.30876 0.843379 8.20483 0.939977 9.07197C1.02692 9.84348 1.64434 10.4599 2.41713 10.5491C3.28974 10.6495 4.19133 10.75 5.11384 10.75C6.03717 10.75 6.93876 10.6495 7.81136 10.5491C8.18802 10.5046 8.53864 10.3346 8.80654 10.0666C9.07445 9.79851 9.24397 9.4481 9.28771 9.07197C9.36417 8.4363 9.42109 7.79844 9.45837 7.15928M8.27053 1.15991L5.30414 4.51918L4.89843 6.42786C4.83242 6.73485 5.15361 7.02578 5.45387 6.93095L7.35526 6.33463L10.419 3.116C10.9286 2.58158 10.8392 1.68711 10.2234 1.14304C9.62211 0.612626 8.74789 0.619859 8.27053 1.15991Z" stroke="#142204" stroke-width="1.5" stroke-linecap="round" stroke-linejoin="round"/>
</svg>
