<svg width="130" height="130" viewBox="0 0 130 130" fill="none" xmlns="http://www.w3.org/2000/svg">
<path d="M64.9997 129.166C56.1233 129.166 47.7816 127.482 39.9747 124.113C32.1677 120.744 25.3768 116.173 19.6018 110.398C13.8268 104.623 9.25488 97.8316 5.88613 90.0247C2.51738 82.2177 0.833008 73.8761 0.833008 64.9997C0.833008 56.1233 2.51738 47.7816 5.88613 39.9747C9.25488 32.1677 13.8268 25.3768 19.6018 19.6018C25.3768 13.8268 32.1677 9.25488 39.9747 5.88613C47.7816 2.51738 56.1233 0.833008 64.9997 0.833008C73.8761 0.833008 82.2177 2.51738 90.0247 5.88613C97.8316 9.25488 104.623 13.8268 110.398 19.6018C116.173 25.3768 120.744 32.1677 124.113 39.9747C127.482 47.7816 129.166 56.1233 129.166 64.9997C129.166 73.8761 127.482 82.2177 124.113 90.0247C120.744 97.8316 116.173 104.623 110.398 110.398C104.623 116.173 97.8316 120.744 90.0247 124.113C82.2177 127.482 73.8761 129.166 64.9997 129.166ZM64.9997 116.333C70.7747 116.333 76.3358 115.397 81.683 113.526C87.0302 111.654 91.9497 108.954 96.4414 105.425L24.5747 33.558C21.0455 38.0497 18.3452 42.9691 16.4736 48.3163C14.6021 53.6636 13.6663 59.2247 13.6663 64.9997C13.6663 79.3302 18.6393 91.4684 28.5851 101.414C38.5309 111.36 50.6691 116.333 64.9997 116.333ZM105.425 96.4414C108.954 91.9497 111.654 87.0302 113.526 81.683C115.397 76.3358 116.333 70.7747 116.333 64.9997C116.333 50.6691 111.36 38.5309 101.414 28.5851C91.4684 18.6393 79.3302 13.6663 64.9997 13.6663C59.2247 13.6663 53.6636 14.6021 48.3163 16.4736C42.9691 18.3452 38.0497 21.0455 33.558 24.5747L105.425 96.4414Z" fill="#C1C9BE"/>
</svg>
