<svg width="15" height="16" viewBox="0 0 15 16" fill="none" xmlns="http://www.w3.org/2000/svg">
<path d="M2.1219 15.6798V14.2835H13.2924V15.6798H2.1219ZM2.1219 1.71663V0.320312H13.2924V1.71663H2.1219ZM7.70717 8.69822C8.28897 8.69822 8.7835 8.49459 9.19076 8.08733C9.59802 7.68007 9.80165 7.18554 9.80165 6.60374C9.80165 6.02194 9.59802 5.52741 9.19076 5.12015C8.7835 4.71289 8.28897 4.50927 7.70717 4.50927C7.12537 4.50927 6.63085 4.71289 6.22359 5.12015C5.81633 5.52741 5.6127 6.02194 5.6127 6.60374C5.6127 7.18554 5.81633 7.68007 6.22359 8.08733C6.63085 8.49459 7.12537 8.69822 7.70717 8.69822ZM2.1219 13.5853C1.73792 13.5853 1.4092 13.4486 1.13575 13.1752C0.862309 12.9017 0.725586 12.573 0.725586 12.189V3.81111C0.725586 3.42712 0.862309 3.0984 1.13575 2.82496C1.4092 2.55151 1.73792 2.41479 2.1219 2.41479H13.2924C13.6764 2.41479 14.0051 2.55151 14.2786 2.82496C14.552 3.0984 14.6888 3.42712 14.6888 3.81111V12.189C14.6888 12.573 14.552 12.9017 14.2786 13.1752C14.0051 13.4486 13.6764 13.5853 13.2924 13.5853H2.1219ZM3.34368 12.189C3.8673 11.5374 4.50146 11.0254 5.24616 10.6531C5.99087 10.2807 6.8112 10.0945 7.70717 10.0945C8.60314 10.0945 9.42348 10.2807 10.1682 10.6531C10.9129 11.0254 11.547 11.5374 12.0707 12.189H13.2924V3.81111H2.1219V12.189H3.34368ZM5.40325 12.189H10.0111C9.67365 11.9563 9.31003 11.7818 8.92023 11.6654C8.53042 11.549 8.12607 11.4909 7.70717 11.4909C7.28828 11.4909 6.88393 11.549 6.49412 11.6654C6.10432 11.7818 5.74069 11.9563 5.40325 12.189ZM7.70717 7.3019C7.50936 7.3019 7.34355 7.23499 7.20974 7.10118C7.07592 6.96737 7.00902 6.80155 7.00902 6.60374C7.00902 6.40593 7.07592 6.24012 7.20974 6.1063C7.34355 5.97249 7.50936 5.90558 7.70717 5.90558C7.90499 5.90558 8.0708 5.97249 8.20461 6.1063C8.33843 6.24012 8.40533 6.40593 8.40533 6.60374C8.40533 6.80155 8.33843 6.96737 8.20461 7.10118C8.0708 7.23499 7.90499 7.3019 7.70717 7.3019Z" fill="#B8CCB5"/>
</svg>
