<svg width="22" height="22" viewBox="0 0 22 22" fill="none" xmlns="http://www.w3.org/2000/svg">
<path d="M10.6321 19.1585C11.948 19.1585 13.0664 18.6979 13.9875 17.7768C14.9086 16.8557 15.3691 15.7373 15.3691 14.4215C15.3691 13.1056 14.9086 11.9872 13.9875 11.0661C13.0664 10.145 11.948 9.68445 10.6321 9.68445C9.31631 9.68445 8.19785 10.145 7.27676 11.0661C6.35568 11.9872 5.89514 13.1056 5.89514 14.4215C5.89514 15.7373 6.35568 16.8557 7.27676 17.7768C8.19785 18.6979 9.31631 19.1585 10.6321 19.1585ZM7.55309 8.31599C7.90398 8.123 8.2768 7.96948 8.67155 7.85544C9.0663 7.74141 9.46543 7.66684 9.86896 7.63175L7.21097 2.31578H4.5793L7.55309 8.31599ZM13.7112 8.31599L16.7113 2.31578H14.0533L11.8164 6.78962L12.3164 7.78965C12.562 7.85983 12.7989 7.93439 13.027 8.01334C13.255 8.09229 13.4831 8.19317 13.7112 8.31599ZM4.7372 17.8953C4.43895 17.3865 4.20648 16.8382 4.03981 16.2505C3.87314 15.6627 3.7898 15.0531 3.7898 14.4215C3.7898 13.7899 3.87314 13.1802 4.03981 12.5924C4.20648 12.0047 4.43895 11.4564 4.7372 10.9477C4.00034 11.1933 3.39505 11.6275 2.92135 12.2503C2.44765 12.8732 2.2108 13.5969 2.2108 14.4215C2.2108 15.246 2.44765 15.9698 2.92135 16.5926C3.39505 17.2154 4.00034 17.6496 4.7372 17.8953ZM16.5271 17.8953C17.2639 17.6496 17.8692 17.2154 18.3429 16.5926C18.8166 15.9698 19.0535 15.246 19.0535 14.4215C19.0535 13.5969 18.8166 12.8732 18.3429 12.2503C17.8692 11.6275 17.2639 11.1933 16.5271 10.9477C16.8253 11.4564 17.0578 12.0047 17.2245 12.5924C17.3911 13.1802 17.4745 13.7899 17.4745 14.4215C17.4745 15.0531 17.3911 15.6627 17.2245 16.2505C17.0578 16.8382 16.8253 17.3865 16.5271 17.8953ZM10.6321 21.2638C9.93036 21.2638 9.25929 21.1629 8.61891 20.9611C7.97854 20.7594 7.38642 20.4831 6.84254 20.1322C6.68464 20.1673 6.52674 20.1892 6.36884 20.198C6.21094 20.2067 6.04427 20.2111 5.86882 20.2111C4.27228 20.2111 2.91258 19.6497 1.78974 18.5269C0.666891 17.404 0.105469 16.0443 0.105469 14.4478C0.105469 12.9214 0.614258 11.6143 1.63184 10.5266C2.64941 9.43883 3.90384 8.83355 5.39512 8.71074L1.15814 0.210449H8.5268L10.6321 4.42112L12.7375 0.210449H20.1061L15.8955 8.6581C17.3868 8.79846 18.6368 9.41251 19.6456 10.5003C20.6544 11.588 21.1588 12.8951 21.1588 14.4215C21.1588 16.0355 20.5974 17.404 19.4745 18.5269C18.3517 19.6497 16.9832 20.2111 15.3691 20.2111C15.2112 20.2111 15.049 20.2067 14.8823 20.198C14.7156 20.1892 14.5533 20.1673 14.3954 20.1322C13.8515 20.4831 13.2638 20.7594 12.6322 20.9611C12.0006 21.1629 11.3339 21.2638 10.6321 21.2638ZM8.68471 17.3163L9.42157 14.9215L7.47414 13.5267H9.86896L10.6321 11.0003L11.3953 13.5267H13.7901L11.8427 14.9215L12.5796 17.3163L10.6321 15.8426L8.68471 17.3163Z" fill="#B8CCB5"/>
</svg>
