<svg width="16" height="18" viewBox="0 0 16 18" fill="none" xmlns="http://www.w3.org/2000/svg">
<path d="M13 17.3332C12.3056 17.3332 11.7153 17.0901 11.2292 16.604C10.7431 16.1179 10.5 15.5276 10.5 14.8332C10.5 14.7359 10.5069 14.6353 10.5208 14.5311C10.5347 14.4269 10.5556 14.3332 10.5833 14.2498L4.70833 10.8332C4.47222 11.0415 4.20833 11.2047 3.91667 11.3228C3.625 11.4408 3.31944 11.4998 3 11.4998C2.30556 11.4998 1.71528 11.2568 1.22917 10.7707C0.743056 10.2846 0.5 9.69428 0.5 8.99984C0.5 8.30539 0.743056 7.71512 1.22917 7.229C1.71528 6.74289 2.30556 6.49984 3 6.49984C3.31944 6.49984 3.625 6.55887 3.91667 6.67692C4.20833 6.79498 4.47222 6.95817 4.70833 7.1665L10.5833 3.74984C10.5556 3.6665 10.5347 3.57275 10.5208 3.46859C10.5069 3.36442 10.5 3.26373 10.5 3.1665C10.5 2.47206 10.7431 1.88178 11.2292 1.39567C11.7153 0.909559 12.3056 0.666504 13 0.666504C13.6944 0.666504 14.2847 0.909559 14.7708 1.39567C15.2569 1.88178 15.5 2.47206 15.5 3.1665C15.5 3.86095 15.2569 4.45123 14.7708 4.93734C14.2847 5.42345 13.6944 5.6665 13 5.6665C12.6806 5.6665 12.375 5.60748 12.0833 5.48942C11.7917 5.37137 11.5278 5.20817 11.2917 4.99984L5.41667 8.4165C5.44444 8.49984 5.46528 8.59359 5.47917 8.69775C5.49306 8.80192 5.5 8.90262 5.5 8.99984C5.5 9.09706 5.49306 9.19775 5.47917 9.30192C5.46528 9.40609 5.44444 9.49984 5.41667 9.58317L11.2917 12.9998C11.5278 12.7915 11.7917 12.6283 12.0833 12.5103C12.375 12.3922 12.6806 12.3332 13 12.3332C13.6944 12.3332 14.2847 12.5762 14.7708 13.0623C15.2569 13.5484 15.5 14.1387 15.5 14.8332C15.5 15.5276 15.2569 16.1179 14.7708 16.604C14.2847 17.0901 13.6944 17.3332 13 17.3332ZM13 3.99984C13.2361 3.99984 13.434 3.91998 13.5938 3.76025C13.7535 3.60053 13.8333 3.40262 13.8333 3.1665C13.8333 2.93039 13.7535 2.73248 13.5938 2.57275C13.434 2.41303 13.2361 2.33317 13 2.33317C12.7639 2.33317 12.566 2.41303 12.4063 2.57275C12.2465 2.73248 12.1667 2.93039 12.1667 3.1665C12.1667 3.40262 12.2465 3.60053 12.4063 3.76025C12.566 3.91998 12.7639 3.99984 13 3.99984ZM3 9.83317C3.23611 9.83317 3.43403 9.75331 3.59375 9.59359C3.75347 9.43387 3.83333 9.23595 3.83333 8.99984C3.83333 8.76373 3.75347 8.56581 3.59375 8.40609C3.43403 8.24637 3.23611 8.1665 3 8.1665C2.76389 8.1665 2.56597 8.24637 2.40625 8.40609C2.24653 8.56581 2.16667 8.76373 2.16667 8.99984C2.16667 9.23595 2.24653 9.43387 2.40625 9.59359C2.56597 9.75331 2.76389 9.83317 3 9.83317ZM13 15.6665C13.2361 15.6665 13.434 15.5866 13.5938 15.4269C13.7535 15.2672 13.8333 15.0693 13.8333 14.8332C13.8333 14.5971 13.7535 14.3991 13.5938 14.2394C13.434 14.0797 13.2361 13.9998 13 13.9998C12.7639 13.9998 12.566 14.0797 12.4063 14.2394C12.2465 14.3991 12.1667 14.5971 12.1667 14.8332C12.1667 15.0693 12.2465 15.2672 12.4063 15.4269C12.566 15.5866 12.7639 15.6665 13 15.6665Z" fill="#003913"/>
</svg>