<svg width="18" height="21" viewBox="0 0 18 21" fill="none" xmlns="http://www.w3.org/2000/svg">
<path d="M8.4748 21C8.00814 21 7.57064 20.9 7.1623 20.7C6.75397 20.5 6.40814 20.2167 6.1248 19.85L0.674805 12.925L1.1498 12.425C1.48314 12.075 1.88314 11.8667 2.3498 11.8C2.81647 11.7333 3.2498 11.825 3.6498 12.075L5.4998 13.2V5C5.4998 4.71667 5.59564 4.47917 5.7873 4.2875C5.97897 4.09583 6.21647 4 6.4998 4C6.78314 4 7.02481 4.09583 7.2248 4.2875C7.4248 4.47917 7.5248 4.71667 7.5248 5V16.8L5.0998 15.3L7.6998 18.625C7.7998 18.7417 7.91647 18.8333 8.0498 18.9C8.18314 18.9667 8.3248 19 8.4748 19H13.9998C14.5498 19 15.0206 18.8042 15.4123 18.4125C15.804 18.0208 15.9998 17.55 15.9998 17V13C15.9998 12.7167 15.904 12.4792 15.7123 12.2875C15.5206 12.0958 15.2831 12 14.9998 12H9.52481V10H14.9998C15.8331 10 16.5415 10.2917 17.1248 10.875C17.7081 11.4583 17.9998 12.1667 17.9998 13V17C17.9998 18.1 17.6081 19.0417 16.8248 19.825C16.0415 20.6083 15.0998 21 13.9998 21H8.4748ZM2.1748 7.5C1.95814 7.13333 1.79147 6.7375 1.6748 6.3125C1.55814 5.8875 1.4998 5.45 1.4998 5C1.4998 3.61667 1.9873 2.4375 2.9623 1.4625C3.9373 0.4875 5.11647 0 6.4998 0C7.88314 0 9.0623 0.4875 10.0373 1.4625C11.0123 2.4375 11.4998 3.61667 11.4998 5C11.4998 5.45 11.4415 5.8875 11.3248 6.3125C11.2081 6.7375 11.0415 7.13333 10.8248 7.5L9.0998 6.5C9.23314 6.26667 9.33314 6.02917 9.39981 5.7875C9.46647 5.54583 9.4998 5.28333 9.4998 5C9.4998 4.16667 9.20814 3.45833 8.6248 2.875C8.04147 2.29167 7.33314 2 6.4998 2C5.66647 2 4.95814 2.29167 4.3748 2.875C3.79147 3.45833 3.4998 4.16667 3.4998 5C3.4998 5.28333 3.53314 5.54583 3.5998 5.7875C3.66647 6.02917 3.76647 6.26667 3.8998 6.5L2.1748 7.5Z" fill="#C1C9BE"/>
</svg>