<svg width="35" height="18" viewBox="0 0 35 18" fill="none" xmlns="http://www.w3.org/2000/svg">
<path d="M0 18V15.6375C0 14.5625 0.534722 13.6875 1.60417 13.0125C2.67361 12.3375 4.08333 12 5.83333 12C6.14931 12 6.45313 12.0062 6.74479 12.0187C7.03646 12.0312 7.31597 12.0625 7.58333 12.1125C7.24306 12.6375 6.98785 13.1875 6.81771 13.7625C6.64757 14.3375 6.5625 14.9375 6.5625 15.5625V18H0ZM8.75 18V15.5625C8.75 14.7625 8.96267 14.0313 9.38802 13.3688C9.81337 12.7063 10.4149 12.125 11.1927 11.625C11.9705 11.125 12.9002 10.75 13.9818 10.5C15.0634 10.25 16.2361 10.125 17.5 10.125C18.7882 10.125 19.9731 10.25 21.0547 10.5C22.1363 10.75 23.066 11.125 23.8438 11.625C24.6215 12.125 25.217 12.7063 25.6302 13.3688C26.0434 14.0313 26.25 14.7625 26.25 15.5625V18H8.75ZM28.4375 18V15.5625C28.4375 14.9125 28.3585 14.3 28.2005 13.725C28.0425 13.15 27.8056 12.6125 27.4896 12.1125C27.7569 12.0625 28.0304 12.0312 28.3099 12.0187C28.5894 12.0062 28.875 12 29.1667 12C30.9167 12 32.3264 12.3313 33.3958 12.9938C34.4653 13.6563 35 14.5375 35 15.6375V18H28.4375ZM11.849 15H23.1875C22.9444 14.5 22.27 14.0625 21.1641 13.6875C20.0582 13.3125 18.8368 13.125 17.5 13.125C16.1632 13.125 14.9418 13.3125 13.8359 13.6875C12.73 14.0625 12.0677 14.5 11.849 15ZM5.83333 10.5C5.03125 10.5 4.34462 10.2062 3.77344 9.61875C3.20226 9.03125 2.91667 8.325 2.91667 7.5C2.91667 6.65 3.20226 5.9375 3.77344 5.3625C4.34462 4.7875 5.03125 4.5 5.83333 4.5C6.65972 4.5 7.35243 4.7875 7.91146 5.3625C8.47049 5.9375 8.75 6.65 8.75 7.5C8.75 8.325 8.47049 9.03125 7.91146 9.61875C7.35243 10.2062 6.65972 10.5 5.83333 10.5ZM29.1667 10.5C28.3646 10.5 27.678 10.2062 27.1068 9.61875C26.5356 9.03125 26.25 8.325 26.25 7.5C26.25 6.65 26.5356 5.9375 27.1068 5.3625C27.678 4.7875 28.3646 4.5 29.1667 4.5C29.9931 4.5 30.6858 4.7875 31.2448 5.3625C31.8038 5.9375 32.0833 6.65 32.0833 7.5C32.0833 8.325 31.8038 9.03125 31.2448 9.61875C30.6858 10.2062 29.9931 10.5 29.1667 10.5ZM17.5 9C16.2847 9 15.2517 8.5625 14.401 7.6875C13.5503 6.8125 13.125 5.75 13.125 4.5C13.125 3.225 13.5503 2.15625 14.401 1.29375C15.2517 0.43125 16.2847 0 17.5 0C18.7396 0 19.7786 0.43125 20.6172 1.29375C21.4557 2.15625 21.875 3.225 21.875 4.5C21.875 5.75 21.4557 6.8125 20.6172 7.6875C19.7786 8.5625 18.7396 9 17.5 9ZM17.5 6C17.9132 6 18.2595 5.85625 18.5391 5.56875C18.8186 5.28125 18.9583 4.925 18.9583 4.5C18.9583 4.075 18.8186 3.71875 18.5391 3.43125C18.2595 3.14375 17.9132 3 17.5 3C17.0868 3 16.7405 3.14375 16.4609 3.43125C16.1814 3.71875 16.0417 4.075 16.0417 4.5C16.0417 4.925 16.1814 5.28125 16.4609 5.56875C16.7405 5.85625 17.0868 6 17.5 6Z" fill="#E0E4DB"/>
</svg>
