<svg width="32" height="32" viewBox="0 0 32 32" fill="none" xmlns="http://www.w3.org/2000/svg">
<path d="M30.2222 28.4151C31.2041 28.4151 32 29.2176 32 30.2075C32 31.1975 31.2041 32 30.2222 32H1.77778C0.795947 32 0 31.1975 0 30.2075C1.77778e-05 29.2176 0.795947 28.4151 1.77778 28.4151H30.2222ZM5.33333 14.9716C6.31516 14.9716 7.11109 15.7741 7.11111 16.7641V23.9339C7.11111 24.9239 6.31516 25.7264 5.33333 25.7264C4.3515 25.7264 3.55556 24.9239 3.55556 23.9339V16.7641C3.55557 15.7741 4.3515 14.9716 5.33333 14.9716ZM16 14.9716C16.9819 14.9716 17.7778 15.7741 17.7778 16.7641V23.9339C17.7778 24.9239 16.9819 25.7264 16 25.7264C15.0181 25.7264 14.2222 24.9239 14.2222 23.9339V16.7641C14.2222 15.7741 15.0181 14.9716 16 14.9716ZM26.6667 14.9716C27.6485 14.9716 28.4444 15.7741 28.4444 16.7641V23.9339C28.4444 24.9239 27.6485 25.7264 26.6667 25.7264C25.6848 25.7264 24.8889 24.9239 24.8889 23.9339V16.7641C24.8889 15.7741 25.6848 14.9716 26.6667 14.9716ZM14.2569 0.460385C15.3394 -0.153462 16.6606 -0.153462 17.7431 0.460385L30.8073 7.87005C31.5436 8.28767 32 9.07322 32 9.92507C32 11.2273 30.9529 12.2829 29.6615 12.2829H2.33854C1.12791 12.2829 0.132178 11.3553 0.01216 10.1666L0 9.92507L0.0208355 9.60999C0.11792 8.88291 0.548142 8.2356 1.19271 7.87005L14.2569 0.460385ZM6.98437 8.698H25.0156L16 3.58493L6.98437 8.698Z" fill="#142204"/>
</svg>