<svg width="26" height="24" viewBox="0 0 26 24" fill="none" xmlns="http://www.w3.org/2000/svg">
<path d="M6.44061 0.168582H19.8046C20.7431 0.254406 21.2593 0.528429 21.7405 1.04153C22.421 1.76736 22.3658 1.04092 22.3769 9.47494C22.3867 16.7283 22.3867 16.7283 22.1721 17.212C21.8803 17.8685 21.3028 18.3828 20.6549 18.5637C20.0731 18.7255 6.50682 18.75 5.80307 18.5907C4.91602 18.3902 4.21287 17.6742 3.98667 16.743C3.78498 15.9111 3.82421 2.4987 4.03019 1.88506C4.3036 1.07034 5.24337 0.316322 6.11877 0.208429L6.44061 0.168582ZM7.78927 16.7203H18.5785C19.6532 16.3917 20.0326 16.0472 20.2619 15.474C20.5507 14.7513 20.4703 3.79157 20.1724 3.19939C19.9008 2.65992 19.3418 2.21548 18.8697 2.16276L18.5785 2.13027H7.78927C6.84521 2.13027 6.05257 2.87755 5.90421 3.67816L5.82759 4.09195V14.7586C6.02927 15.8676 6.54054 16.3795 7.28352 16.5824L7.78927 16.7203Z" fill="#B4FF5E"/>
<path d="M7.06222 9.24077C7.06222 7.63345 7.70073 6.09197 8.83727 4.95543C9.97381 3.81889 11.5153 3.18038 13.1226 3.18038C14.7299 3.18038 16.2714 3.81889 17.4079 4.95543C18.5445 6.09197 19.183 7.63345 19.183 9.24077C19.183 10.8481 18.5445 12.3896 17.4079 13.5261C16.2714 14.6626 14.7299 15.3011 13.1226 15.3011C11.5153 15.3011 9.97381 14.6626 8.83727 13.5261C7.70073 12.3896 7.06222 10.8481 7.06222 9.24077ZM10.278 13.7075C10.08 13.9938 10.0787 14.0606 10.2718 14.1765C10.3564 14.2268 10.4809 14.2684 10.5489 14.2684C10.6256 14.2684 10.7408 14.1697 10.8518 14.0079C10.9762 13.8265 11.1712 13.2747 11.4948 12.1854C12.2531 9.63457 12.4634 9.30415 14.3656 7.67044C15.3612 6.81588 15.4985 6.67733 15.379 6.64607C15.303 6.62645 15.1644 6.64852 15.0712 6.69511C14.9235 6.76867 14.8941 6.76745 14.8493 6.68775C14.8095 6.61603 14.6948 6.70492 14.3252 7.09664C13.1089 8.38277 12.2194 8.82906 11.3992 8.56484C10.5833 8.30308 9.81453 7.6312 9.05438 6.51795C8.79139 6.13235 8.76074 6.10599 8.72641 6.23779C8.66327 6.47871 9.04334 7.10952 9.73729 7.91565C10.4564 8.75182 10.609 9.00438 10.609 9.36362C10.609 10.1814 9.85683 10.6773 8.37146 10.8398C7.57146 10.9274 7.62602 10.8962 7.76702 11.1843C7.91415 11.4853 8.0625 11.5019 9.07644 11.3278C10.5459 11.0752 10.8413 11.3854 10.5538 12.8769C10.4748 13.2851 10.3865 13.5512 10.278 13.7075ZM17.5975 10.9274C17.4823 10.9274 17.3903 11.1383 17.4743 11.2107C17.508 11.2401 17.5571 11.264 17.5822 11.2634C17.6073 11.2634 17.6637 11.2401 17.7066 11.2131C17.8078 11.1488 17.7232 10.9274 17.5975 10.9274ZM18.2486 10.738C18.1327 10.6933 18.0879 10.7178 18.0879 10.8251C18.0879 10.8649 18.121 10.8968 18.1615 10.8968C18.202 10.8968 18.262 10.8698 18.2945 10.8373C18.3325 10.7993 18.3166 10.7638 18.2486 10.738ZM17.5362 10.2225L17.4289 10.2409C17.3437 10.2556 17.3376 10.2746 17.4749 10.4064L17.6435 10.4885C17.79 10.5602 17.8207 10.5584 17.8758 10.4732C17.9114 10.4199 17.9647 10.3543 17.9948 10.3285C18.0861 10.2501 18.0781 10.0294 17.9862 10.0643C17.9408 10.0821 17.904 10.0723 17.904 10.0441C17.904 9.98523 17.6496 9.90492 17.6055 9.94906C17.5896 9.96438 17.5883 9.97726 17.6024 9.97726C17.6165 9.97726 17.6073 10.0324 17.5362 10.2225ZM18.5741 10.0324C18.4398 10.0839 18.3883 10.2562 18.4919 10.3046C18.5397 10.3267 18.6023 10.3451 18.6323 10.3451C18.6617 10.3451 18.7145 10.3107 18.7494 10.2684C18.8364 10.1636 18.7022 9.98339 18.5741 10.0324ZM18.2142 9.57634C18.1787 9.59841 18.1627 9.64254 18.1799 9.67442C18.1964 9.7063 18.2381 9.73205 18.2718 9.73205C18.3056 9.73205 18.3332 9.70017 18.3332 9.66032C18.3332 9.55917 18.2909 9.52913 18.2142 9.57634ZM17.6128 9.43657C17.508 9.42186 17.4749 9.4476 17.4749 9.54385C17.4749 9.63887 17.5092 9.66707 17.6128 9.65542C17.6889 9.64684 17.7508 9.59902 17.7508 9.54814C17.7508 9.49726 17.6889 9.4476 17.6128 9.43657ZM18.2191 9.48684C18.3129 9.48684 18.4049 9.51442 18.4227 9.54814C18.441 9.58185 18.4833 9.59473 18.5171 9.57634C18.5508 9.55856 18.5784 9.49971 18.5784 9.44576C18.5784 9.3912 18.6268 9.30967 18.6856 9.26369C18.7825 9.1889 18.7831 9.17297 18.6973 9.10369C18.6446 9.06139 18.5833 8.97864 18.5612 8.91979C18.5164 8.80086 18.422 8.7794 18.3638 8.87381C18.343 8.90753 18.2584 8.93511 18.1762 8.93511C18.0922 8.93511 18.0309 8.96883 18.0364 9.01174C18.0413 9.05404 18.0463 9.17787 18.0469 9.2876C18.0481 9.46477 18.0671 9.48684 18.2191 9.48684ZM18.8113 9.39243C18.7439 9.32561 18.6188 9.39427 18.6617 9.47458C18.6869 9.52178 18.7279 9.52791 18.777 9.49113C18.8181 9.45986 18.834 9.41511 18.8113 9.39243ZM18.7733 8.86032C18.7175 8.80454 18.701 8.81189 18.701 8.8922C18.701 8.94921 18.7194 8.99641 18.742 8.99641C18.7641 8.99641 18.7972 8.98231 18.8144 8.96454C18.8315 8.94737 18.8132 8.90017 18.7733 8.86032ZM17.5092 8.39626C17.5957 8.4355 17.6784 8.53174 17.6932 8.60959C17.7079 8.68745 17.7526 8.7512 17.7918 8.7512C17.8317 8.7512 17.9095 8.71013 17.9653 8.65925C18.0211 8.60837 18.1253 8.5673 18.1964 8.5673C18.3705 8.5673 18.4159 8.47657 18.3252 8.30799C18.2841 8.23136 18.2479 8.08607 18.2455 7.98492C18.2418 7.81634 18.2253 7.80285 18.0481 7.82002C17.942 7.83105 17.8366 7.81021 17.8145 7.77404C17.733 7.64224 17.5975 7.70722 17.5975 7.87825C17.5975 7.98124 17.5497 8.07749 17.4749 8.12408C17.31 8.22707 17.3204 8.31044 17.5092 8.39626ZM11.2833 7.98308C11.2833 8.02722 11.3385 8.1627 11.4059 8.28469C11.5187 8.48821 11.5506 8.50599 11.8075 8.50599C12.0214 8.50599 12.1207 8.47105 12.2366 8.3558C12.4033 8.18845 12.4199 8.06829 12.3175 7.77343C12.2538 7.59013 12.2636 7.55519 12.4456 7.33511C12.6878 7.04208 12.7417 7.04638 11.3845 7.25603C10.5109 7.39151 10.3442 7.43381 10.3197 7.52883C10.2657 7.73358 10.3307 7.74523 10.5784 7.57297C10.9971 7.283 11.203 7.34002 10.9376 7.6735C10.7328 7.92975 10.785 8.04009 11.0737 7.96101C11.2349 7.91626 11.2833 7.92117 11.2833 7.98308ZM18.9566 8.29205C18.9241 7.99105 18.8168 8.00392 18.7445 8.31779C18.7053 8.4876 18.7145 8.50477 18.8389 8.49067C18.9529 8.47779 18.9732 8.44346 18.9566 8.29205ZM16.7362 7.95427C16.8368 7.95427 16.9336 7.98186 16.9514 8.01557C16.9716 8.05297 17.0035 8.04745 17.0335 8.00025C17.0605 7.95795 17.1298 7.84944 17.1868 7.75871C17.3155 7.55457 17.3192 7.46385 17.1978 7.46385C17.1463 7.46385 17.0764 7.39151 17.0427 7.30262C16.9851 7.15182 16.9741 7.14752 16.8711 7.24132C16.8098 7.29649 16.7007 7.34124 16.6271 7.34124C16.4928 7.34124 16.4585 7.41787 16.537 7.54477C16.5603 7.58278 16.5738 7.69005 16.5664 7.78385C16.5548 7.93526 16.5744 7.95427 16.7362 7.95427ZM17.9653 6.97343L17.904 6.90293C17.8476 6.83795 17.8176 6.87534 17.8427 7.03473H17.7888C17.6974 7.03473 17.6711 7.25358 17.7459 7.39335C17.8341 7.55825 17.8513 7.55764 18.0383 7.38415C18.2173 7.21802 18.2357 7.04638 17.9653 6.97343ZM16.3776 6.89373C16.3059 6.82201 16.2489 6.85205 16.2489 6.963C16.2489 7.00285 16.2654 7.03473 16.2856 7.03473C16.3053 7.03473 16.3494 7.01756 16.3825 6.99733C16.4223 6.97281 16.4205 6.93664 16.3776 6.89373ZM16.2581 6.72822C16.3145 6.72822 16.4046 6.78339 16.4585 6.85082C16.5548 6.97281 16.556 6.97281 16.6933 6.82753C16.7693 6.74783 16.8723 6.66875 16.9232 6.65159C17.0041 6.62523 17.0041 6.60377 16.9263 6.47565C16.8772 6.39534 16.8355 6.28867 16.8343 6.23779C16.8318 6.16975 16.762 6.14768 16.5615 6.15197C16.2936 6.1581 16.2918 6.15933 16.2231 6.44316C16.1618 6.69695 16.1655 6.72822 16.2581 6.72822ZM16.9508 6.8453C16.9091 6.7791 16.8006 6.82998 16.8006 6.9158C16.8006 6.94768 16.8171 6.97343 16.8374 6.97343C16.857 6.97343 16.8993 6.95749 16.9299 6.93848C16.9612 6.91948 16.9704 6.87779 16.9508 6.8453ZM17.5675 6.58293C17.6153 6.56454 17.6827 6.59028 17.7177 6.63933C17.7698 6.71228 17.8127 6.68714 17.9568 6.49833C18.1223 6.28132 18.1259 6.26477 18.0181 6.20469C17.9555 6.17036 17.904 6.09435 17.904 6.03611C17.904 5.91534 17.8581 5.90369 17.7446 5.99749C17.7005 6.03427 17.6104 6.04653 17.5442 6.02569C17.3971 5.9791 17.3161 6.08944 17.4124 6.20592C17.4639 6.26783 17.4651 6.32484 17.4179 6.41435C17.3437 6.55228 17.421 6.63933 17.5675 6.58293ZM16.1876 6.44193C16.1876 6.35488 16.1152 6.33527 16.0607 6.40699C16.0214 6.4591 16.0325 6.483 16.0956 6.483C16.1465 6.483 16.1876 6.46461 16.1876 6.44193ZM17.0427 6.26661C16.9624 6.21695 16.9361 6.2427 16.9636 6.34507C16.9753 6.38737 16.9968 6.4217 17.0115 6.4217C17.0262 6.4217 17.0544 6.39596 17.074 6.36469C17.093 6.33343 17.0795 6.28929 17.0427 6.26661ZM15.0161 5.54753C14.9842 5.77373 14.9725 5.99381 14.9903 6.03733C15.0081 6.08025 15.0596 6.11519 15.1043 6.11519C15.1491 6.11519 15.3305 5.96316 15.5077 5.77802C15.8295 5.44086 15.8295 5.44086 16.225 5.44086C16.7381 5.44086 16.773 5.35687 16.4315 4.94921C16.1968 4.66844 16.1759 4.61756 16.2109 4.39994C16.2789 3.9745 15.8228 3.80469 15.569 4.16086C15.4384 4.34477 15.4182 4.35151 15.0896 4.32331C14.5048 4.27243 14.4515 4.38216 14.834 4.845C15.0743 5.13618 15.0743 5.13618 15.0161 5.54753ZM14.2314 5.52975C14.1946 5.55243 14.1646 5.59657 14.1646 5.62844C14.1646 5.66032 14.1799 5.68607 14.1995 5.68607C14.2185 5.68607 14.2829 5.65971 14.3423 5.62783C14.4024 5.59595 14.5109 5.58553 14.5839 5.60454C14.6568 5.62354 14.712 5.61496 14.7065 5.58615C14.7016 5.55672 14.6967 5.44331 14.6961 5.33358C14.6948 5.11595 14.6887 5.10921 14.5489 5.18768C14.4962 5.2171 14.4024 5.22753 14.3399 5.21097C14.213 5.17787 14.2142 5.17542 14.2627 5.35749C14.2823 5.42921 14.2682 5.50706 14.2314 5.52975ZM17.3069 5.27228C17.1555 5.27963 17.0495 5.51013 17.1512 5.60944C17.2015 5.65848 17.28 5.66829 17.3676 5.63764C17.4731 5.60086 17.5007 5.55059 17.4859 5.42308C17.4749 5.33174 17.4541 5.2594 17.44 5.26186C17.4253 5.26492 17.3658 5.26921 17.3069 5.27228ZM13.1837 5.31825L13.3676 5.25695L13.4749 5.24408C13.6576 5.2214 13.7171 5.1276 13.4289 5.07304L13.5362 4.97189C13.6386 4.87626 13.6386 4.8689 13.4289 4.76653L13.5344 4.70829C13.6607 4.63841 13.6159 4.57281 13.3676 4.64392L13.3523 4.58998C13.3382 4.5391 12.9998 4.51028 12.9998 4.55994C12.9998 4.5722 13.0139 4.58262 13.0317 4.58262C13.0495 4.58262 13.0078 4.62369 12.8159 4.76653V4.88913L12.7393 4.92162C12.6878 4.94431 12.6976 4.96392 12.8772 5.01174L12.8925 5.08837C12.9011 5.13067 12.9563 5.18584 13.1224 5.25695L13.0544 5.29312C13.0066 5.31887 13.009 5.35013 13.0636 5.4004C13.1224 5.45434 13.1463 5.45312 13.1837 5.31825ZM11.8105 4.25097C11.7903 4.30492 11.8007 4.38768 11.8351 4.43488C11.8694 4.48392 11.9497 4.50722 12.019 4.48822C12.0864 4.47044 12.1391 4.42875 12.1367 4.39626C12.1336 4.36377 12.1293 4.29634 12.1263 4.24546C12.1195 4.12224 11.8584 4.12653 11.8105 4.25097ZM13.7299 3.76668C13.5681 3.72438 13.4853 3.92668 13.5951 4.09465C13.6386 4.16086 13.6809 4.21419 13.6895 4.21297C13.6981 4.21174 13.7557 4.17251 13.8176 4.1253C13.9574 4.01986 13.9065 3.81266 13.7299 3.76668ZM15.1644 3.79488C15.1368 3.80653 15.1215 3.87825 15.1301 3.95427C15.1387 4.03028 15.1632 4.0922 15.1853 4.0922C15.2067 4.0922 15.2576 4.06461 15.2981 4.03151C15.3385 3.99779 15.3894 3.9886 15.4115 4.01128C15.4335 4.03335 15.4519 4.0027 15.4519 3.94323C15.4519 3.84147 15.2711 3.74829 15.1644 3.79488ZM12.7387 3.83534C12.7062 3.74461 12.632 3.78875 12.632 3.89787C12.632 3.93772 12.6504 3.96959 12.6731 3.96959C12.6951 3.96959 12.7258 3.95733 12.7405 3.94262C12.7552 3.92791 12.7546 3.87948 12.7387 3.83534ZM12.6118 3.68638C12.689 3.66615 12.7663 3.69067 12.8079 3.75013C12.8459 3.80346 12.9036 3.84699 12.9367 3.84699C12.9692 3.84699 13.0366 3.74339 13.0863 3.6171C13.204 3.31917 13.1396 3.25419 12.8012 3.32959C12.6253 3.36821 12.5204 3.43136 12.4806 3.52208C12.4089 3.68638 12.4438 3.7299 12.6118 3.68638ZM13.291 3.5981C13.1856 3.53557 13.139 3.62201 13.2156 3.73971C13.2315 3.76484 13.2794 3.75749 13.3217 3.72377C13.3811 3.67534 13.3744 3.64775 13.291 3.5981Z" fill="#B4FF5E"/>
<path d="M10.2782 13.7073C10.3867 13.551 10.4749 13.2849 10.554 12.8766C10.8415 11.3851 10.5461 11.0749 9.07663 11.3275C8.06268 11.5016 7.91433 11.4851 7.7672 11.1841C7.62621 10.8959 7.57165 10.9272 8.37165 10.8395C9.85701 10.6771 10.6092 10.1811 10.6092 9.36337C10.6092 9.00414 10.4566 8.75157 9.73747 7.9154C9.04353 7.10927 8.66345 6.47847 8.72659 6.23755C8.76092 6.10575 8.79157 6.13211 9.05456 6.5177C9.81471 7.63096 10.5834 8.30284 11.3994 8.5646C12.2196 8.82881 13.1091 8.38253 14.3254 7.0964C14.695 6.70467 14.8097 6.61579 14.8495 6.68751C14.8943 6.7672 14.9237 6.76843 15.0714 6.69487C15.1646 6.64828 15.3031 6.62621 15.3792 6.64582C15.4987 6.67709 15.3614 6.81563 14.3658 7.67019C12.4636 9.30391 12.2533 9.63433 11.495 12.1851C11.1713 13.2745 10.9764 13.8262 10.852 14.0077C10.741 14.1695 10.6257 14.2682 10.5491 14.2682C10.4811 14.2682 10.3566 14.2265 10.272 14.1762C10.0789 14.0604 10.0802 13.9936 10.2782 13.7073Z" fill="#465A2F"/>
<path d="M16.6438 23.124C16.7756 22.9928 16.7903 22.9456 16.7339 22.8402C16.6794 22.7378 16.6904 22.6802 16.791 22.5441C16.916 22.3749 16.916 22.3749 16.7664 22.2345C16.3054 21.8011 16.9877 21.2359 17.849 21.3382C18.0826 21.3658 18.1893 21.3474 18.3382 21.2536C18.6607 21.0507 18.8851 21.0893 18.8851 21.3487C18.8851 21.5375 18.8667 21.5632 18.7293 21.5632C18.5902 21.5632 18.5816 21.5767 18.6441 21.6944C18.8759 22.1266 18.4719 22.487 17.7362 22.5036C17.2501 22.5152 17.2912 22.5073 17.2912 22.5882C17.2912 22.6287 17.5474 22.6618 17.9649 22.6765C18.9905 22.7114 19.3136 23.1724 18.5975 23.5788C18.3916 23.6953 18.2291 23.729 17.7853 23.7474C17.48 23.7597 17.1355 23.7444 17.0196 23.7131C16.5163 23.577 16.3894 23.3784 16.6438 23.124ZM18.2359 23.2221C18.1457 23.1362 17.2152 23.1148 17.1864 23.1975C17.1729 23.2368 17.2189 23.2987 17.2881 23.3355C17.3574 23.3723 17.5364 23.4023 17.6854 23.4023C18.0035 23.4023 18.318 23.2993 18.2359 23.2221ZM18.0054 21.8219C17.8852 21.7018 17.4536 21.6828 17.3439 21.7925C17.3028 21.8336 17.2887 21.9212 17.3114 21.9905C17.3451 22.0929 17.4052 22.1149 17.6516 22.1149C18.0146 22.1149 18.1697 21.9868 18.0054 21.8219Z" fill="#465A2F"/>
<path d="M7.98299 21.6245C7.96215 20.705 7.96215 20.705 8.30483 20.705C8.64751 20.705 8.64751 20.705 8.64812 21.3946C8.64812 22.5103 8.79954 22.7464 9.44751 22.6428C9.82759 22.5821 9.87356 22.4601 9.87356 21.5191C9.87356 20.705 9.87356 20.705 10.2107 20.705C10.5479 20.705 10.5479 20.705 10.5479 21.581C10.5479 22.6348 10.478 22.8383 10.0489 23.0333C9.85272 23.1221 9.64674 23.1546 9.27586 23.1559C8.97732 23.1565 8.68552 23.1215 8.56291 23.0707C8.09395 22.8757 8.00628 22.6569 7.98299 21.6245Z" fill="#465A2F"/>
<path d="M15.1217 22.0751C15.6887 22.0316 15.7697 21.9887 15.5618 21.8434C15.3785 21.7146 15.194 21.722 15.0132 21.8648C14.8893 21.9617 14.8066 21.9752 14.532 21.9415C13.8067 21.852 14.7165 21.2714 15.4693 21.3438C16.2037 21.4143 16.3643 21.6368 16.3692 22.59C16.3716 23.1571 16.3716 23.1571 16.0688 23.1571C15.9021 23.1571 15.7494 23.1307 15.7292 23.0982C15.7059 23.0602 15.6372 23.0602 15.5379 23.0982C15.4527 23.1307 15.2192 23.1571 15.0187 23.1571C14.7416 23.1571 14.608 23.1246 14.4559 23.0192C13.9116 22.6421 14.2653 22.1407 15.1217 22.0751ZM15.6697 22.4349C15.5974 22.3626 14.9562 22.4877 14.92 22.5808C14.8985 22.6379 14.9249 22.701 14.9838 22.7335C15.0389 22.7641 15.1192 22.7893 15.1615 22.7893C15.4497 22.7893 15.788 22.5533 15.6697 22.4349Z" fill="#465A2F"/>
<path d="M12.1019 22.6434C12.3116 22.5563 12.352 22.5557 12.4679 22.6366C12.6169 22.7408 13.3384 22.7641 13.3985 22.6667C13.4512 22.5821 13.2256 22.5079 12.7572 22.4564C11.9621 22.3681 11.6875 22.0604 12.013 21.6202C12.3336 21.1862 13.9956 21.2978 13.9821 21.7526C13.9784 21.8642 13.4984 21.928 13.3292 21.8397C13.1324 21.7367 12.7107 21.7183 12.5715 21.8066C12.4115 21.9077 12.577 21.9739 13.1735 22.0481C14.1457 22.1689 14.4044 22.8598 13.564 23.0933C13.4395 23.1283 13.1232 23.1565 12.8621 23.1565C12.509 23.1571 12.3251 23.1258 12.1461 23.0351C11.7537 22.8371 11.7482 22.7899 12.1019 22.6434Z" fill="#465A2F"/>
<path d="M15.0162 5.54728C15.0745 5.13594 15.0745 5.13594 14.8342 4.84475C14.4516 4.38192 14.505 4.27218 15.0898 4.32307C15.4184 4.35126 15.4386 4.34452 15.5692 4.16061C15.823 3.80444 16.2791 3.97425 16.211 4.39969C16.1761 4.61732 16.1969 4.6682 16.4317 4.94897C16.7732 5.35663 16.7382 5.44061 16.2251 5.44061C15.8297 5.44061 15.8297 5.44061 15.5079 5.77778C15.3307 5.96291 15.1493 6.11494 15.1045 6.11494C15.0598 6.11494 15.0083 6.08 14.9905 6.03709C14.9727 5.99356 14.9844 5.77349 15.0162 5.54728Z" fill="#465A2F"/>
<path d="M10.4688 23.3293C10.8943 23.3704 10.9157 23.3208 10.9157 22.2964C10.9157 21.3793 10.9157 21.3793 11.2529 21.3793C11.59 21.3793 11.59 21.3793 11.59 22.3019C11.59 23.3514 11.5355 23.5384 11.1897 23.6831C11.0745 23.7309 10.8556 23.7701 10.703 23.7701C10.5503 23.7701 10.3824 23.7499 10.3303 23.726C10.131 23.6322 10.2444 23.3079 10.4688 23.3293Z" fill="#465A2F"/>
<path d="M11.2835 7.98284C11.2835 7.92092 11.2351 7.91602 11.0739 7.96077C10.7851 8.03985 10.733 7.9295 10.9378 7.67326C11.2032 7.33977 10.9972 7.28276 10.5785 7.57272C10.3309 7.74498 10.2659 7.73333 10.3198 7.52858C10.3444 7.43356 10.5111 7.39126 11.3847 7.25579C12.7419 7.04613 12.688 7.04184 12.4458 7.33487C12.2638 7.55494 12.2539 7.58988 12.3177 7.77318C12.4201 8.06805 12.4035 8.1882 12.2368 8.35556C12.1209 8.4708 12.0216 8.50575 11.8077 8.50575C11.5508 8.50575 11.5189 8.48797 11.4061 8.28444C11.3387 8.16245 11.2835 8.02697 11.2835 7.98284Z" fill="#465A2F"/>
<path d="M17.5094 8.39602C17.3206 8.31019 17.3102 8.22682 17.4751 8.12383C17.5499 8.07724 17.5977 7.981 17.5977 7.87801C17.5977 7.70697 17.7332 7.64199 17.8147 7.77379C17.8368 7.80996 17.9422 7.8308 18.0483 7.81977C18.2254 7.8026 18.242 7.81609 18.2457 7.98467C18.2481 8.08582 18.2843 8.23111 18.3254 8.30774C18.4161 8.47632 18.3707 8.56705 18.1966 8.56705C18.1255 8.56705 18.0213 8.60812 17.9655 8.659C17.9097 8.70989 17.8319 8.75096 17.792 8.75096C17.7528 8.75096 17.708 8.6872 17.6933 8.60935C17.6786 8.5315 17.5959 8.43525 17.5094 8.39602Z" fill="#465A2F"/>
<path d="M16.2582 6.72797C16.1657 6.72797 16.162 6.6967 16.2233 6.44291C16.292 6.15908 16.2938 6.15786 16.5617 6.15172C16.7621 6.14743 16.832 6.1695 16.8345 6.23755C16.8357 6.28843 16.8774 6.3951 16.9264 6.4754C17.0043 6.60353 17.0043 6.62498 16.9234 6.65134C16.8725 6.66851 16.7695 6.74759 16.6935 6.82728C16.5562 6.97257 16.5549 6.97257 16.4587 6.85057C16.4048 6.78314 16.3146 6.72797 16.2582 6.72797Z" fill="#465A2F"/>
<path d="M16.7364 7.95402C16.5746 7.95402 16.5549 7.93502 16.5666 7.7836C16.5739 7.68981 16.5605 7.58253 16.5372 7.54452C16.4587 7.41763 16.493 7.341 16.6273 7.341C16.7008 7.341 16.81 7.29624 16.8713 7.24107C16.9743 7.14728 16.9853 7.15157 17.0429 7.30238C17.0766 7.39126 17.1465 7.4636 17.198 7.4636C17.3194 7.4636 17.3157 7.55433 17.187 7.75847C17.13 7.8492 17.0607 7.9577 17.0337 8C17.0037 8.0472 16.9718 8.05272 16.9516 8.01533C16.9338 7.98161 16.8369 7.95402 16.7364 7.95402Z" fill="#465A2F"/>
<path d="M13.1226 5.25671C12.9565 5.18559 12.9013 5.13042 12.8927 5.08812L12.8774 5.01149L12.9387 4.95019L12.8161 4.76628C13.008 4.62345 13.0497 4.58238 13.0319 4.58238C13.0141 4.58238 13 4.57195 13 4.55969C13 4.51004 13.3384 4.53885 13.3525 4.58973L13.3678 4.64368L13.4291 4.76628C13.6388 4.86866 13.6388 4.87602 13.5364 4.97165L13.4291 5.0728L13.3678 5.25671L13.1839 5.31801L13.1226 5.25671Z" fill="#465A2F"/>
<path d="M18.2193 9.48659C18.0673 9.48659 18.0483 9.46452 18.047 9.28736C18.0464 9.17762 18.0415 9.05379 18.0366 9.01149C18.0311 8.96858 18.0924 8.93487 18.1764 8.93487C18.2585 8.93487 18.3431 8.90728 18.364 8.87356C18.4222 8.77916 18.5166 8.80061 18.5614 8.91954C18.5834 8.97839 18.6448 9.06115 18.6975 9.10345C18.7833 9.17272 18.7827 9.18866 18.6858 9.26345C18.627 9.30943 18.5785 9.39096 18.5785 9.44552C18.5785 9.49946 18.551 9.55832 18.5172 9.57609C18.4835 9.59448 18.4412 9.58161 18.4228 9.54789C18.4051 9.51418 18.3131 9.48659 18.2193 9.48659Z" fill="#465A2F"/>
<path d="M17.5677 6.58268C17.4212 6.63908 17.3439 6.55203 17.4181 6.4141C17.4653 6.3246 17.4641 6.26759 17.4126 6.20567C17.3163 6.0892 17.3972 5.97885 17.5444 6.02544C17.6106 6.04628 17.7007 6.03402 17.7448 5.99724C17.8582 5.90345 17.9042 5.9151 17.9042 6.03586C17.9042 6.0941 17.9557 6.17012 18.0182 6.20444C18.1261 6.26452 18.1225 6.28107 17.9569 6.49808C17.8129 6.6869 17.77 6.71203 17.7179 6.63908C17.6829 6.59004 17.6155 6.56429 17.5677 6.58268Z" fill="#465A2F"/>
<path d="M10.9157 20.6437H11.59V21.1341H10.9157V20.6437Z" fill="#465A2F"/>
<path d="M15.2651 20.7552C15.5048 20.4543 15.5048 20.4543 15.7237 20.5462C15.8438 20.5965 15.9425 20.6498 15.9425 20.6645C15.9425 20.6792 15.8187 20.8049 15.6667 20.9434C15.4098 21.1782 15.3785 21.1905 15.2081 21.1261C15.0254 21.0562 15.0254 21.0562 15.2651 20.7552Z" fill="#465A2F"/>
<path d="M9.58789 19.8823C9.90728 19.9798 9.91648 20.0123 9.7013 20.2746C9.58973 20.4101 9.44506 20.5211 9.37946 20.5211C9.31387 20.5211 9.21333 20.4947 9.15571 20.4628C8.9908 20.3715 9.39785 19.8247 9.58789 19.8823Z" fill="#465A2F"/>
<path d="M12.612 3.68613C12.444 3.72965 12.409 3.68613 12.4808 3.52184C12.5206 3.43111 12.6254 3.36797 12.8014 3.32935C13.1398 3.25395 13.2041 3.31893 13.0864 3.61686C13.0368 3.74314 12.9693 3.84674 12.9369 3.84674C12.9038 3.84674 12.8461 3.80322 12.8081 3.74988C12.7664 3.69042 12.6892 3.6659 12.612 3.68613Z" fill="#465A2F"/>
<path d="M17.4751 10.4061L17.5364 10.2222C17.6075 10.0322 17.6167 9.97701 17.6026 9.97701C17.5885 9.97701 17.5897 9.96414 17.6057 9.94881C17.6498 9.90467 17.9042 9.98498 17.9042 10.0438C17.9042 10.072 17.941 10.0818 17.9864 10.0641C18.0783 10.0291 18.0863 10.2498 17.9949 10.3283C17.9649 10.354 17.9116 10.4196 17.876 10.4729C17.8208 10.5582 17.7902 10.56 17.6437 10.4883L17.4751 10.4061Z" fill="#465A2F"/>
<path d="M17.8429 7.03448L17.9655 6.97318C18.2359 7.04613 18.2175 7.21778 18.0385 7.38391C17.8515 7.55739 17.8343 7.55801 17.7461 7.3931C17.6713 7.25333 17.6976 7.03448 17.789 7.03448H17.8429Z" fill="#465A2F"/>
<path d="M14.2316 5.5295C14.2684 5.50682 14.2825 5.42896 14.2628 5.35724C14.2144 5.17517 14.2132 5.17762 14.3401 5.21073C14.4026 5.22728 14.4964 5.21686 14.5491 5.18743C14.6889 5.10896 14.695 5.11571 14.6962 5.33333C14.6969 5.44306 14.7018 5.55647 14.7067 5.5859C14.7122 5.61471 14.657 5.62329 14.5841 5.60429C14.5111 5.58529 14.4026 5.59571 14.3425 5.62759C14.2831 5.65946 14.2187 5.68582 14.1997 5.68582C14.1801 5.68582 14.1648 5.66008 14.1648 5.6282C14.1648 5.59632 14.1948 5.55218 14.2316 5.5295Z" fill="#465A2F"/>
<path d="M17.3071 5.27203C17.366 5.26896 17.4254 5.26467 17.4402 5.26161C17.4543 5.25916 17.4751 5.33149 17.4861 5.42284C17.5008 5.55034 17.4733 5.60061 17.3678 5.63739C17.2802 5.66805 17.2017 5.65824 17.1514 5.60919C17.0497 5.50988 17.1557 5.27939 17.3071 5.27203Z" fill="#465A2F"/>
<path d="M13.7301 3.76644C13.9067 3.81241 13.9575 4.01962 13.8178 4.12506C13.7559 4.17226 13.6982 4.21149 13.6897 4.21272C13.6811 4.21395 13.6388 4.16061 13.5952 4.09441C13.4855 3.92644 13.5683 3.72414 13.7301 3.76644Z" fill="#465A2F"/>
<path d="M11.8107 4.25073C11.8585 4.12628 12.1197 4.12199 12.1264 4.24521C12.1295 4.29609 12.1338 4.36352 12.1369 4.39602C12.1393 4.42851 12.0866 4.47019 12.0192 4.48797C11.9499 4.50697 11.8696 4.48368 11.8352 4.43464C11.8009 4.38743 11.7905 4.30467 11.8107 4.25073Z" fill="#465A2F"/>
<path d="M17.5977 10.9272C17.7234 10.9272 17.808 11.1485 17.7068 11.2129C17.6639 11.2398 17.6075 11.2631 17.5824 11.2631C17.5572 11.2638 17.5082 11.2398 17.4745 11.2104C17.3905 11.1381 17.4825 10.9272 17.5977 10.9272Z" fill="#465A2F"/>
<path d="M18.5743 10.0322C18.7024 9.98314 18.8366 10.1634 18.7496 10.2682C18.7146 10.3105 18.6619 10.3448 18.6325 10.3448C18.6025 10.3448 18.5399 10.3264 18.4921 10.3044C18.3885 10.2559 18.44 10.0837 18.5743 10.0322Z" fill="#465A2F"/>
<path d="M18.9568 8.2918C18.9733 8.44322 18.9531 8.47755 18.8391 8.49042C18.7146 8.50452 18.7054 8.48736 18.7447 8.31755C18.817 8.00368 18.9243 7.9908 18.9568 8.2918Z" fill="#465A2F"/>
<path d="M15.1646 3.79464C15.2713 3.74805 15.4521 3.84123 15.4521 3.94299C15.4521 4.00245 15.4337 4.0331 15.4116 4.01103C15.3896 3.98835 15.3387 3.99755 15.2982 4.03126C15.2578 4.06437 15.2069 4.09195 15.1854 4.09195C15.1634 4.09195 15.1388 4.03004 15.1303 3.95402C15.1217 3.87801 15.137 3.80628 15.1646 3.79464Z" fill="#465A2F"/>
<path d="M17.613 9.43632C17.689 9.44736 17.751 9.49701 17.751 9.54789C17.751 9.59877 17.689 9.64659 17.613 9.65517C17.5094 9.66682 17.4751 9.63862 17.4751 9.5436C17.4751 9.44736 17.5082 9.42161 17.613 9.43632Z" fill="#465A2F"/>
<path d="M13.3678 5.25671L13.4291 5.0728C13.7172 5.12736 13.6578 5.22115 13.4751 5.24383L13.3678 5.25671Z" fill="#CEFF97" fill-opacity="0.9"/>
<path d="M18.2487 10.7378C18.3168 10.7635 18.3327 10.7991 18.2947 10.8371C18.2622 10.8696 18.2021 10.8966 18.1617 10.8966C18.1212 10.8966 18.0881 10.8647 18.0881 10.8248C18.0881 10.7175 18.1329 10.693 18.2487 10.7378Z" fill="#465A2F"/>
<path d="M13.2912 3.59785C13.3746 3.64751 13.3813 3.6751 13.3218 3.72352C13.2795 3.75724 13.2317 3.7646 13.2158 3.73946C13.1392 3.62176 13.1857 3.53533 13.2912 3.59785Z" fill="#CEFF97" fill-opacity="0.9"/>
<path d="M17.4751 10.4061C17.3378 10.2743 17.3439 10.2553 17.4291 10.2406L17.5364 10.2222L17.4751 10.4061Z" fill="#CEFF97" fill-opacity="0.9"/>
<path d="M18.2144 9.57609C18.291 9.52889 18.3333 9.55893 18.3333 9.66008C18.3333 9.69992 18.3057 9.7318 18.272 9.7318C18.2383 9.7318 18.1966 9.70605 18.1801 9.67418C18.1629 9.6423 18.1789 9.59816 18.2144 9.57609Z" fill="#CEFF97" fill-opacity="0.9"/>
<path d="M18.8115 9.39219C18.8342 9.41487 18.8182 9.45962 18.7772 9.49088C18.7281 9.52766 18.687 9.52153 18.6619 9.47433C18.619 9.39402 18.7441 9.32537 18.8115 9.39219Z" fill="#CEFF97" fill-opacity="0.9"/>
<path d="M16.3778 6.89349C16.4207 6.9364 16.4225 6.97257 16.3827 6.99709C16.3496 7.01732 16.3054 7.03448 16.2858 7.03448C16.2656 7.03448 16.249 7.00261 16.249 6.96276C16.249 6.8518 16.3061 6.82176 16.3778 6.89349Z" fill="#CEFF97" fill-opacity="0.9"/>
<path d="M13.3678 4.64368C13.6161 4.57257 13.6608 4.63816 13.5346 4.70805L13.4291 4.76628L13.3678 4.64368Z" fill="#CEFF97" fill-opacity="0.9"/>
<path d="M16.951 6.84506C16.9706 6.87755 16.9614 6.91923 16.9301 6.93824C16.8995 6.95724 16.8572 6.97318 16.8375 6.97318C16.8173 6.97318 16.8008 6.94743 16.8008 6.91556C16.8008 6.82973 16.9093 6.77885 16.951 6.84506Z" fill="#CEFF97" fill-opacity="0.9"/>
<path d="M13.1226 5.25671L13.1839 5.31801C13.1465 5.45287 13.1226 5.4541 13.0638 5.40015C13.0092 5.34988 13.0067 5.31862 13.0546 5.29287L13.1226 5.25671Z" fill="#CEFF97" fill-opacity="0.9"/>
<path d="M12.8161 4.88889L12.9387 4.95019L12.8774 5.01149C12.6978 4.96368 12.688 4.94406 12.7395 4.92138L12.8161 4.88889Z" fill="#CEFF97" fill-opacity="0.9"/>
<path d="M12.7388 3.8351C12.7548 3.87923 12.7554 3.92766 12.7407 3.94238C12.726 3.95709 12.6953 3.96935 12.6733 3.96935C12.6506 3.96935 12.6322 3.93747 12.6322 3.89762C12.6322 3.78851 12.7064 3.74437 12.7388 3.8351Z" fill="#465A2F"/>
<path d="M18.7735 8.86008C18.8133 8.89992 18.8317 8.94713 18.8146 8.96429C18.7974 8.98207 18.7643 8.99617 18.7422 8.99617C18.7195 8.99617 18.7011 8.94897 18.7011 8.89195C18.7011 8.81165 18.7177 8.80429 18.7735 8.86008Z" fill="#CEFF97" fill-opacity="0.9"/>
<path d="M17.8429 7.03448C17.8178 6.8751 17.8478 6.8377 17.9042 6.90268L17.9655 6.97318L17.8429 7.03448Z" fill="#CEFF97" fill-opacity="0.9"/>
<path d="M16.1877 6.44169C16.1877 6.46437 16.1467 6.48276 16.0958 6.48276C16.0326 6.48276 16.0216 6.45885 16.0608 6.40674C16.1154 6.33502 16.1877 6.35464 16.1877 6.44169Z" fill="#CEFF97" fill-opacity="0.9"/>
<path d="M17.0429 6.26636C17.0797 6.28904 17.0932 6.33318 17.0742 6.36444C17.0546 6.39571 17.0264 6.42146 17.0116 6.42146C16.9969 6.42146 16.9755 6.38713 16.9638 6.34483C16.9362 6.24245 16.9626 6.2167 17.0429 6.26636Z" fill="#CEFF97" fill-opacity="0.9"/>
<path d="M12.8161 4.88889V4.76628L12.9387 4.95019L12.8161 4.88889Z" fill="#CEFF97" fill-opacity="0.9"/>
</svg>