<svg width="20" height="20" viewBox="0 0 20 20" fill="none" xmlns="http://www.w3.org/2000/svg">
<path d="M3.58091 11.3456V5.80157M1.03751 16.4335C1.11062 17.752 2.16468 18.9899 3.54191 18.9999C3.55449 19 3.56708 19 3.57968 19C3.59228 19 3.60486 19 3.61746 18.9999C4.99469 18.9899 6.04874 17.752 6.12186 16.4335C6.14434 16.0278 6.15936 15.6163 6.15936 15.1998C6.15936 14.3899 6.10258 13.5985 6.04443 12.833C5.99442 12.1745 5.4721 11.6273 4.78557 11.5757C3.96436 11.514 3.195 11.514 2.37378 11.5757C1.68726 11.6273 1.16494 12.1745 1.11493 12.833C1.05679 13.5985 1 14.3899 1 15.1998C1 15.6163 1.01501 16.0278 1.03751 16.4335ZM1.78339 4.01779C1.80644 4.96831 2.58678 5.76504 3.57845 5.76504C4.57013 5.76504 5.35045 4.96831 5.37351 4.01779C5.38771 3.43208 5.38228 2.8532 5.3572 2.26225C5.32889 1.59508 4.78315 1.04825 4.08766 1.01333C3.73399 0.995578 3.42291 0.995553 3.06925 1.01327C2.37374 1.04811 1.828 1.59496 1.7997 2.26213C1.77463 2.85311 1.76918 3.43203 1.78339 4.01779ZM11.2728 1.19316C11.2728 3.96216 12.0636 4.64691 13.4694 4.64691C14.8753 4.64691 15.6661 3.96216 15.6661 1.19316C15.6661 1.08404 15.7728 1.00295 15.8822 1.03303C17.8994 1.58767 19 2.96138 19 5.00922C19 6.9314 18.0304 8.25965 16.2432 8.87409C16.1773 8.89674 16.1353 8.95923 16.1394 9.02619C16.1934 9.93615 16.2419 11.9112 16.2419 12.8668C16.2419 13.8223 16.1935 15.8202 16.1394 16.7302C16.075 17.8143 15.2588 18.8164 14.1332 18.9374C13.6973 18.9842 13.2416 18.9842 12.8057 18.9374C11.68 18.8164 10.864 17.8143 10.7995 16.7302C10.7454 15.8202 10.6969 13.8223 10.6969 12.8668C10.6969 11.9112 10.7455 9.93615 10.7995 9.02619C10.8035 8.95923 10.7615 8.89674 10.6957 8.87409C8.90851 8.25965 7.93885 6.9314 7.93885 5.00922C7.93885 2.96138 9.03946 1.58767 11.0566 1.03303C11.166 1.00295 11.2728 1.08404 11.2728 1.19316Z" stroke="#CEFF97" stroke-width="2" stroke-linecap="round" stroke-linejoin="round"/>
</svg>