<svg width="14" height="14" viewBox="0 0 14 14" fill="none" xmlns="http://www.w3.org/2000/svg">
<path d="M6.55273 0.100586C8.5191 0.100586 10.1583 0.655401 11.3047 1.80176C12.4509 2.94802 13.0058 4.58658 13.0059 6.55273C13.0059 8.12067 12.6515 9.47954 11.9268 10.5479L13.5166 12.1377C13.897 12.5185 13.8972 13.136 13.5166 13.5166C13.136 13.8972 12.5185 13.897 12.1377 13.5166L10.5479 11.9268C9.47958 12.6516 8.1207 13.0059 6.55273 13.0059C4.58659 13.0058 2.94802 12.451 1.80176 11.3047C0.655401 10.1584 0.100586 8.51911 0.100586 6.55273C0.100677 4.58658 0.655497 2.94802 1.80176 1.80176C2.94802 0.65549 4.58658 0.100672 6.55273 0.100586ZM6.55273 1.5498C4.85352 1.54989 3.6283 2.02601 2.82715 2.82715C2.02601 3.6283 1.5499 4.85352 1.5498 6.55273C1.5498 8.25219 2.02594 9.47804 2.82715 10.2793C3.6283 11.0805 4.85351 11.5566 6.55273 11.5566C8.2522 11.5566 9.47806 11.0805 10.2793 10.2793C11.0805 9.47804 11.5566 8.25217 11.5566 6.55273C11.5566 4.85353 11.0804 3.6283 10.2793 2.82715C9.47806 2.02593 8.25219 1.5498 6.55273 1.5498ZM6.55273 3.08398C7.02218 3.08398 7.40332 3.46513 7.40332 3.93457V6.06836H9.2334C9.70278 6.06842 10.083 6.44955 10.083 6.91895C10.0829 7.3883 9.70275 7.76849 9.2334 7.76855H6.55273C6.08356 7.7683 5.70319 7.38818 5.70312 6.91895V3.93457C5.70312 3.46529 6.08352 3.08424 6.55273 3.08398Z" fill="#142204" stroke="#142204" stroke-width="0.2"/>
</svg>