<svg width="10" height="11" viewBox="0 0 10 11" fill="none" xmlns="http://www.w3.org/2000/svg">
<path d="M8.42909 8.57233H1.57085M7.68315 8.57233V10.5M2.31684 10.5V8.57233M8.05084 6.82588C8.72779 6.75982 9.25921 6.29812 9.33328 5.71499C9.33328 5.71499 9.5 5.04829 9.5 3.7487C9.5 2.44913 9.33328 1.78209 9.33328 1.78209C9.25928 1.19896 8.72787 0.737256 8.05092 0.671201C7.06796 0.57529 5.98965 0.5 5.0005 0.5C4.01124 0.5 2.93207 0.575306 1.94864 0.671229C1.27168 0.73726 0.740271 1.19896 0.6665 1.78212C0.6665 1.78212 0.5 2.44913 0.5 3.74854C0.5 5.04796 0.666454 5.71496 0.666454 5.71496C0.740233 6.29812 1.27164 6.75981 1.9486 6.82584M2.95303 8.57244C2.95303 8.04274 3.00457 7.48769 3.32918 7.077C3.72733 6.57325 4.32813 6.25245 5.00029 6.25245C5.67245 6.25245 6.27324 6.57325 6.6714 7.077C6.99601 7.48769 7.04755 8.04274 7.04755 8.57244M4.99998 4.94296C5.78736 4.94296 6.23026 4.48661 6.23026 3.67532C6.23026 2.86402 5.78736 2.40767 4.99998 2.40767C4.21261 2.40767 3.76971 2.86402 3.76971 3.67532C3.76971 4.48661 4.21261 4.94296 4.99998 4.94296Z" stroke="#B4FF5E" stroke-linecap="round" stroke-linejoin="round"/>
</svg>