<svg width="24" height="28" viewBox="0 0 24 28" fill="none" xmlns="http://www.w3.org/2000/svg">
<path d="M1.33333 27.3333C0.955556 27.3333 0.638889 27.2055 0.383333 26.95C0.127778 26.6944 0 26.3777 0 26V19.3333C0 18.6 0.261111 17.9722 0.783333 17.45C1.30556 16.9277 1.93333 16.6666 2.66667 16.6666V11.3333C2.66667 10.6 2.92778 9.97218 3.45 9.44996C3.97222 8.92774 4.6 8.66663 5.33333 8.66663H10.6667V6.73329C10.2667 6.46663 9.94444 6.1444 9.7 5.76663C9.45556 5.38885 9.33333 4.93329 9.33333 4.39996C9.33333 4.06663 9.4 3.73885 9.53333 3.41663C9.66667 3.0944 9.86667 2.79996 10.1333 2.53329L12 0.666626L13.8667 2.53329C14.1333 2.79996 14.3333 3.0944 14.4667 3.41663C14.6 3.73885 14.6667 4.06663 14.6667 4.39996C14.6667 4.93329 14.5444 5.38885 14.3 5.76663C14.0556 6.1444 13.7333 6.46663 13.3333 6.73329V8.66663H18.6667C19.4 8.66663 20.0278 8.92774 20.55 9.44996C21.0722 9.97218 21.3333 10.6 21.3333 11.3333V16.6666C22.0667 16.6666 22.6944 16.9277 23.2167 17.45C23.7389 17.9722 24 18.6 24 19.3333V26C24 26.3777 23.8722 26.6944 23.6167 26.95C23.3611 27.2055 23.0444 27.3333 22.6667 27.3333H1.33333ZM5.33333 16.6666H18.6667V11.3333H5.33333V16.6666ZM2.66667 24.6666H21.3333V19.3333H2.66667V24.6666Z" fill="#E0E4DB"/>
</svg>
