<svg width="14" height="20" viewBox="0 0 14 20" fill="none" xmlns="http://www.w3.org/2000/svg">
<path d="M7 0C7.83333 0 8.54167 0.291667 9.125 0.875C9.70833 1.45833 10 2.16667 10 3C10 3.83333 9.70833 4.54167 9.125 5.125C8.54167 5.70833 7.83333 6 7 6C6.16667 6 5.45833 5.70833 4.875 5.125C4.29167 4.54167 4 3.83333 4 3C4 2.16667 4.29167 1.45833 4.875 0.875C5.45833 0.291667 6.16667 0 7 0ZM7 7C7.78333 7 8.55833 7.09167 9.325 7.275C10.0917 7.45833 10.7833 7.71667 11.4 8.05C12.0333 8.36667 12.5417 8.74167 12.925 9.175C13.3083 9.60833 13.5 10.0833 13.5 10.6V16.4C13.5 16.6833 13.4333 16.9625 13.3 17.2375C13.1667 17.5125 12.9833 17.7667 12.75 18C12.5167 18.2333 12.2458 18.45 11.9375 18.65C11.6292 18.85 11.2833 19.0333 10.9 19.2V16.95C10.9 16.3167 10.4625 15.8 9.5875 15.4C8.7125 15 7.85 14.8 7 14.8C6.16667 14.8 5.3625 14.9708 4.5875 15.3125C3.8125 15.6542 3.33333 16.1 3.15 16.65C3.78333 16.9 4.43333 17.075 5.1 17.175C5.76667 17.275 6.45 17.3333 7.15 17.35H8V19.95C7.88333 19.9833 7.7625 20 7.6375 20H7.25C6.65 20 5.9625 19.9333 5.1875 19.8C4.4125 19.6667 3.675 19.4583 2.975 19.175C2.275 18.8917 1.6875 18.5208 1.2125 18.0625C0.7375 17.6042 0.5 17.05 0.5 16.4V10.6C0.5 10.0833 0.691667 9.60833 1.075 9.175C1.45833 8.74167 1.95833 8.36667 2.575 8.05C3.20833 7.71667 3.90833 7.45833 4.675 7.275C5.44167 7.09167 6.21667 7 7 7ZM7 13C7.55 13 8.02083 12.8042 8.4125 12.4125C8.80417 12.0208 9 11.55 9 11C9 10.45 8.80417 9.97917 8.4125 9.5875C8.02083 9.19583 7.55 9 7 9C6.45 9 5.97917 9.19583 5.5875 9.5875C5.19583 9.97917 5 10.45 5 11C5 11.55 5.19583 12.0208 5.5875 12.4125C5.97917 12.8042 6.45 13 7 13Z" fill="#B8CCB5"/>
</svg>
