<svg width="21" height="20" viewBox="0 0 21 20" fill="none" xmlns="http://www.w3.org/2000/svg">
<path d="M6.66797 7V5H15.668V7H6.66797ZM6.66797 10V8H15.668V10H6.66797ZM9.66797 20H3.66797C2.83464 20 2.1263 19.7083 1.54297 19.125C0.959635 18.5417 0.667969 17.8333 0.667969 17V14H3.66797V0H18.668V9.025C18.3346 8.99167 17.9971 9.00417 17.6555 9.0625C17.3138 9.12083 16.9846 9.225 16.668 9.375V2H5.66797V14H11.668L9.66797 16H2.66797V17C2.66797 17.2833 2.7638 17.5208 2.95547 17.7125C3.14714 17.9042 3.38464 18 3.66797 18H9.66797V20ZM11.668 20V16.925L17.193 11.425C17.343 11.275 17.5096 11.1667 17.693 11.1C17.8763 11.0333 18.0596 11 18.243 11C18.443 11 18.6346 11.0375 18.818 11.1125C19.0013 11.1875 19.168 11.3 19.318 11.45L20.243 12.375C20.3763 12.525 20.4805 12.6917 20.5555 12.875C20.6305 13.0583 20.668 13.2417 20.668 13.425C20.668 13.6083 20.6346 13.7958 20.568 13.9875C20.5013 14.1792 20.393 14.35 20.243 14.5L14.743 20H11.668ZM13.168 18.5H14.118L17.143 15.45L16.693 14.975L16.218 14.525L13.168 17.55V18.5ZM16.693 14.975L16.218 14.525L17.143 15.45L16.693 14.975Z" fill="#B7F1B9"/>
</svg>