<svg width="20" height="18" viewBox="0 0 20 18" fill="none" xmlns="http://www.w3.org/2000/svg">
<path d="M19.1667 10.6667H15.3542C15.3125 10.3751 15.2465 10.0904 15.1563 9.81258C15.066 9.5348 14.9514 9.26397 14.8125 9.00008H17.4375C17.382 8.90286 17.3195 8.81953 17.25 8.75008C17.1806 8.68064 17.0972 8.61814 17 8.56258C16.6389 8.35425 16.2257 8.20147 15.7604 8.10425C15.2952 8.00703 14.7639 7.95841 14.1667 7.95841H14.1042C13.8264 7.63897 13.5243 7.36119 13.1979 7.12508C12.8715 6.88897 12.5139 6.68758 12.125 6.52091C12.4445 6.45147 12.7743 6.39592 13.1146 6.35425C13.4549 6.31258 13.8056 6.29175 14.1667 6.29175C14.9028 6.29175 15.5903 6.36814 16.2292 6.52091C16.8681 6.67369 17.4653 6.89592 18.0209 7.18758C18.382 7.38203 18.6632 7.67022 18.8646 8.05216C19.066 8.43411 19.1667 8.86814 19.1667 9.35425V10.6667ZM14.1667 5.66675C13.4722 5.66675 12.882 5.42369 12.3959 4.93758C11.9097 4.45147 11.6667 3.86119 11.6667 3.16675C11.6667 2.4723 11.9097 1.88203 12.3959 1.39591C12.882 0.909804 13.4722 0.666748 14.1667 0.666748C14.8611 0.666748 15.4514 0.909804 15.9375 1.39591C16.4236 1.88203 16.6667 2.4723 16.6667 3.16675C16.6667 3.86119 16.4236 4.45147 15.9375 4.93758C15.4514 5.42369 14.8611 5.66675 14.1667 5.66675ZM14.1667 4.00008C14.4028 4.00008 14.6007 3.92022 14.7604 3.7605C14.9202 3.60078 15 3.40286 15 3.16675C15 2.93064 14.9202 2.73272 14.7604 2.573C14.6007 2.41328 14.4028 2.33341 14.1667 2.33341C13.9306 2.33341 13.7327 2.41328 13.5729 2.573C13.4132 2.73272 13.3334 2.93064 13.3334 3.16675C13.3334 3.40286 13.4132 3.60078 13.5729 3.7605C13.7327 3.92022 13.9306 4.00008 14.1667 4.00008ZM0.833351 10.6667V9.35425C0.833351 8.86814 0.934046 8.43411 1.13543 8.05216C1.33682 7.67022 1.61807 7.38203 1.97918 7.18758C2.53474 6.89592 3.13196 6.67369 3.77085 6.52091C4.40974 6.36814 5.09724 6.29175 5.83335 6.29175C6.19446 6.29175 6.54516 6.31258 6.88544 6.35425C7.22571 6.39592 7.55557 6.45147 7.87502 6.52091C7.48613 6.68758 7.12849 6.88897 6.8021 7.12508C6.47571 7.36119 6.17363 7.63897 5.89585 7.95841H5.83335C5.23613 7.95841 4.70488 8.00703 4.2396 8.10425C3.77432 8.20147 3.36113 8.35425 3.00002 8.56258C2.9028 8.61814 2.81946 8.68064 2.75002 8.75008C2.68057 8.81953 2.61807 8.90286 2.56252 9.00008H5.18752C5.04863 9.26397 4.93405 9.5348 4.84377 9.81258C4.75349 10.0904 4.68752 10.3751 4.64585 10.6667H0.833351ZM5.83335 5.66675C5.13891 5.66675 4.54863 5.42369 4.06252 4.93758C3.57641 4.45147 3.33335 3.86119 3.33335 3.16675C3.33335 2.4723 3.57641 1.88203 4.06252 1.39591C4.54863 0.909804 5.13891 0.666748 5.83335 0.666748C6.5278 0.666748 7.11807 0.909804 7.60418 1.39591C8.0903 1.88203 8.33335 2.4723 8.33335 3.16675C8.33335 3.86119 8.0903 4.45147 7.60418 4.93758C7.11807 5.42369 6.5278 5.66675 5.83335 5.66675ZM5.83335 4.00008C6.06946 4.00008 6.26738 3.92022 6.4271 3.7605C6.58682 3.60078 6.66668 3.40286 6.66668 3.16675C6.66668 2.93064 6.58682 2.73272 6.4271 2.573C6.26738 2.41328 6.06946 2.33341 5.83335 2.33341C5.59724 2.33341 5.39932 2.41328 5.2396 2.573C5.07988 2.73272 5.00002 2.93064 5.00002 3.16675C5.00002 3.40286 5.07988 3.60078 5.2396 3.7605C5.39932 3.92022 5.59724 4.00008 5.83335 4.00008ZM10 13.1667C9.54169 13.1667 9.14932 13.0036 8.82294 12.6772C8.49655 12.3508 8.33335 11.9584 8.33335 11.5001V9.00008C8.33335 8.54175 8.49655 8.14939 8.82294 7.823C9.14932 7.49661 9.54169 7.33341 10 7.33341C10.4584 7.33341 10.8507 7.49661 11.1771 7.823C11.5035 8.14939 11.6667 8.54175 11.6667 9.00008V11.5001C11.6667 11.9584 11.5035 12.3508 11.1771 12.6772C10.8507 13.0036 10.4584 13.1667 10 13.1667ZM9.37502 17.3334V15.6251C8.37502 15.4723 7.53474 15.007 6.85418 14.2292C6.17363 13.4515 5.83335 12.5417 5.83335 11.5001H7.08335C7.08335 12.3056 7.36807 12.9931 7.93752 13.5626C8.50696 14.132 9.19446 14.4167 10 14.4167C10.8056 14.4167 11.4931 14.132 12.0625 13.5626C12.632 12.9931 12.9167 12.3056 12.9167 11.5001H14.1667C14.1667 12.5417 13.8264 13.4515 13.1459 14.2292C12.4653 15.007 11.625 15.4723 10.625 15.6251V17.3334H9.37502Z" fill="#B7F1B9"/>
</svg>
