<svg width="32" height="30" viewBox="0 0 32 30" fill="none" xmlns="http://www.w3.org/2000/svg">
<path d="M32 4.19983V11.3999C32 12.394 31.2045 13.1999 30.2231 13.1999H23.1155C21.7477 13.201 20.8915 11.7018 21.5744 10.5012C21.8919 9.94304 22.4796 9.59931 23.1155 9.59985H25.6476L22.8342 6.99284C22.8149 6.97484 22.7957 6.95684 22.7779 6.93734C16.6503 0.733837 6.19134 3.57624 3.95172 12.0537C2.0549 19.2336 7.33878 26.3025 14.6753 26.3999H14.8234C17.6959 26.407 20.4609 25.2941 22.5454 23.2919C23.54 22.3399 25.179 22.8355 25.4956 24.184C25.6426 24.8099 25.4488 25.4676 24.9872 25.9094C22.2432 28.5441 18.604 30.0087 14.8234 30H14.6205C3.22285 29.8372 -3.72677 17.2367 2.11119 7.31899C7.04286 -1.05909 18.4321 -2.51524 25.2641 4.35883L28.4462 7.30785V4.19983C28.4474 2.81418 29.9288 1.94942 31.1129 2.64326C31.6614 2.96473 31.9995 3.55784 32 4.19983Z" fill="#142204"/>
</svg>