<?xml version="1.0" encoding="utf-8"?>
<!DOCTYPE svg PUBLIC "-//W3C//DTD SVG 20010904//EN" "http://www.w3.org/TR/2001/REC-SVG-20010904/DTD/svg10.dtd">
<svg version="1.0" width="75.75pt" height="75.75pt" viewBox="0 0 75.75 75.75" preserveAspectRatio="xMidYMid meet" xmlns="http://www.w3.org/2000/svg">
  <g transform="translate(0,75.75)scale(.075,.075)">
    <path id="path1" d="M 465 -999 c -17 5 -71 39 -121 76 -51 38 -120 89 -155 115 -35 26 -83 61 -107 79 -51 38 -82 94 -82 146 0 21 14 76 31 123 16 47 48 144 70 215 48 153 71 192 130 222 41 21 57 22 274 22 217 0 233 -1 274 -22 59 -30 82 -69 130 -222 22 -71 54 -168 70 -215 59 -165 41 -209 -134 -329 -27 -19 -74 -54 -104 -79 -82 -67 -182 -130 -216 -135 -16 -3 -43 -1 -60 4 z " />
  </g>
</svg>