<svg width="38" height="38" viewBox="0 0 38 38" fill="none" xmlns="http://www.w3.org/2000/svg">
<path d="M14.0001 5.66669L18.1667 14.8334L27.3334 19L18.1667 23.1667L14.0001 32.3334L9.83342 23.1667L0.666748 19L9.83342 14.8334L14.0001 5.66669ZM14.0001 13.7167L12.3334 17.3334L8.71675 19L12.3334 20.6667L14.0001 24.2834L15.6667 20.6667L19.2834 19L15.6667 17.3334L14.0001 13.7167ZM30.6667 14L28.5667 9.43335L24.0001 7.33335L28.5667 5.25002L30.6667 0.666687L32.7501 5.25002L37.3334 7.33335L32.7501 9.43335L30.6667 14ZM30.6667 37.3334L28.5667 32.7667L24.0001 30.6667L28.5667 28.5834L30.6667 24L32.7501 28.5834L37.3334 30.6667L32.7501 32.7667L30.6667 37.3334Z" fill="#E0E4DB"/>
</svg>