<svg width="22" height="21" viewBox="0 0 22 21" fill="none" xmlns="http://www.w3.org/2000/svg">
<path d="M11.2837 15.4738C11.5861 15.4738 11.8396 15.375 12.0442 15.1774C12.2488 14.9798 12.3511 14.735 12.3511 14.4429C12.3511 14.1508 12.2488 13.906 12.0442 13.7084C11.8396 13.5108 11.5861 13.412 11.2837 13.412C10.9812 13.412 10.7277 13.5108 10.5231 13.7084C10.3185 13.906 10.2162 14.1508 10.2162 14.4429C10.2162 14.735 10.3185 14.9798 10.5231 15.1774C10.7277 15.375 10.9812 15.4738 11.2837 15.4738ZM10.2162 11.3502H12.3511V5.16486H10.2162V11.3502ZM11.2837 20.6283C9.80698 20.6283 8.41926 20.3577 7.1205 19.8165C5.82173 19.2752 4.69199 18.5407 3.73126 17.6129C2.77053 16.6851 2.00995 15.5941 1.44953 14.3398C0.8891 13.0856 0.608887 11.7454 0.608887 10.3193C0.608887 8.89326 0.8891 7.5531 1.44953 6.29884C2.00995 5.04458 2.77053 3.95355 3.73126 3.02575C4.69199 2.09794 5.82173 1.36343 7.1205 0.822207C8.41926 0.280986 9.80698 0.010376 11.2837 0.010376C12.7603 0.010376 14.1481 0.280986 15.4468 0.822207C16.7456 1.36343 17.8753 2.09794 18.8361 3.02575C19.7968 3.95355 20.5574 5.04458 21.1178 6.29884C21.6782 7.5531 21.9584 8.89326 21.9584 10.3193C21.9584 11.7454 21.6782 13.0856 21.1178 14.3398C20.5574 15.5941 19.7968 16.6851 18.8361 17.6129C17.8753 18.5407 16.7456 19.2752 15.4468 19.8165C14.1481 20.3577 12.7603 20.6283 11.2837 20.6283ZM11.2837 18.5665C13.6677 18.5665 15.687 17.7676 17.3416 16.1697C18.9962 14.5718 19.8235 12.6217 19.8235 10.3193C19.8235 8.017 18.9962 6.06689 17.3416 4.469C15.687 2.87111 13.6677 2.07217 11.2837 2.07217C8.89963 2.07217 6.88032 2.87111 5.22573 4.469C3.57114 6.06689 2.74384 8.017 2.74384 10.3193C2.74384 12.6217 3.57114 14.5718 5.22573 16.1697C6.88032 17.7676 8.89963 18.5665 11.2837 18.5665Z" fill="#C1C9BE"/>
</svg>
