<svg width="29" height="26" viewBox="0 0 29 26" fill="none" xmlns="http://www.w3.org/2000/svg">
<path d="M8.35286 4.99856C7.00271 5.04264 5.87171 5.09698 4.96048 5.15072C3.281 5.24975 1.95438 6.50025 1.80519 8.13539C1.60532 10.3188 1.50349 12.5098 1.5 14.7019C1.5 17.2723 1.65229 19.5867 1.80519 21.2678C1.95438 22.9029 3.281 24.154 4.9611 24.2524C7.01819 24.3732 10.1951 24.5 14.5 24.5C18.8049 24.5 21.9818 24.3732 24.0395 24.2524C25.719 24.1534 27.0456 22.9029 27.1948 21.2678C27.3477 19.5874 27.5 17.2723 27.5 14.7019C27.5 12.1308 27.3477 9.81641 27.1948 8.13539C27.0456 6.50025 25.719 5.24975 24.0389 5.15072C23.1283 5.09698 21.9973 5.04204 20.6465 4.99856L19.7427 3.18047C19.302 2.29528 18.4464 1.67697 17.4411 1.6027C16.4624 1.53269 15.4813 1.49845 14.5 1.50005C13.304 1.50005 12.3092 1.54776 11.5595 1.6027C10.5536 1.67697 9.69805 2.29528 9.2579 3.18047L8.35348 4.99796L8.35286 4.99856Z" stroke="#BCE989" stroke-width="3" stroke-linejoin="round"/>
<path d="M8.92857 14.1801C8.92857 15.6214 9.51556 17.0037 10.5604 18.0228C11.6053 19.0419 13.0224 19.6145 14.5 19.6145C15.9776 19.6145 17.3947 19.0419 18.4396 18.0228C19.4844 17.0037 20.0714 15.6214 20.0714 14.1801C20.0714 12.7389 19.4844 11.3566 18.4396 10.3375C17.3947 9.31834 15.9776 8.74579 14.5 8.74579C13.0224 8.74579 11.6053 9.31834 10.5604 10.3375C9.51556 11.3566 8.92857 12.7389 8.92857 14.1801Z" stroke="#BCE989" stroke-width="3" stroke-linejoin="round"/>
</svg>