<svg width="17" height="17" viewBox="0 0 17 17" fill="none" xmlns="http://www.w3.org/2000/svg">
<path d="M8.04004 0.700195C8.46185 0.693982 8.76262 0.702417 8.97461 0.735352C9.18297 0.767736 9.34232 0.828501 9.43652 0.959961C9.52608 1.08516 9.53027 1.24313 9.53027 1.38086C9.53027 1.50394 9.52859 1.64816 9.45117 1.76758C9.36888 1.89437 9.22594 1.9605 9.03711 2.00391C8.8459 2.04782 8.57297 2.07637 8.18848 2.09961C7.80172 2.12298 7.29201 2.14143 6.62305 2.16504C4.71768 2.23254 3.6475 2.29413 3.00391 2.4248C2.68481 2.48962 2.48349 2.5688 2.3418 2.66602C2.20287 2.76141 2.10992 2.88183 2.01855 3.04883C1.95121 3.17207 1.88606 3.37422 1.82812 3.64648C1.77089 3.91557 1.72259 4.24282 1.68359 4.61035C1.60556 5.34599 1.56539 6.23549 1.56445 7.125C1.56353 8.01428 1.60124 8.9012 1.67773 9.63379C1.71599 10.0001 1.76457 10.3258 1.82129 10.5928C1.87863 10.8626 1.94221 11.0617 2.00879 11.1816L2.00977 11.1826C2.25267 11.6209 2.73047 11.882 3.62109 11.9795C3.87361 12.0072 4.08193 12.0354 4.24609 12.084C4.41379 12.1337 4.55101 12.2091 4.64941 12.3408C4.74503 12.4688 4.79058 12.6322 4.81445 12.8281C4.83836 13.0244 4.84277 13.2727 4.84277 13.583C4.84277 13.954 4.84955 14.1835 4.86719 14.3262C4.87694 14.4049 4.88824 14.4434 4.89551 14.4609H4.89746C4.9234 14.4571 4.96328 14.4456 5.01855 14.4219C5.12851 14.3747 5.27515 14.2902 5.4502 14.1709C5.79894 13.9332 6.24174 13.5706 6.69922 13.1357C6.93026 12.916 7.10517 12.748 7.25098 12.623C7.3979 12.4972 7.52538 12.4068 7.66699 12.3467C7.80957 12.2862 7.95677 12.2599 8.13672 12.248C8.3137 12.2364 8.53383 12.2383 8.82129 12.2373L9.31641 12.2246C9.9093 12.2012 10.7549 12.148 11.4619 12.0879L12.3975 12C12.6658 11.9694 12.8935 11.9348 13.0889 11.8877C13.4734 11.795 13.7116 11.6586 13.8789 11.4287C14.052 11.1908 14.1639 10.8335 14.248 10.2637C14.3318 9.6961 14.3851 8.94188 14.457 7.9248C14.4813 7.5829 14.5837 7.29899 14.7676 7.13477C14.862 7.05049 14.9764 6.99967 15.1035 6.99219C15.2292 6.9848 15.3569 7.02053 15.4805 7.08984C15.5807 7.14616 15.675 7.2133 15.7441 7.32324C15.812 7.4313 15.8463 7.56526 15.8604 7.73633C15.8879 8.07208 15.8424 8.61937 15.748 9.5625C15.6668 10.3759 15.5726 11.0243 15.4102 11.5381C15.2465 12.0555 15.0111 12.446 14.6416 12.7354C14.275 13.0223 13.7906 13.1988 13.1523 13.3174C12.5141 13.4359 11.7072 13.4986 10.6855 13.5488C9.67126 13.5991 8.69422 13.651 8.5127 13.665C8.39582 13.6739 8.30586 13.6977 8.15234 13.7998C7.98922 13.9083 7.76493 14.0985 7.38184 14.4385C6.95735 14.8157 6.4634 15.1943 5.98047 15.5146L5.50391 15.8135C5.21638 15.9834 4.9391 16.1321 4.70996 16.2412C4.59558 16.2957 4.49125 16.3407 4.40332 16.374C4.31866 16.4061 4.23773 16.4312 4.17383 16.4385L4.17285 16.4395C4.10461 16.4468 4.04136 16.4516 3.98535 16.4492C3.92736 16.4467 3.86707 16.4361 3.81055 16.4043C3.70262 16.3435 3.64654 16.2265 3.59473 16.1133V16.1123C3.53971 15.9912 3.50677 15.825 3.48633 15.6025C3.46564 15.3772 3.4569 15.08 3.45605 14.6885V14.6875C3.45542 14.3312 3.45727 14.0757 3.44727 13.8848C3.43707 13.6904 3.41487 13.5879 3.38281 13.5264C3.35707 13.4771 3.31837 13.4423 3.22559 13.4072C3.12341 13.3686 2.98313 13.3391 2.7666 13.2891C1.75192 13.0548 1.09604 12.5747 0.696289 11.749C0.499847 11.3425 0.362693 10.6419 0.274414 9.81836C0.185431 8.9882 0.144505 8.01269 0.150391 7.04297C0.156284 6.07341 0.208585 5.10616 0.307617 4.29199C0.405725 3.48554 0.552116 2.80617 0.755859 2.42969C0.929403 2.10909 1.09954 1.8446 1.3291 1.63281C1.56084 1.41903 1.84449 1.26626 2.23438 1.15234C3.00195 0.928088 4.21509 0.8462 6.33301 0.757812C7.06014 0.727506 7.61612 0.706444 8.04004 0.700195ZM12.2051 0.149414C12.4301 0.148408 12.622 0.292927 12.7891 0.503906C12.9584 0.717874 13.1262 1.03034 13.3018 1.43164C13.5559 2.01164 13.7243 2.32842 13.957 2.56543C14.1893 2.80192 14.4964 2.96951 15.0586 3.2207C15.496 3.41622 15.8353 3.60302 16.0674 3.78906C16.296 3.97235 16.4495 4.17827 16.4502 4.41504C16.4508 4.65181 16.298 4.85836 16.0703 5.04297C15.8392 5.23031 15.5009 5.41917 15.0645 5.61719H15.0635C14.4713 5.88556 14.1672 6.04672 13.9395 6.27832C13.7113 6.51034 13.5503 6.82298 13.2812 7.43066C13.1204 7.79384 13.0034 8.03753 12.8984 8.2041C12.7905 8.37524 12.6886 8.47583 12.5566 8.54395C12.4802 8.58351 12.3953 8.61962 12.3193 8.64551C12.2494 8.66931 12.168 8.69141 12.1055 8.69141C12.0574 8.6914 12.0109 8.67519 11.9775 8.66113C11.9408 8.64562 11.9022 8.62501 11.8643 8.60156C11.7879 8.55425 11.7046 8.48991 11.6309 8.41992C11.546 8.33937 11.4334 8.1682 11.3232 7.97559C11.2093 7.77634 11.087 7.53464 10.9824 7.29785C10.7483 6.7677 10.5863 6.47271 10.3564 6.24609C10.1257 6.01867 9.81588 5.84942 9.25781 5.59961C8.83671 5.4112 8.50859 5.225 8.2832 5.03711C8.06062 4.85148 7.91391 4.644 7.9082 4.41113C7.90251 4.17551 8.04204 3.96852 8.25879 3.78809C8.47712 3.60638 8.79745 3.43078 9.20996 3.25684C9.77078 3.02057 10.0702 2.8672 10.3086 2.63086C10.5493 2.3922 10.7375 2.05957 11.0449 1.43457C11.243 1.03176 11.4282 0.719088 11.6084 0.504883C11.7856 0.29433 11.9823 0.150463 12.2051 0.149414ZM12.1592 2.3916C11.8956 2.88841 11.665 3.24964 11.4199 3.52734C11.1328 3.85269 10.8351 4.06045 10.4697 4.24805L10.1104 4.43066C10.9372 4.86825 11.2665 5.0859 11.4668 5.30273L11.5537 5.40527L11.6777 5.58398C11.8067 5.78334 11.9429 6.03217 12.0195 6.2168C12.0563 6.30463 12.0945 6.38522 12.1279 6.4502C12.1669 6.38959 12.2128 6.31537 12.2568 6.2334L12.4541 5.89844C12.9021 5.20184 13.4738 4.7162 14.1973 4.42578C14.1088 4.37573 13.9877 4.31075 13.8262 4.22363C13.4698 4.0308 13.1981 3.84267 12.9639 3.60645C12.7298 3.37031 12.5396 3.09128 12.3398 2.72363L12.1592 2.3916Z" fill="#B4FF5E" stroke="#B4FF5E" stroke-width="0.3"/>
</svg>