<svg width="17" height="17" viewBox="0 0 17 17" fill="none" xmlns="http://www.w3.org/2000/svg">
<path d="M6.76923 11.9615H10.2308M8.5 11.9615V7.92308H7.34615M8.5 16C12.6422 16 16 12.6422 16 8.5C16 4.35787 12.6422 1 8.5 1C4.35787 1 1 4.35787 1 8.5C1 12.6422 4.35787 16 8.5 16ZM8.5 5.32692C8.34069 5.32692 8.21154 5.19777 8.21154 5.03846C8.21154 4.87915 8.34069 4.75 8.5 4.75C8.65931 4.75 8.78846 4.87915 8.78846 5.03846C8.78846 5.19777 8.65931 5.32692 8.5 5.32692Z" stroke="#B4FF5E" stroke-width="2" stroke-linecap="round" stroke-linejoin="round"/>
</svg>