<svg width="11" height="11" viewBox="0 0 11 11" fill="none" xmlns="http://www.w3.org/2000/svg">
<path d="M5.03809 0.444336C5.30162 0.440458 5.49002 0.445152 5.62305 0.46582C5.75377 0.486145 5.85565 0.52498 5.91602 0.609375C5.97324 0.689463 5.97559 0.790169 5.97559 0.875977C5.97558 0.952628 5.9744 1.04468 5.9248 1.12109C5.87207 1.20227 5.78131 1.24426 5.66309 1.27148C5.54302 1.29908 5.3713 1.31652 5.13086 1.33105C4.88905 1.34566 4.57036 1.35732 4.15234 1.37207C2.9615 1.41426 2.29323 1.45266 1.8916 1.53418C1.69244 1.57463 1.56709 1.62442 1.47949 1.68457C1.39393 1.7434 1.33603 1.81721 1.2793 1.9209C1.23765 1.99711 1.19731 2.12296 1.16113 2.29297C1.1254 2.46096 1.09566 2.66576 1.07129 2.89551C1.02257 3.35496 0.997656 3.91014 0.99707 4.46582C0.99649 5.02147 1.01961 5.57559 1.06738 6.0332C1.09127 6.26196 1.12185 6.46528 1.15723 6.63184C1.19304 6.8004 1.23325 6.92391 1.27441 6.99805V6.99902C1.4248 7.2703 1.7214 7.43234 2.27734 7.49316C2.4348 7.51044 2.56488 7.5281 2.66797 7.55859C2.7736 7.58989 2.8612 7.63794 2.92383 7.72168C2.98455 7.80295 3.01334 7.90647 3.02832 8.0293C3.04332 8.1524 3.04589 8.30807 3.0459 8.50195C3.0459 8.73387 3.04958 8.87711 3.06055 8.96582C3.06577 9.00801 3.07288 9.0309 3.07715 9.04297C3.09271 9.04006 3.11627 9.03389 3.14746 9.02051C3.21564 8.99122 3.30691 8.93861 3.41602 8.86426C3.63364 8.71592 3.91056 8.48936 4.19629 8.21777C4.34029 8.08082 4.44888 7.97558 4.54004 7.89746C4.63205 7.81863 4.71246 7.7616 4.80176 7.72363C4.89179 7.6854 4.98478 7.66957 5.09766 7.66211C5.20861 7.65477 5.3466 7.65494 5.52637 7.6543L5.83496 7.64648C6.20547 7.63187 6.73467 7.59913 7.17676 7.56152C7.62419 7.52336 7.94879 7.49527 8.19238 7.43652C8.43155 7.3788 8.57829 7.29421 8.68164 7.15234C8.78896 7.00492 8.85955 6.78284 8.91211 6.42676C8.96443 6.07227 8.99701 5.60075 9.04199 4.96484C9.05724 4.75067 9.1218 4.57197 9.23828 4.46777C9.29826 4.41423 9.37118 4.38172 9.45215 4.37695C9.51199 4.37344 9.57254 4.38474 9.63184 4.40918L9.69141 4.43848L9.78223 4.5C9.81041 4.52377 9.83652 4.55209 9.8584 4.58691C9.90144 4.65558 9.92281 4.74044 9.93164 4.84766C9.94891 5.05822 9.92027 5.40116 9.86133 5.99023C9.81055 6.49844 9.75207 6.90388 9.65039 7.22559C9.54783 7.55001 9.39933 7.79566 9.16699 7.97754C8.9368 8.1576 8.63348 8.26863 8.23438 8.34277C7.83501 8.41695 7.32995 8.45592 6.69141 8.4873L5.33398 8.55957C5.26202 8.56499 5.20651 8.58027 5.11133 8.64355C5.00983 8.7111 4.87012 8.82965 4.63086 9.04199L4.62988 9.04102C4.27591 9.35559 3.84537 9.67202 3.45605 9.90137C3.27616 10.0077 3.10243 10.1006 2.95898 10.1689C2.88732 10.2031 2.82181 10.232 2.7666 10.2529C2.71375 10.273 2.66273 10.2883 2.62207 10.293H2.62109C2.57843 10.2976 2.53842 10.3013 2.50293 10.2998C2.46615 10.2982 2.42801 10.291 2.3916 10.2705C2.3569 10.251 2.33017 10.2228 2.30859 10.1904L2.25391 10.0859C2.21903 10.0093 2.19836 9.9048 2.18555 9.76562C2.17257 9.62442 2.16752 9.43742 2.16699 9.19238C2.1666 8.96979 2.16736 8.8105 2.16113 8.69141C2.15477 8.57007 2.14142 8.50687 2.12207 8.46973C2.10692 8.44065 2.0836 8.42009 2.02637 8.39844C1.96312 8.37456 1.87646 8.35645 1.74121 8.3252C1.10549 8.17845 0.693235 7.87733 0.442383 7.35938C0.319042 7.10429 0.232931 6.66516 0.177734 6.15039C0.122088 5.6313 0.0969142 5.02126 0.100586 4.41504C0.104266 3.80876 0.137269 3.20357 0.199219 2.69434C0.260529 2.1904 0.351546 1.76477 0.479492 1.52832C0.587941 1.32798 0.694854 1.1623 0.838867 1.0293C0.984488 0.894949 1.16304 0.798936 1.40723 0.727539C1.88786 0.587116 2.6473 0.535698 3.9707 0.480469L5.03809 0.444336ZM7.64062 0.100586C7.78415 0.09991 7.90595 0.190967 8.01074 0.323242C8.11715 0.457632 8.22217 0.654129 8.33203 0.905273C8.49084 1.26776 8.59568 1.4651 8.74023 1.6123C8.88443 1.75907 9.07561 1.86262 9.42676 2.01953V2.02051C9.70021 2.14273 9.91291 2.25924 10.0586 2.37598C10.202 2.49095 10.2994 2.62155 10.2998 2.77246C10.3001 2.92328 10.2034 3.05418 10.0605 3.16992C9.91546 3.28747 9.70352 3.40552 9.43066 3.5293C9.06066 3.69698 8.87086 3.79682 8.72949 3.94043C8.58781 4.08452 8.4876 4.28014 8.31934 4.66016C8.2189 4.88696 8.14498 5.03908 8.0791 5.14355C8.01128 5.2511 7.94698 5.31419 7.86328 5.35742L7.86426 5.3584C7.81623 5.38327 7.7626 5.40559 7.71484 5.42188C7.67118 5.43675 7.61932 5.45109 7.5791 5.45117C7.54788 5.45117 7.51815 5.4405 7.49707 5.43164C7.47358 5.42175 7.44884 5.40843 7.4248 5.39355C7.37668 5.36375 7.32373 5.3243 7.27734 5.28027C7.22361 5.22927 7.15366 5.12109 7.08496 5.00098C7.01364 4.87623 6.93656 4.72439 6.87109 4.57617C6.72486 4.24499 6.62413 4.06159 6.48145 3.9209C6.33811 3.77961 6.14485 3.67475 5.7959 3.51855C5.53274 3.40081 5.32801 3.28388 5.18652 3.16602C5.04673 3.04948 4.9528 2.91786 4.94922 2.76953C4.94571 2.6196 5.03488 2.48921 5.1709 2.37598C5.30803 2.26185 5.50863 2.15175 5.7666 2.04297C6.11684 1.89542 6.3032 1.79987 6.45117 1.65332C6.60072 1.50506 6.71807 1.29772 6.91016 0.907227C7.03409 0.655149 7.15047 0.458709 7.26367 0.324219C7.37472 0.192309 7.4987 0.101365 7.64062 0.100586ZM7.6123 1.52148C7.44983 1.82657 7.30705 2.04966 7.15527 2.22168C6.97523 2.42571 6.78843 2.55632 6.55957 2.67383L6.3457 2.78223C6.93417 3.0941 7.11571 3.22681 7.23828 3.38672V3.3877C7.33606 3.51633 7.46726 3.74211 7.53125 3.89648C7.55184 3.94571 7.57463 3.99029 7.59375 4.02832C7.61617 3.99278 7.64329 3.95125 7.66797 3.90527C7.96254 3.35902 8.35642 2.98991 8.87402 2.7793C8.81968 2.74875 8.74697 2.70976 8.65137 2.6582C8.42824 2.53747 8.25733 2.41976 8.11035 2.27148C7.96351 2.12333 7.84471 1.94785 7.71973 1.71777L7.6123 1.52148Z" fill="#B4FF5E" stroke="#B4FF5E" stroke-width="0.2"/>
</svg>
