<svg width="34" height="35" viewBox="0 0 34 35" fill="none" xmlns="http://www.w3.org/2000/svg">
<path d="M21.1503 33.25V30.1735C21.2873 29.0541 22.2791 28.2994 23.3955 28.2994H24.6265C25.6178 28.2994 26.5685 27.9019 27.2695 27.1943C27.9705 26.4866 28.3643 25.5269 28.3643 24.5262V21.0472C29.7598 21.1025 30.4824 20.9868 31.3147 20.4686C32.1495 19.9504 32.4261 18.8738 32.142 17.9279C29.6451 9.60155 25.7503 1.25 14.6564 1.25C6.15405 1.24749 1.25 5.64966 1.25 14.454C1.25 20.4686 2.80743 22.4886 4.68881 25.5626C5.72544 27.253 6.16152 29.2302 6.15903 31.22C6.15405 31.9293 6.15405 32.6538 6.15405 33.25M21.6563 16.4845C21.6565 16.551 21.6784 16.6155 21.7186 16.6682L22.5883 17.775C22.7453 17.9732 22.8395 18.2146 22.8586 18.4677C22.8777 18.7208 22.8209 18.9738 22.6954 19.1938L22.1846 20.0842C22.059 20.3045 21.8705 20.4814 21.6438 20.5918C21.4171 20.7022 21.1626 20.741 20.9137 20.7031L19.5282 20.4918C19.463 20.4821 19.3964 20.4945 19.3388 20.527L17.6992 21.4829C17.6421 21.5178 17.5983 21.5709 17.5746 21.6338L17.0612 22.9469C16.97 23.1837 16.8101 23.3872 16.6025 23.5308C16.3949 23.6744 16.1492 23.7515 15.8975 23.7519H14.8808C14.6291 23.7515 14.3835 23.6744 14.1758 23.5308C13.9682 23.3872 13.8084 23.1837 13.7171 22.9469L13.2063 21.6313C13.1821 21.5693 13.1383 21.5171 13.0817 21.4829L11.442 20.527C11.3845 20.4945 11.3179 20.4821 11.2526 20.4918L9.86714 20.7031C9.61822 20.741 9.36376 20.7022 9.13703 20.5918C8.91029 20.4814 8.72183 20.3045 8.59627 20.0842L8.08543 19.1938C7.95943 18.9735 7.90225 18.72 7.92137 18.4664C7.94049 18.2128 8.03502 17.9709 8.19258 17.7725L9.06475 16.6682C9.10638 16.6162 9.12923 16.5514 9.12954 16.4845V14.5727C9.12923 14.5059 9.10638 14.4411 9.06475 14.3891L8.19258 13.2823C8.03555 13.084 7.94133 12.8427 7.92222 12.5896C7.90311 12.3365 7.95998 12.0835 8.08543 11.8635L8.59627 10.973C8.72183 10.7528 8.91029 10.5759 9.13703 10.4655C9.36376 10.3551 9.61822 10.3163 9.86714 10.3542L11.2476 10.5655C11.3129 10.5752 11.3795 10.5628 11.437 10.5303L13.0817 9.56935C13.1383 9.53512 13.1821 9.48293 13.2063 9.42094L13.7196 8.11286C13.8108 7.87609 13.9707 7.6726 14.1783 7.52899C14.3859 7.38538 14.6316 7.30832 14.8833 7.3079H15.905C16.1567 7.30832 16.4024 7.38538 16.61 7.52899C16.8176 7.6726 16.9775 7.87609 17.0687 8.11286L17.5795 9.42094C17.6028 9.4848 17.6467 9.53887 17.7041 9.57438L19.3463 10.5303C19.4039 10.5628 19.4704 10.5752 19.5357 10.5655L20.9212 10.3542C21.1701 10.3163 21.4246 10.3551 21.6513 10.4655C21.878 10.5759 22.0665 10.7528 22.192 10.973L22.7004 11.8635C22.8267 12.0835 22.8843 12.3369 22.8657 12.5905C22.847 12.8441 22.7529 13.0861 22.5957 13.2848L21.7236 14.3916C21.6825 14.4429 21.6596 14.5067 21.6588 14.5727L21.6563 16.4845ZM15.3893 14.2703C15.083 14.2618 14.7831 14.3595 14.5395 14.547C14.0486 14.9621 14.0162 15.9079 14.4249 16.3934C14.549 16.524 14.6991 16.6265 14.8653 16.6942C15.0316 16.7618 15.2102 16.7931 15.3893 16.7858C15.5684 16.7931 15.7463 16.7613 15.9125 16.6937C16.0788 16.626 16.2289 16.5235 16.3529 16.3929C16.7591 15.9099 16.7292 14.9616 16.2358 14.5465C16.019 14.3629 15.7033 14.2703 15.3893 14.2703Z" stroke="#B4FF5E" stroke-width="2.5" stroke-linecap="round" stroke-linejoin="round"/>
</svg>