<svg width="32" height="27" viewBox="0 0 32 27" fill="none" xmlns="http://www.w3.org/2000/svg">
<path d="M21.383 2.7C20.5083 2.70212 19.6582 2.99341 18.9621 3.52954C18.2661 4.06567 17.7621 4.81728 17.5269 5.67L12.1264 25.3368C11.9973 25.8109 11.7192 26.2296 11.3342 26.5297C10.9492 26.8297 10.4782 26.9948 9.99232 27C9.51709 26.9936 9.05516 26.8403 8.66847 26.5607C8.28177 26.281 7.98882 25.8883 7.8289 25.4353L4.1036 15.0674C3.86081 14.3609 3.45401 13.7238 2.91739 13.2096C2.38078 12.6953 1.73003 12.319 1.01986 12.1122C0.676016 12.0279 0.379352 11.8088 0.195127 11.5031C0.0109016 11.1974 -0.0457935 10.8301 0.0375135 10.4821C0.120821 10.1341 0.337306 9.83379 0.639345 9.64733C0.941384 9.46087 1.30423 9.40348 1.64808 9.4878C2.78731 9.79682 3.83482 10.3826 4.69971 11.1942C5.5646 12.0058 6.22072 13.0188 6.61114 14.1453L9.91096 23.3253L14.9581 4.9437C15.3511 3.52397 16.1912 2.2729 17.3509 1.3806C18.5105 0.488293 19.9263 0.00354059 21.383 0H30.6662C31.0199 0 31.3592 0.142232 31.6093 0.395406C31.8595 0.64858 32 0.991958 32 1.35C32 1.70804 31.8595 2.05142 31.6093 2.30459C31.3592 2.55777 31.0199 2.7 30.6662 2.7H21.383ZM31.4665 13.77C31.1835 13.5552 30.8278 13.4629 30.4776 13.5136C30.1274 13.5642 29.8114 13.7536 29.5992 14.04L26.6648 17.9996L23.7304 14.04C23.5182 13.7536 23.2022 13.5642 22.852 13.5136C22.5018 13.4629 22.1461 13.5552 21.8631 13.77C21.5801 13.9848 21.393 14.3046 21.343 14.6591C21.293 15.0135 21.3841 15.3736 21.5964 15.66L24.9976 20.25L21.5964 24.84C21.4913 24.9818 21.4148 25.1432 21.3713 25.315C21.3279 25.4867 21.3182 25.6654 21.343 25.8409C21.3678 26.0164 21.4265 26.1853 21.5157 26.3378C21.6049 26.4904 21.723 26.6236 21.8631 26.73C22.0033 26.8364 22.1627 26.9138 22.3324 26.9578C22.5021 27.0018 22.6786 27.0115 22.852 26.9864C23.0254 26.9614 23.1922 26.902 23.343 26.8116C23.4937 26.7213 23.6253 26.6018 23.7304 26.46L26.6648 22.5005L29.5992 26.46C29.7043 26.6018 29.8359 26.7213 29.9866 26.8116C30.1374 26.902 30.3042 26.9614 30.4776 26.9864C30.651 27.0115 30.8275 27.0018 30.9972 26.9578C31.1669 26.9138 31.3264 26.8364 31.4665 26.73C31.6066 26.6236 31.7247 26.4904 31.8139 26.3378C31.9031 26.1853 31.9618 26.0164 31.9866 25.8409C32.0114 25.6654 32.0017 25.4867 31.9583 25.315C31.9148 25.1432 31.8383 24.9818 31.7332 24.84L28.3321 20.25L31.7332 15.66C31.8383 15.5182 31.9148 15.3568 31.9583 15.185C32.0017 15.0133 32.0114 14.8346 31.9866 14.6591C31.9618 14.4836 31.9031 14.3147 31.8139 14.1622C31.7247 14.0096 31.6066 13.8764 31.4665 13.77Z" fill="#B4FF5E"/>
</svg>