<svg width="27" height="27" viewBox="0 0 27 27" fill="none" xmlns="http://www.w3.org/2000/svg">
<path d="M7.89499 1.5V6.29991M18.6966 1.5V6.29991M1.70344 10.6198H25.2991M1.88872 20.2679C2.20581 23.0315 4.5051 25.2256 7.3484 25.3595C9.31363 25.4518 11.3212 25.5 13.5 25.5C15.6789 25.5 17.6864 25.4518 19.6516 25.3595C22.495 25.2256 24.7942 23.0315 25.1113 20.2679C25.3249 18.4068 25.5 16.4988 25.5 14.5551C25.5 12.6114 25.3249 10.7034 25.1113 8.84237C24.7942 6.07879 22.495 3.88458 19.6516 3.7508C17.6864 3.65833 15.6789 3.61028 13.5 3.61028C11.3212 3.61028 9.31363 3.65833 7.3484 3.7508C4.50512 3.88458 2.20581 6.07879 1.88872 8.84237C1.67519 10.7034 1.5 12.6114 1.5 14.5551C1.5 16.4988 1.67519 18.4068 1.88872 20.2679Z" stroke="#B4FF5E" stroke-width="3" stroke-linecap="round" stroke-linejoin="round"/>
</svg>