<svg width="16" height="16" viewBox="0 0 16 16" fill="none" xmlns="http://www.w3.org/2000/svg">
<path d="M12.1602 0.319824C13.3848 0.129867 14.3757 0.323646 15.0127 0.932129C15.6521 1.54304 15.8682 2.5075 15.6895 3.70264C15.5517 4.62675 14.9956 6.356 14.3252 8.11572C13.6528 9.88062 12.8525 11.7102 12.2119 12.8403C11.573 13.9667 10.8472 14.7358 9.99414 15.1128C9.13363 15.4931 8.18375 15.457 7.13965 15.0562C6.95081 14.9836 6.82068 14.9332 6.71875 14.9019C6.618 14.8709 6.56688 14.8656 6.53418 14.8677C6.50717 14.8694 6.47535 14.8774 6.41602 14.9116C6.35029 14.9495 6.27086 15.0072 6.14355 15.1011C5.86989 15.3026 5.49983 15.5347 5.31445 15.6118C5.12681 15.6898 4.82363 15.7495 4.61719 15.7495C4.35094 15.7494 4.06293 15.6507 3.78418 15.4888C3.40797 15.27 3.13919 15.0716 2.9873 14.6899C2.84842 14.3409 2.81636 13.8548 2.79395 13.103C2.7738 12.4271 2.76235 12.1455 2.67676 11.9058C2.59193 11.6685 2.43024 11.4626 2.03027 10.9644C0.954622 9.62328 0.346885 8.44835 0.260742 7.38232C0.172908 6.29418 0.631491 5.36701 1.56934 4.5415C1.94615 4.21003 2.62772 3.81075 3.45801 3.396C4.29522 2.97779 5.30508 2.53294 6.35645 2.11475C8.45341 1.28064 10.7407 0.539783 12.1602 0.319824ZM13.0508 1.80127C12.7006 1.79012 12.2606 1.84231 11.7197 1.96143C10.6377 2.19977 9.19466 2.69524 7.33496 3.42236C5.85205 4.00215 4.70022 4.49626 3.83496 4.95557C2.96588 5.41692 2.40992 5.83083 2.09473 6.23877C1.79115 6.6318 1.70504 7.02639 1.79688 7.49072C1.89246 7.97381 2.18196 8.5402 2.66113 9.25049L2.79395 9.45068C2.83471 9.5128 2.87188 9.56857 2.90625 9.61963C2.97629 9.72368 3.02958 9.7961 3.07617 9.84619C3.12199 9.89544 3.14697 9.90756 3.15625 9.91064C3.15995 9.91186 3.17498 9.91734 3.21875 9.90283C3.32979 9.86594 3.50926 9.74422 3.83594 9.46143C4.15332 9.18666 4.57474 8.79295 5.16504 8.25244C6.43679 7.08841 7.75982 5.93673 8.81055 5.06689C9.33566 4.63218 9.7952 4.266 10.1465 4.00342C10.3217 3.87246 10.473 3.76482 10.5938 3.68701C10.6539 3.64828 10.7096 3.61513 10.7588 3.58936C10.8025 3.56646 10.8605 3.53861 10.9199 3.52686C11.1635 3.4786 11.4045 3.5307 11.5732 3.69775C11.741 3.86398 11.7971 4.10442 11.7568 4.34912C11.7226 4.556 11.5846 4.72591 11.3027 4.99072C11.0099 5.2658 10.505 5.69061 9.64062 6.40674C8.55198 7.30871 6.89091 8.77198 5.95215 9.65576L4.31445 11.1938C4.30998 12.5717 4.30867 13.2538 4.33594 13.6245C4.34992 13.8145 4.37005 13.8956 4.3877 13.938C4.40169 13.9716 4.41646 13.9895 4.47754 14.0542C4.55996 14.1415 4.60924 14.1778 4.63672 14.1919C4.64231 14.1947 4.64643 14.1961 4.64844 14.1968L4.65039 14.1978C4.65097 14.1977 4.65322 14.1974 4.65625 14.1968L4.70703 14.1675C4.75299 14.1409 4.81269 14.1028 4.88281 14.0552C5.02282 13.96 5.19468 13.8325 5.36328 13.6968C5.55282 13.5439 5.71354 13.4175 5.85938 13.3276C6.00999 13.2348 6.16063 13.1712 6.33398 13.1577C6.50374 13.1445 6.6704 13.1813 6.84961 13.2437C7.02723 13.3055 7.23772 13.4005 7.49609 13.519C8.05128 13.7734 8.50654 13.8713 8.91113 13.814C9.31002 13.7574 9.69826 13.5441 10.1094 13.0972C10.9481 12.1854 11.8149 10.3817 12.9941 7.31201C13.6098 5.70898 14.0001 4.48376 14.1318 3.59033C14.2659 2.68089 14.118 2.22096 13.8076 2.00244C13.6431 1.88664 13.4013 1.81245 13.0508 1.80127Z" fill="#B4FF5E" stroke="#B4FF5E" stroke-width="0.5"/>
</svg>
