<svg width="936" height="717" viewBox="0 0 936 717" fill="none" xmlns="http://www.w3.org/2000/svg">
<g clip-path="url(#clip0_3101_4947)">
<path d="M0 102.4C0 66.5566 0 48.635 6.97558 34.9446C13.1115 22.9022 22.9022 13.1115 34.9446 6.97558C48.635 0 66.5566 0 102.4 0H833.6C869.443 0 887.365 0 901.055 6.97558C913.098 13.1115 922.889 22.9022 929.024 34.9446C936 48.635 936 66.5566 936 102.4V614.6C936 650.443 936 668.365 929.024 682.055C922.889 694.098 913.098 703.889 901.055 710.024C887.365 717 869.443 717 833.6 717H102.4C66.5567 717 48.635 717 34.9446 710.024C22.9022 703.889 13.1115 694.098 6.97558 682.055C0 668.365 0 650.443 0 614.6V102.4Z" fill="#08152C"/>
<g filter="url(#filter0_f_3101_4947)">
<ellipse cx="711.5" cy="628" rx="138" ry="418.5" transform="rotate(-90 711.5 628)" fill="#194C1F"/>
<ellipse cx="128.735" cy="456.254" rx="128.735" ry="456.254" transform="matrix(0.649106 0.760698 -0.649106 0.760698 1131.87 102)" fill="#194C1F"/>
<ellipse cx="-69.5" cy="455.5" rx="118.5" ry="343.5" fill="#194C1F"/>
<ellipse cx="137.225" cy="296.766" rx="137.225" ry="296.766" transform="matrix(0.22289 -0.974844 0.954068 0.299591 -222 717.429)" fill="#194C1F"/>
<ellipse cx="137.225" cy="296.766" rx="137.225" ry="296.766" transform="matrix(-0.22289 -0.974844 0.954068 -0.299591 47.7178 895.246)" fill="#194C1F"/>
</g>
</g>
<defs>
<filter id="filter0_f_3101_4947" x="-443.085" y="-218" width="1920.16" height="1375.71" filterUnits="userSpaceOnUse" color-interpolation-filters="sRGB">
<feFlood flood-opacity="0" result="BackgroundImageFix"/>
<feBlend mode="normal" in="SourceGraphic" in2="BackgroundImageFix" result="shape"/>
<feGaussianBlur stdDeviation="125" result="effect1_foregroundBlur_3101_4947"/>
</filter>
<clipPath id="clip0_3101_4947">
<path d="M0 102.4C0 66.5566 0 48.635 6.97558 34.9446C13.1115 22.9022 22.9022 13.1115 34.9446 6.97558C48.635 0 66.5566 0 102.4 0H833.6C869.443 0 887.365 0 901.055 6.97558C913.098 13.1115 922.889 22.9022 929.024 34.9446C936 48.635 936 66.5566 936 102.4V614.6C936 650.443 936 668.365 929.024 682.055C922.889 694.098 913.098 703.889 901.055 710.024C887.365 717 869.443 717 833.6 717H102.4C66.5567 717 48.635 717 34.9446 710.024C22.9022 703.889 13.1115 694.098 6.97558 682.055C0 668.365 0 650.443 0 614.6V102.4Z" fill="white"/>
</clipPath>
</defs>
</svg>