<svg width="21" height="21" viewBox="0 0 21 21" fill="none" xmlns="http://www.w3.org/2000/svg">
<path d="M10.4167 12.9167C11.7974 12.9167 12.9167 11.7974 12.9167 10.4167C12.9167 9.03595 11.7974 7.91667 10.4167 7.91667C9.03595 7.91667 7.91667 9.03595 7.91667 10.4167C7.91667 11.7974 9.03595 12.9167 10.4167 12.9167Z" stroke="#142204" stroke-width="2.5" stroke-linecap="round" stroke-linejoin="round"/>
<path d="M16.5833 12.9167C16.4724 13.168 16.4393 13.4468 16.4883 13.7172C16.5373 13.9875 16.6662 14.2369 16.8583 14.4333L16.9083 14.4833C17.0633 14.6381 17.1862 14.8219 17.2701 15.0243C17.354 15.2266 17.3971 15.4435 17.3971 15.6625C17.3971 15.8815 17.354 16.0984 17.2701 16.3007C17.1862 16.5031 17.0633 16.6869 16.9083 16.8417C16.7535 16.9966 16.5697 17.1196 16.3674 17.2034C16.1651 17.2873 15.9482 17.3305 15.7292 17.3305C15.5101 17.3305 15.2933 17.2873 15.0909 17.2034C14.8886 17.1196 14.7048 16.9966 14.55 16.8417L14.5 16.7917C14.3036 16.5996 14.0542 16.4707 13.7838 16.4217C13.5135 16.3726 13.2347 16.4057 12.9833 16.5167C12.7369 16.6223 12.5267 16.7977 12.3786 17.0213C12.2305 17.2449 12.1511 17.5068 12.15 17.775V17.9167C12.15 18.3587 11.9744 18.7826 11.6618 19.0952C11.3493 19.4077 10.9254 19.5833 10.4833 19.5833C10.0413 19.5833 9.61738 19.4077 9.30482 19.0952C8.99226 18.7826 8.81667 18.3587 8.81667 17.9167V17.8417C8.81021 17.5658 8.72093 17.2983 8.56042 17.0739C8.39992 16.8495 8.17561 16.6786 7.91667 16.5833C7.66532 16.4724 7.3865 16.4393 7.11618 16.4883C6.84585 16.5373 6.5964 16.6662 6.4 16.8583L6.35 16.9083C6.19521 17.0633 6.0114 17.1862 5.80907 17.2701C5.60674 17.354 5.38986 17.3971 5.17083 17.3971C4.95181 17.3971 4.73493 17.354 4.5326 17.2701C4.33027 17.1862 4.14645 17.0633 3.99167 16.9083C3.83671 16.7535 3.71377 16.5697 3.6299 16.3674C3.54603 16.1651 3.50286 15.9482 3.50286 15.7292C3.50286 15.5101 3.54603 15.2933 3.6299 15.0909C3.71377 14.8886 3.83671 14.7048 3.99167 14.55L4.04167 14.5C4.23378 14.3036 4.36265 14.0542 4.41167 13.7838C4.46069 13.5135 4.4276 13.2347 4.31667 12.9833C4.21103 12.7369 4.03563 12.5267 3.81205 12.3786C3.58848 12.2305 3.32649 12.1511 3.05833 12.15H2.91667C2.47464 12.15 2.05072 11.9744 1.73816 11.6618C1.42559 11.3493 1.25 10.9254 1.25 10.4833C1.25 10.0413 1.42559 9.61738 1.73816 9.30482C2.05072 8.99226 2.47464 8.81667 2.91667 8.81667H2.99167C3.2675 8.81021 3.535 8.72093 3.75942 8.56042C3.98383 8.39992 4.15476 8.17561 4.25 7.91667C4.36093 7.66532 4.39402 7.3865 4.345 7.11618C4.29599 6.84585 4.16711 6.5964 3.975 6.4L3.925 6.35C3.77004 6.19521 3.64711 6.0114 3.56323 5.80907C3.47936 5.60674 3.43619 5.38986 3.43619 5.17083C3.43619 4.95181 3.47936 4.73493 3.56323 4.5326C3.64711 4.33027 3.77004 4.14645 3.925 3.99167C4.07979 3.83671 4.2636 3.71377 4.46593 3.6299C4.66826 3.54603 4.88514 3.50286 5.10417 3.50286C5.32319 3.50286 5.54007 3.54603 5.7424 3.6299C5.94473 3.71377 6.12854 3.83671 6.28333 3.99167L6.33333 4.04167C6.52973 4.23378 6.77918 4.36265 7.04951 4.41167C7.31984 4.46069 7.59865 4.4276 7.85 4.31667H7.91667C8.16314 4.21103 8.37335 4.03563 8.52141 3.81205C8.66947 3.58848 8.74893 3.32649 8.75 3.05833V2.91667C8.75 2.47464 8.92559 2.05072 9.23815 1.73816C9.55072 1.42559 9.97464 1.25 10.4167 1.25C10.8587 1.25 11.2826 1.42559 11.5952 1.73816C11.9077 2.05072 12.0833 2.47464 12.0833 2.91667V2.99167C12.0844 3.25982 12.1639 3.52181 12.3119 3.74539C12.46 3.96896 12.6702 4.14436 12.9167 4.25C13.168 4.36093 13.4468 4.39402 13.7172 4.345C13.9875 4.29599 14.2369 4.16711 14.4333 3.975L14.4833 3.925C14.6381 3.77004 14.8219 3.64711 15.0243 3.56323C15.2266 3.47936 15.4435 3.43619 15.6625 3.43619C15.8815 3.43619 16.0984 3.47936 16.3007 3.56323C16.5031 3.64711 16.6869 3.77004 16.8417 3.925C16.9966 4.07979 17.1196 4.2636 17.2034 4.46593C17.2873 4.66826 17.3305 4.88514 17.3305 5.10417C17.3305 5.32319 17.2873 5.54007 17.2034 5.7424C17.1196 5.94473 16.9966 6.12854 16.8417 6.28333L16.7917 6.33333C16.5996 6.52973 16.4707 6.77918 16.4217 7.04951C16.3726 7.31984 16.4057 7.59865 16.5167 7.85V7.91667C16.6223 8.16314 16.7977 8.37335 17.0213 8.52141C17.2449 8.66947 17.5068 8.74893 17.775 8.75H17.9167C18.3587 8.75 18.7826 8.92559 19.0952 9.23815C19.4077 9.55072 19.5833 9.97464 19.5833 10.4167C19.5833 10.8587 19.4077 11.2826 19.0952 11.5952C18.7826 11.9077 18.3587 12.0833 17.9167 12.0833H17.8417C17.5735 12.0844 17.3115 12.1639 17.0879 12.3119C16.8644 12.46 16.689 12.6702 16.5833 12.9167Z" stroke="#142204" stroke-width="2.5" stroke-linecap="round" stroke-linejoin="round"/>
</svg>