<svg width="82" height="72" viewBox="0 0 82 72" fill="none" xmlns="http://www.w3.org/2000/svg">
<path d="M41 25.0868V39.8912M41 54.6956H41.0369M34.6988 6.06321L3.48763 58.3967C2.84412 59.516 2.50363 60.785 2.50003 62.0775C2.49643 63.37 2.82984 64.6409 3.46709 65.7638C4.10434 66.8867 5.02322 67.8225 6.13231 68.4779C7.24141 69.1334 8.50205 69.4858 9.78882 69.5H72.2112C73.498 69.4858 74.7586 69.1334 75.8677 68.4779C76.9768 67.8225 77.8957 66.8867 78.5329 65.7638C79.1702 64.6409 79.5036 63.37 79.5 62.0775C79.4964 60.785 79.1559 59.516 78.5124 58.3967L47.3012 6.06321C46.6443 4.97548 45.7193 4.07616 44.6156 3.45202C43.5119 2.82789 42.2666 2.5 41 2.5C39.7334 2.5 38.4881 2.82789 37.3844 3.45202C36.2807 4.07616 35.3557 4.97548 34.6988 6.06321Z" stroke="#FFF1C2" stroke-width="6.5" stroke-linecap="round" stroke-linejoin="round"/>
</svg>