<svg width="123" height="133" viewBox="0 0 123 133" fill="none" xmlns="http://www.w3.org/2000/svg">
<path fill-rule="evenodd" clip-rule="evenodd" d="M60.9996 5.0002C48.0952 5.0002 37.194 8.66915 29.5295 16.3758C21.872 24.0756 18.2357 35.0113 18.2357 47.9523C18.2357 53.0779 17.4845 55.9781 16.6843 57.746C15.9184 59.4381 14.9298 60.5122 13.4972 61.8293C13.3186 61.9936 13.1184 62.1728 12.9014 62.3671C11.5247 63.5993 9.46954 65.439 7.93532 67.922C6.00127 71.0521 4.9999 74.8512 4.9999 79.8633C4.9999 86.6952 8.79147 91.6962 13.5119 95.0855C18.1085 98.3862 24.0297 100.534 29.8243 101.985C41.4834 104.904 54.5723 105.468 60.9996 105.468C67.4268 105.468 80.516 104.905 92.1751 101.985C97.9702 100.534 103.891 98.3862 108.488 95.0856C113.209 91.6963 117 86.6952 117 79.8633C117 74.8511 115.998 71.0519 114.065 67.9218C112.53 65.4387 110.475 63.5991 109.098 62.3669C108.881 62.1726 108.681 61.9934 108.502 61.8292C107.069 60.512 106.081 59.438 105.315 57.746C104.515 55.9781 103.763 53.078 103.763 47.9523C103.763 35.0113 100.127 24.0756 92.47 16.3758C84.8052 8.66915 73.9041 5.0002 60.9996 5.0002ZM29.9023 47.9523C29.9023 37.1276 32.9136 29.4964 37.8124 24.5706C42.7043 19.6518 50.2685 16.6366 60.9996 16.6366C71.7307 16.6366 79.2949 19.6518 84.1868 24.5706C89.0858 29.4964 92.0967 37.1276 92.0967 47.9523C92.0967 54.1636 93.0002 58.8196 94.682 62.5343C96.3975 66.3249 98.7187 68.6598 100.595 70.385C100.917 70.6811 101.209 70.9465 101.474 71.1885C102.858 72.448 103.54 73.0693 104.132 74.0271C104.68 74.9133 105.333 76.471 105.333 79.8633C105.333 81.8122 104.411 83.6748 101.672 85.6417C98.8083 87.6976 94.5234 89.3989 89.334 90.6989C79.0236 93.2811 67.0292 93.8309 60.9996 93.8309C54.97 93.8308 42.9758 93.281 32.6659 90.6988C27.476 89.3988 23.1913 87.6975 20.328 85.6417C17.5887 83.6748 16.6666 81.8122 16.6666 79.8633C16.6666 76.4711 17.3197 74.9134 17.8673 74.0271C18.4591 73.0693 19.1418 72.448 20.5253 71.1885C20.7912 70.9465 21.083 70.681 21.405 70.3849C23.2814 68.6596 25.6017 66.3247 27.3175 62.5341C28.999 58.8195 29.9023 54.1635 29.9023 47.9523ZM46.2069 112.584C44.2832 112.584 42.4831 113.531 41.3955 115.114C40.3078 116.696 40.0724 118.712 40.7662 120.502C42.3117 124.488 44.9638 127.731 48.6241 129.917C52.2219 132.065 56.4673 133 60.9975 133C65.5277 133 69.773 132.065 73.3709 129.917C77.0311 127.731 79.6833 124.488 81.2288 120.502C81.9225 118.712 81.6871 116.696 80.5994 115.114C79.5118 113.531 77.7118 112.584 75.788 112.584H46.2069Z" fill="#B4FF5E"/>
<path d="M110.672 6.17178C112.234 4.60968 114.766 4.60968 116.328 6.17178C117.89 7.73387 117.89 10.2659 116.328 11.828L11.828 116.328C10.2659 117.89 7.73387 117.89 6.17178 116.328C4.60968 114.766 4.60968 112.234 6.17178 110.672L110.672 6.17178Z" fill="#B4FF5E"/>
<path d="M107.472 2.31661C110.891 -0.772264 116.109 -0.772143 119.528 2.31661L119.863 2.63595L120.183 2.97188C123.375 6.50482 123.268 11.9586 119.863 15.3635L15.3635 119.863C11.8488 123.378 6.15066 123.378 2.63595 119.863C-0.878587 116.349 -0.87871 110.651 2.63595 107.136L107.136 2.63595L107.472 2.31661ZM116.328 6.17178C114.766 4.60968 112.234 4.60968 110.672 6.17178L6.17178 110.672C4.60968 112.234 4.60968 114.766 6.17178 116.328C7.68509 117.841 10.1088 117.889 11.6789 116.47L11.828 116.328L116.328 11.828C117.89 10.2659 117.89 7.73387 116.328 6.17178Z" fill="#273617"/>
</svg>