<svg width="15" height="18" viewBox="0 0 15 18" fill="none" xmlns="http://www.w3.org/2000/svg">
<path fill-rule="evenodd" clip-rule="evenodd" d="M7.49996 0C5.77169 0 4.31171 0.515945 3.28521 1.5997C2.25965 2.68247 1.77265 4.22031 1.77265 6.04014C1.77265 6.76093 1.67205 7.16876 1.56487 7.41737C1.4623 7.65533 1.3299 7.80637 1.13804 7.99159C1.11411 8.0147 1.0873 8.0399 1.05824 8.06722C0.873863 8.2405 0.598612 8.49921 0.393137 8.84838C0.134112 9.28855 0 9.8228 0 10.5276C0 11.4884 0.5078 12.1916 1.14 12.6682C1.75561 13.1324 2.54864 13.4344 3.3247 13.6385C4.88619 14.049 6.63916 14.1282 7.49996 14.1282C8.36075 14.1282 10.1138 14.0492 11.6753 13.6385C12.4514 13.4344 13.2444 13.1324 13.86 12.6683C14.4923 12.1916 15 11.4884 15 10.5276C15 9.82279 14.8659 9.28852 14.6069 8.84835C14.4014 8.49917 14.1261 8.24047 13.9418 8.06719C13.9126 8.03987 13.8859 8.01467 13.8619 7.99158C13.67 7.80634 13.5376 7.65531 13.435 7.41737C13.3279 7.16876 13.2273 6.76094 13.2273 6.04014C13.2273 4.22031 12.7403 2.68247 11.7148 1.5997C10.6882 0.515945 9.22824 0 7.49996 0ZM3.33515 6.04014C3.33515 4.51792 3.73844 3.44478 4.39454 2.75209C5.0497 2.06038 6.06276 1.63636 7.49996 1.63636C8.93716 1.63636 9.95022 2.06038 10.6054 2.75209C11.2615 3.44478 11.6648 4.51792 11.6648 6.04014C11.6648 6.9136 11.7858 7.56835 12.011 8.09073C12.2408 8.62378 12.5516 8.95213 12.8029 9.19474C12.846 9.23637 12.8851 9.2737 12.9206 9.30773C13.106 9.48485 13.1974 9.57222 13.2766 9.70691C13.35 9.83153 13.4375 10.0506 13.4375 10.5276C13.4375 10.8017 13.314 11.0636 12.9471 11.3402C12.5636 11.6293 11.9897 11.8686 11.2948 12.0514C9.91389 12.4145 8.3075 12.4918 7.49996 12.4918C6.69242 12.4918 5.08606 12.4145 3.70526 12.0514C3.01019 11.8686 2.43635 11.6293 2.05287 11.3402C1.686 11.0636 1.5625 10.8017 1.5625 10.5276C1.5625 10.0506 1.64997 9.83155 1.72331 9.70691C1.80257 9.57222 1.894 9.48485 2.0793 9.30773C2.11491 9.2737 2.15399 9.23636 2.19711 9.19473C2.44841 8.9521 2.75918 8.62375 2.98896 8.0907C3.21416 7.56834 3.33515 6.91358 3.33515 6.04014ZM5.5188 15.129C5.26116 15.129 5.02007 15.2622 4.87441 15.4847C4.72874 15.7073 4.69721 15.9907 4.79012 16.2424C4.99711 16.803 5.35231 17.2591 5.84252 17.5664C6.32437 17.8684 6.89295 18 7.49968 18C8.1064 18 8.67498 17.8684 9.15683 17.5664C9.64704 17.2591 10.0022 16.803 10.2092 16.2424C10.3021 15.9907 10.2706 15.7073 10.1249 15.4847C9.97927 15.2622 9.7382 15.129 9.48055 15.129H5.5188Z" fill="#CEFF97"/>
</svg>