<svg width="20" height="22" viewBox="0 0 20 22" fill="none" xmlns="http://www.w3.org/2000/svg">
<path d="M11 2C14.9 2 18 5.1 18 9C18 11.8 16.4 14.2 14 15.3V20H7.00002V17H6.00002C4.90002 17 4.00002 16.1 4.00002 15V12H2.50002C2.10002 12 1.80002 11.5 2.10002 11.2L4.00002 8.7C4.20002 4.9 7.20002 2 11 2ZM11 0C6.40002 0 2.60002 3.4 2.10002 7.9L0.500016 10C-0.0999844 10.8 -0.0999844 11.8 0.300016 12.6C0.700016 13.3 1.30002 13.8 2.00002 13.9V15C2.00002 16.9 3.30002 18.4 5.00002 18.9V22H16V16.5C18.5 14.8 20 12.1 20 9C20 4 16 0 11 0ZM12 13H10V12H12V13ZM13.6 8.5C13.3 8.9 13 9.3 12.5 9.6V11H9.50002V9.6C8.10002 8.8 7.60001 6.9 8.40001 5.5C9.20001 4.1 11.1 3.6 12.5 4.4C13.9 5.2 14.4 7.1 13.6 8.5Z" fill="#C1C9BE"/>
</svg>