<svg width="17" height="18" viewBox="0 0 17 18" fill="none" xmlns="http://www.w3.org/2000/svg">
<path d="M7.65 13.25H9.35V8.15H7.65V13.25ZM8.5 6.45C8.74083 6.45 8.94271 6.36854 9.10563 6.20563C9.26854 6.04271 9.35 5.84083 9.35 5.6C9.35 5.35917 9.26854 5.15729 9.10563 4.99438C8.94271 4.83146 8.74083 4.75 8.5 4.75C8.25917 4.75 8.05729 4.83146 7.89438 4.99438C7.73146 5.15729 7.65 5.35917 7.65 5.6C7.65 5.84083 7.73146 6.04271 7.89438 6.20563C8.05729 6.36854 8.25917 6.45 8.5 6.45ZM8.5 17.5C7.32417 17.5 6.21917 17.2769 5.185 16.8306C4.15083 16.3844 3.25125 15.7788 2.48625 15.0138C1.72125 14.2488 1.11563 13.3492 0.669375 12.315C0.223125 11.2808 0 10.1758 0 9C0 7.82417 0.223125 6.71917 0.669375 5.685C1.11563 4.65083 1.72125 3.75125 2.48625 2.98625C3.25125 2.22125 4.15083 1.61563 5.185 1.16938C6.21917 0.723125 7.32417 0.5 8.5 0.5C9.67583 0.5 10.7808 0.723125 11.815 1.16938C12.8492 1.61563 13.7488 2.22125 14.5138 2.98625C15.2788 3.75125 15.8844 4.65083 16.3306 5.685C16.7769 6.71917 17 7.82417 17 9C17 10.1758 16.7769 11.2808 16.3306 12.315C15.8844 13.3492 15.2788 14.2488 14.5138 15.0138C13.7488 15.7788 12.8492 16.3844 11.815 16.8306C10.7808 17.2769 9.67583 17.5 8.5 17.5ZM8.5 15.8C10.3983 15.8 12.0063 15.1413 13.3238 13.8238C14.6413 12.5063 15.3 10.8983 15.3 9C15.3 7.10167 14.6413 5.49375 13.3238 4.17625C12.0063 2.85875 10.3983 2.2 8.5 2.2C6.60167 2.2 4.99375 2.85875 3.67625 4.17625C2.35875 5.49375 1.7 7.10167 1.7 9C1.7 10.8983 2.35875 12.5063 3.67625 13.8238C4.99375 15.1413 6.60167 15.8 8.5 15.8Z" fill="#ACF5FE"/>
</svg>