<svg width="12" height="18" viewBox="0 0 12 18" fill="none" xmlns="http://www.w3.org/2000/svg">
<path d="M4.28571 14.1C3.81429 14.1 3.41071 13.9335 3.075 13.6006C2.73929 13.2677 2.57143 12.8675 2.57143 12.4V11.3375C1.75714 10.785 1.125 10.0767 0.675 9.2125C0.225 8.34833 0 7.4275 0 6.45C0 4.7925 0.582143 3.38646 1.74643 2.23188C2.91071 1.07729 4.32857 0.5 6 0.5C7.67143 0.5 9.08929 1.07729 10.2536 2.23188C11.4179 3.38646 12 4.7925 12 6.45C12 7.4275 11.775 8.34479 11.325 9.20188C10.875 10.059 10.2429 10.7708 9.42857 11.3375V12.4C9.42857 12.8675 9.26071 13.2677 8.925 13.6006C8.58929 13.9335 8.18571 14.1 7.71429 14.1H4.28571ZM4.28571 12.4H7.71429V10.445L8.44286 9.935C9.02857 9.53833 9.48214 9.03188 9.80357 8.41563C10.125 7.79938 10.2857 7.14417 10.2857 6.45C10.2857 5.27417 9.86786 4.27188 9.03214 3.44313C8.19643 2.61438 7.18571 2.2 6 2.2C4.81429 2.2 3.80357 2.61438 2.96786 3.44313C2.13214 4.27188 1.71429 5.27417 1.71429 6.45C1.71429 7.14417 1.875 7.79938 2.19643 8.41563C2.51786 9.03188 2.97143 9.53833 3.55714 9.935L4.28571 10.445V12.4ZM4.28571 17.5C4.04286 17.5 3.83929 17.4185 3.675 17.2556C3.51071 17.0927 3.42857 16.8908 3.42857 16.65V15.8H8.57143V16.65C8.57143 16.8908 8.48929 17.0927 8.325 17.2556C8.16072 17.4185 7.95714 17.5 7.71429 17.5H4.28571Z" fill="#ACF5FE"/>
</svg>
