<svg width="27" height="32" viewBox="0 0 27 32" fill="#ACF5FE" xmlns="http://www.w3.org/2000/svg">
<path d="M13.125 31.3542C11.375 29.7014 9.36979 28.4375 7.10938 27.5625C4.84896 26.6875 2.47917 26.25 0 26.25V10.2083C2.45486 10.2083 4.8125 10.6519 7.07292 11.5391C9.33333 12.4262 11.3507 13.7083 13.125 15.3854C14.8993 13.7083 16.9167 12.4262 19.1771 11.5391C21.4375 10.6519 23.7951 10.2083 26.25 10.2083V26.25C23.7465 26.25 21.3707 26.6875 19.1224 27.5625C16.8741 28.4375 14.875 29.7014 13.125 31.3542ZM13.125 27.5625C14.6563 26.4201 16.2847 25.5087 18.0104 24.8281C19.7361 24.1476 21.5104 23.6979 23.3333 23.4792V13.4167C21.559 13.7326 19.8151 14.3707 18.1016 15.3307C16.388 16.2908 14.7292 17.5729 13.125 19.1771C11.5208 17.5729 9.86198 16.2908 8.14844 15.3307C6.4349 14.3707 4.69097 13.7326 2.91667 13.4167V23.4792C4.73958 23.6979 6.51389 24.1476 8.23958 24.8281C9.96528 25.5087 11.5938 26.4201 13.125 27.5625ZM13.125 11.6667C11.5208 11.6667 10.1476 11.0955 9.00521 9.95312C7.86285 8.81076 7.29167 7.4375 7.29167 5.83333C7.29167 4.22917 7.86285 2.8559 9.00521 1.71354C10.1476 0.571181 11.5208 0 13.125 0C14.7292 0 16.1024 0.571181 17.2448 1.71354C18.3872 2.8559 18.9583 4.22917 18.9583 5.83333C18.9583 7.4375 18.3872 8.81076 17.2448 9.95312C16.1024 11.0955 14.7292 11.6667 13.125 11.6667ZM13.125 8.75C13.9271 8.75 14.6137 8.46441 15.1849 7.89323C15.7561 7.32205 16.0417 6.63542 16.0417 5.83333C16.0417 5.03125 15.7561 4.34462 15.1849 3.77344C14.6137 3.20226 13.9271 2.91667 13.125 2.91667C12.3229 2.91667 11.6363 3.20226 11.0651 3.77344C10.4939 4.34462 10.2083 5.03125 10.2083 5.83333C10.2083 6.63542 10.4939 7.32205 11.0651 7.89323C11.6363 8.46441 12.3229 8.75 13.125 8.75Z" fill="#ACF5FE"/>
</svg>