<svg width="30" height="43" viewBox="0 0 30 43" fill="none" xmlns="http://www.w3.org/2000/svg">
<path d="M10.7143 34.357C9.53571 34.357 8.52679 33.9374 7.6875 33.0981C6.84821 32.2588 6.42857 31.2499 6.42857 30.0713V27.3927C4.39286 25.9999 2.8125 24.2141 1.6875 22.0356C0.5625 19.857 0 17.5356 0 15.0713C0 10.8927 1.45536 7.34807 4.36607 4.43736C7.27679 1.52665 10.8214 0.0712891 15 0.0712891C19.1786 0.0712891 22.7232 1.52665 25.6339 4.43736C28.5446 7.34807 30 10.8927 30 15.0713C30 17.5356 29.4375 19.8481 28.3125 22.0088C27.1875 24.1695 25.6071 25.9641 23.5714 27.3927V30.0713C23.5714 31.2499 23.1518 32.2588 22.3125 33.0981C21.4732 33.9374 20.4643 34.357 19.2857 34.357H10.7143ZM10.7143 30.0713H19.2857V25.1427L21.1071 23.857C22.5714 22.857 23.7054 21.5802 24.5089 20.0266C25.3125 18.4731 25.7143 16.8213 25.7143 15.0713C25.7143 12.107 24.6696 9.58022 22.5804 7.49093C20.4911 5.40165 17.9643 4.357 15 4.357C12.0357 4.357 9.50893 5.40165 7.41964 7.49093C5.33036 9.58022 4.28571 12.107 4.28571 15.0713C4.28571 16.8213 4.6875 18.4731 5.49107 20.0266C6.29464 21.5802 7.42857 22.857 8.89286 23.857L10.7143 25.1427V30.0713ZM10.7143 42.9284C10.1071 42.9284 9.59821 42.7231 9.1875 42.3124C8.77678 41.9016 8.57143 41.3927 8.57143 40.7856V38.6427H21.4286V40.7856C21.4286 41.3927 21.2232 41.9016 20.8125 42.3124C20.4018 42.7231 19.8929 42.9284 19.2857 42.9284H10.7143Z" fill="#E0E4DB"/>
</svg>