<svg width="38" height="38" viewBox="0 0 38 38" fill="none" xmlns="http://www.w3.org/2000/svg">
<path d="M19 37.1523C16.3281 37.1523 13.8555 36.6895 11.582 35.7637C9.32031 34.8496 7.35156 33.5605 5.67578 31.8965C4 30.2324 2.69336 28.2812 1.75586 26.043C0.830078 23.793 0.367188 21.3438 0.367188 18.6953C0.367188 16.0469 0.830078 13.6035 1.75586 11.3652C2.69336 9.11523 4 7.1582 5.67578 5.49414C7.35156 3.83008 9.32031 2.54102 11.582 1.62695C13.8555 0.701172 16.3281 0.238281 19 0.238281C21.6719 0.238281 24.1387 0.701172 26.4004 1.62695C28.6738 2.54102 30.6484 3.83008 32.3242 5.49414C34 7.1582 35.3008 9.11523 36.2266 11.3652C37.1641 13.6035 37.6328 16.0469 37.6328 18.6953C37.6328 21.3438 37.1641 23.793 36.2266 26.043C35.3008 28.2812 34 30.2324 32.3242 31.8965C30.6484 33.5605 28.6738 34.8496 26.4004 35.7637C24.1387 36.6895 21.6719 37.1523 19 37.1523ZM13.7266 30.0684V21.7715H12.3203V30.0684H13.7266ZM18.2969 31.123H19.7031V22.4922H18.2969V31.123ZM19 32.1602C20.5703 32.1602 22.1172 31.8906 23.6406 31.3516C25.1641 30.8242 26.541 30.1152 27.7715 29.2246C29.0137 28.3223 29.998 27.3145 30.7246 26.2012C31.4629 25.0879 31.832 23.9512 31.832 22.791C31.832 22.0293 31.6035 21.4375 31.1465 21.0156C30.7012 20.5938 30.0859 20.3828 29.3008 20.3828C28.7617 20.3828 27.9531 20.4941 26.875 20.7168C25.7969 20.9277 24.5664 21.1445 23.1836 21.3672C21.8125 21.5781 20.418 21.6836 19 21.6836C17.582 21.6836 16.1816 21.5781 14.7988 21.3672C13.4277 21.1445 12.2031 20.9277 11.125 20.7168C10.0469 20.4941 9.23828 20.3828 8.69922 20.3828C7.91406 20.3828 7.29297 20.5938 6.83594 21.0156C6.39062 21.4375 6.16797 22.0293 6.16797 22.791C6.16797 23.9512 6.53125 25.0879 7.25781 26.2012C7.99609 27.3145 8.98047 28.3223 10.2109 29.2246C11.4531 30.1152 12.8359 30.8242 14.3594 31.3516C15.8828 31.8906 17.4297 32.1602 19 32.1602ZM19 30.4023C17.6758 30.4023 16.3574 30.1797 15.0449 29.7344C13.7324 29.2773 12.5371 28.6797 11.459 27.9414C10.3926 27.2031 9.53711 26.3828 8.89258 25.4805C8.24805 24.5781 7.92578 23.6816 7.92578 22.791C7.92578 22.5449 7.97266 22.375 8.06641 22.2812C8.17188 22.1875 8.38281 22.1406 8.69922 22.1406C9.20312 22.1406 9.8418 22.2051 10.6152 22.334C11.3887 22.4629 12.2383 22.6152 13.1641 22.791C14.1016 22.9668 15.0684 23.1191 16.0645 23.248C17.0723 23.377 18.0508 23.4414 19 23.4414C19.9609 23.4414 20.9395 23.377 21.9355 23.248C22.9316 23.1191 23.8926 22.9668 24.8184 22.791C25.7559 22.6152 26.6113 22.4629 27.3848 22.334C28.1582 22.2051 28.7969 22.1406 29.3008 22.1406C29.6172 22.1406 29.8223 22.1875 29.916 22.2812C30.0215 22.375 30.0742 22.5449 30.0742 22.791C30.0742 23.6816 29.752 24.5781 29.1074 25.4805C28.4629 26.3828 27.6016 27.2031 26.5234 27.9414C25.457 28.6797 24.2676 29.2773 22.9551 29.7344C21.6426 30.1797 20.3242 30.4023 19 30.4023ZM19 27.502C23.1719 27.502 27.3496 26.4707 31.5332 24.4082L30.9004 23.1426C26.9043 25.123 22.9375 26.1133 19 26.1133C15.0625 26.1133 11.0957 25.123 7.09961 23.1426L6.4668 24.4082C10.6504 26.4707 14.8281 27.502 19 27.502ZM10.791 17.1484L8.89258 16.7969C9.12695 15.625 9.58398 14.7168 10.2637 14.0723C10.9434 13.416 11.7988 13.0879 12.8301 13.0879C13.873 13.0879 14.7344 13.416 15.4141 14.0723C16.0938 14.7168 16.5449 15.625 16.7676 16.7969L14.8691 17.1484C14.5879 15.7305 13.9082 15.0215 12.8301 15.0215C11.752 15.0215 11.0723 15.7305 10.791 17.1484ZM24.2734 30.0684H25.6797V21.7715H24.2734V30.0684ZM19 35.2188C21.3789 35.2188 23.5703 34.8027 25.5742 33.9707C27.5898 33.1504 29.3359 32.002 30.8125 30.5254C32.3008 29.0371 33.4551 27.2852 34.2754 25.2695C35.1074 23.2539 35.5234 21.0625 35.5234 18.6953C35.5234 16.3164 35.1074 14.125 34.2754 12.1211C33.4551 10.1055 32.3008 8.35938 30.8125 6.88281C29.3359 5.39453 27.5898 4.24023 25.5742 3.41992C23.5703 2.58789 21.3789 2.17188 19 2.17188C16.6328 2.17188 14.4414 2.58789 12.4258 3.41992C10.4219 4.24023 8.67578 5.39453 7.1875 6.88281C5.69922 8.35938 4.53906 10.1055 3.70703 12.1211C2.88672 14.125 2.47656 16.3164 2.47656 18.6953C2.47656 21.0625 2.88672 23.2539 3.70703 25.2695C4.53906 27.2852 5.69336 29.0371 7.16992 30.5254C8.6582 32.002 10.4102 33.1504 12.4258 33.9707C14.4414 34.8027 16.6328 35.2188 19 35.2188ZM23.1309 17.1484L21.2324 16.7969C21.4668 15.625 21.9238 14.7168 22.6035 14.0723C23.2832 13.416 24.1387 13.0879 25.1699 13.0879C26.2129 13.0879 27.0742 13.416 27.7539 14.0723C28.4336 14.7168 28.8848 15.625 29.1074 16.7969L27.209 17.1484C26.9277 15.7305 26.248 15.0215 25.1699 15.0215C24.0918 15.0215 23.4121 15.7305 23.1309 17.1484Z" fill="#C4C8C3"/>
</svg>