<svg width="15" height="16" viewBox="0 0 15 16" fill="none" xmlns="http://www.w3.org/2000/svg">
<path d="M5.41797 11.375C4.89297 11.375 4.44922 11.1938 4.08672 10.8313C3.72422 10.4688 3.54297 10.025 3.54297 9.5C3.54297 8.975 3.72422 8.53125 4.08672 8.16875C4.44922 7.80625 4.89297 7.625 5.41797 7.625C5.94297 7.625 6.38672 7.80625 6.74922 8.16875C7.11172 8.53125 7.29297 8.975 7.29297 9.5C7.29297 10.025 7.11172 10.4688 6.74922 10.8313C6.38672 11.1938 5.94297 11.375 5.41797 11.375ZM2.41797 15.5C2.00547 15.5 1.65234 15.3531 1.35859 15.0594C1.06484 14.7656 0.917969 14.4125 0.917969 14V3.5C0.917969 3.0875 1.06484 2.73438 1.35859 2.44063C1.65234 2.14688 2.00547 2 2.41797 2H3.16797V0.5H4.66797V2H10.668V0.5H12.168V2H12.918C13.3305 2 13.6836 2.14688 13.9773 2.44063C14.2711 2.73438 14.418 3.0875 14.418 3.5V14C14.418 14.4125 14.2711 14.7656 13.9773 15.0594C13.6836 15.3531 13.3305 15.5 12.918 15.5H2.41797ZM2.41797 14H12.918V6.5H2.41797V14Z" fill="#9CD49F"/>
</svg>