<svg width="32" height="36" viewBox="0 0 32 36" fill="none" xmlns="http://www.w3.org/2000/svg">
<path d="M19.8057 29.668C20.4128 29.668 20.981 29.9671 21.3242 30.4678C21.6675 30.9685 21.7414 31.6065 21.5225 32.1729C21.082 33.3116 20.3237 34.2433 19.2754 34.8711C18.2466 35.4868 17.0414 35.7499 15.7725 35.75C14.5034 35.75 13.2984 35.4868 12.2695 34.8711C11.221 34.2433 10.462 33.3118 10.0215 32.1729C9.80258 31.6065 9.87648 30.9685 10.2197 30.4678C10.5629 29.9671 11.1311 29.668 11.7383 29.668H19.8057ZM15.7725 0.25C19.3383 0.25 22.3833 1.26731 24.5332 3.43457C26.6806 5.59963 27.6855 8.66132 27.6855 12.2451C27.6856 13.6224 27.8868 14.3777 28.0859 14.8193C28.2745 15.2368 28.5161 15.5039 28.8975 15.8555C28.945 15.8991 28.9986 15.9471 29.0576 16L29.3721 16.2871C29.7155 16.6098 30.1282 17.039 30.458 17.5742C31.015 18.4783 31.2959 19.5656 31.2959 20.9707C31.2958 22.9441 30.1994 24.3791 28.8701 25.3359C27.7408 26.1489 26.3364 26.7076 24.9355 27.1025L24.3359 27.2617C21.1273 28.0675 17.5339 28.2217 15.7725 28.2217C14.0109 28.2217 10.4175 28.0672 7.20898 27.2617C5.61593 26.8617 3.96634 26.2649 2.67578 25.3359C1.3466 24.3791 0.250115 22.9441 0.25 20.9707C0.25 19.5655 0.530714 18.4783 1.08789 17.5742C1.52752 16.8609 2.11398 16.3359 2.48828 16C2.54769 15.9467 2.60127 15.899 2.64844 15.8555C3.02969 15.504 3.27055 15.2367 3.45898 14.8193C3.65827 14.3777 3.85934 13.6226 3.85938 12.2451C3.85938 8.66123 4.86508 5.59964 7.0127 3.43457C9.16247 1.2674 12.2068 0.250036 15.7725 0.25ZM15.7725 3.93164C13.0727 3.93167 11.1538 4.64407 9.87402 5.79199L9.62598 6.02734C8.34904 7.31477 7.54199 9.33105 7.54199 12.2451C7.54195 13.9666 7.29189 15.2775 6.81445 16.335C6.3262 17.4164 5.66486 18.0819 5.14355 18.5625C5.05523 18.6439 4.97487 18.717 4.90234 18.7832C4.51884 19.1332 4.36116 19.2795 4.22168 19.5059C4.10198 19.7002 3.93164 20.0786 3.93164 20.9707C3.93173 21.4 4.12335 21.8417 4.82617 22.3477C5.56989 22.883 6.70392 23.3382 8.10645 23.6904C10.8892 24.3892 14.1365 24.54 15.7725 24.54C17.4084 24.54 20.6564 24.3893 23.4395 23.6904C24.8416 23.3383 25.975 22.883 26.7188 22.3477C27.4217 21.8416 27.6132 21.4001 27.6133 20.9707C27.6133 20.0782 27.443 19.7001 27.3232 19.5059C27.2186 19.3361 27.1042 19.2111 26.8916 19.0117L26.6426 18.7832C26.5708 18.7176 26.4905 18.6438 26.4023 18.5625H26.4014C25.8802 18.082 25.2186 17.4163 24.7305 16.335C24.2529 15.2775 24.0039 13.9666 24.0039 12.2451C24.0039 9.51289 23.2935 7.57027 22.1523 6.27734L21.9189 6.02734C20.6441 4.74213 18.6523 3.93164 15.7725 3.93164Z" fill="#081730" stroke="#081730" stroke-width="0.5"/>
</svg>
