<svg width="47" height="48" viewBox="0 0 47 48" fill="none" xmlns="http://www.w3.org/2000/svg">
<path d="M44.25 29.75V20.284C44.25 17.636 43.593 15.03 42.337 12.699L38.751 6.038C37.774 4.224 36.196 2.902 34.148 2.68C32.072 2.455 28.688 2.25 23.25 2.25M23.25 2.25C17.812 2.25 14.428 2.455 12.352 2.68C10.304 2.902 8.726 4.224 7.749 6.038L4.163 12.698C2.90741 15.0294 2.2501 17.636 2.25 20.284V29.75M23.25 2.25V14.25M32.25 44.132C34.978 44.057 37.197 43.955 38.908 43.857C41.501 43.709 43.58 41.81 43.825 39.224C44.047 36.869 44.25 33.546 44.25 29.25C44.25 24.954 44.047 21.631 43.825 19.276C43.58 16.69 41.502 14.791 38.909 14.643C35.595 14.453 30.379 14.25 23.25 14.25M23.25 14.25C16.12 14.25 10.905 14.453 7.591 14.643C4.998 14.791 2.92 16.69 2.675 19.276C2.453 21.631 2.25 24.954 2.25 29.25C2.25 33.546 2.453 36.869 2.675 39.224C2.92 41.81 4.999 43.709 7.592 43.857C9.303 43.955 11.522 44.057 14.25 44.132M27.156 30.926L26.816 42.331C26.776 43.651 25.874 44.791 24.56 44.904C23.6883 44.9785 22.8117 44.9785 21.94 44.904C20.626 44.791 19.723 43.65 19.684 42.331L19.344 30.926C18.3724 30.9087 17.401 30.8801 16.43 30.84C14.373 30.752 13.573 28.802 15.023 27.34C15.7502 26.6098 16.4927 25.895 17.25 25.196C19.299 23.298 20.823 22.233 21.822 21.646C22.2532 21.3872 22.7466 21.2505 23.2495 21.2505C23.7524 21.2505 24.2458 21.3872 24.677 21.646C25.677 22.233 27.201 23.297 29.25 25.196C30.0066 25.8947 30.7484 26.6092 31.475 27.339C32.925 28.802 32.125 30.753 30.068 30.839C29.252 30.874 28.289 30.905 27.156 30.926Z" stroke="#B4FF5E" stroke-width="4.5" stroke-linecap="round" stroke-linejoin="round"/>
</svg>
