<svg width="31" height="43" viewBox="0 0 31 43" fill="none" xmlns="http://www.w3.org/2000/svg">
<path d="M9.55769 40.25H21.25M28.5573 15.4947C28.5737 13.1468 27.961 10.8373 26.7833 8.80602C25.6056 6.77478 23.9056 5.09579 21.8599 3.94337C19.8142 2.79094 17.4973 2.2071 15.1498 2.25245C12.8022 2.2978 10.5096 2.97069 8.50993 4.20127C6.51026 5.43183 4.87643 7.17524 3.77803 9.25045C2.67965 11.3257 2.15674 13.6571 2.26364 16.0026C2.37051 18.3482 3.10329 20.6224 4.38585 22.5891C5.66844 24.5558 7.45406 26.1434 9.55739 27.187V31.5717C9.55739 31.9593 9.71135 32.3311 9.98545 32.605C10.2595 32.8792 10.6313 33.0332 11.0189 33.0332H19.7882C20.1758 33.0332 20.5475 32.8792 20.8216 32.605C21.0957 32.3311 21.2497 31.9593 21.2497 31.5717V27.187C23.4346 26.1105 25.2762 24.446 26.567 22.3805C27.8578 20.315 28.5471 17.9304 28.5573 15.4947Z" stroke="#142204" stroke-width="4.5" stroke-linecap="round" stroke-linejoin="round"/>
</svg>