<svg width="33" height="29" viewBox="0 0 33 29" fill="none" xmlns="http://www.w3.org/2000/svg">
<path d="M3.2962 10.0215V23.1152M3.2962 23.1152C2.75351 23.1152 2.23305 23.333 1.84932 23.7207C1.46558 24.1084 1.25 24.6343 1.25 25.1826C1.25 25.7309 1.46558 26.2568 1.84932 26.6445C2.23305 27.0322 2.75351 27.25 3.2962 27.25C3.83888 27.25 4.35934 27.0322 4.74308 26.6445C5.12682 26.2568 5.3424 25.7309 5.3424 25.1826C5.3424 24.6343 5.12682 24.1084 4.74308 23.7207C4.35934 23.333 3.83888 23.1152 3.2962 23.1152ZM7.45817 11.486C7.41017 12.4134 7.38697 13.342 7.3886 14.2708C7.3886 16.403 7.49704 17.742 7.60345 18.5434C7.69689 19.2436 8.09385 19.839 8.71317 20.1663C9.91088 20.8004 12.3438 21.7369 16.2555 21.7369C20.1671 21.7369 22.6 20.801 23.7977 20.167C24.4171 19.8397 24.814 19.2443 24.9075 18.5448C25.0139 17.7426 25.1223 16.4037 25.1223 14.2721C25.124 13.3432 25.1008 12.4144 25.0527 11.4867M1.96753 9.02574C1.02492 8.56953 1.02492 7.33873 1.96753 6.88252C3.20344 6.28435 5.04979 5.43533 7.66142 4.33616C11.29 2.80903 13.7686 1.9035 15.0994 1.44453C15.8487 1.18516 16.6622 1.18516 17.4116 1.44453C18.7416 1.9035 21.2216 2.80903 24.8495 4.33616C27.4618 5.43533 29.3075 6.28435 30.5441 6.88252C31.4853 7.33873 31.4853 8.56953 30.5441 9.02574C29.3075 9.62391 27.4611 10.4729 24.8495 11.5721C21.2209 13.0992 18.7423 14.0048 17.4116 14.4637C16.6622 14.7231 15.8487 14.7231 15.0994 14.4637C13.7693 14.0048 11.2893 13.0992 7.66142 11.5721C5.04911 10.4722 3.20344 9.62391 1.96753 9.02574Z" stroke="#142204" stroke-width="2.5" stroke-linecap="round" stroke-linejoin="round"/>
</svg>