<svg width="17" height="20" viewBox="0 0 17 20" fill="none" xmlns="http://www.w3.org/2000/svg">
<path d="M3.5387 0.964272L3.33578 5.64447M5.5679 0.964272L5.77082 5.64447M11.9432 1.02341C13.5017 2.23686 15.6798 5.58235 15.899 10.7489C15.9217 11.2837 15.6733 11.7904 15.2098 12.0159C14.8791 12.1767 14.4318 12.3597 13.8685 12.5154C13.7691 12.5418 13.6823 12.6056 13.6247 12.6946C13.5671 12.7836 13.5427 12.8917 13.556 12.9983L14.0536 16.648C14.1916 17.6619 13.8129 18.5703 12.8706 18.8422C11.9899 19.0966 11.0467 18.4831 11.0467 17.5249V1.60503C11.0467 1.05873 11.5248 0.697926 11.9432 1.02341ZM7.7777 1.96754C7.96438 3.12397 8.22574 5.14454 8.20464 7.30211C8.19409 8.41557 7.48468 9.4133 6.36943 9.67539C6.13891 9.72943 5.89338 9.77836 5.63689 9.81623L6.38526 16.6153C6.49889 17.65 5.8877 18.6648 4.90313 18.8043C4.78726 18.8222 4.6704 18.8321 4.5533 18.8341C4.45468 18.8341 4.33496 18.8231 4.20306 18.8043C3.2189 18.6648 2.6077 17.65 2.72174 16.6153L3.46971 9.81623C3.22397 9.77967 2.97973 9.73283 2.73757 9.67582C1.62192 9.4133 0.912509 8.41514 0.901551 7.30168C0.880854 5.14454 1.1414 3.1244 1.32809 1.96796C1.42306 1.37868 1.91493 0.964272 2.48473 0.964272H6.62105C7.19126 0.964272 7.68273 1.37826 7.7777 1.96754Z" stroke="#142204" stroke-opacity="0.9" stroke-width="1.8" stroke-linecap="round" stroke-linejoin="round"/>
</svg>
