<svg width="18" height="18" viewBox="0 0 18 18" fill="none" xmlns="http://www.w3.org/2000/svg">
<path fill-rule="evenodd" clip-rule="evenodd" d="M4.92106 0.00578656C5.46523 -0.0528642 5.95387 0.340977 6.0125 0.885457C6.07111 1.42994 5.6775 1.91887 5.13335 1.97753C4.6792 2.02647 4.22854 2.07875 3.77743 2.13109L3.6849 2.14181C2.87326 2.23594 2.22452 2.88681 2.13382 3.69507C2.08014 4.17358 2.02655 4.65207 1.97681 5.13412C1.92059 5.67885 1.4337 6.07484 0.889283 6.0186C0.344872 5.96236 -0.0508928 5.47517 0.00531847 4.93044C0.0561044 4.43828 0.110659 3.9513 0.164234 3.47382C0.358328 1.74397 1.73276 0.371786 3.45671 0.171863L3.55097 0.160929C4.0004 0.10879 4.45862 0.0556309 4.92106 0.00578656ZM13.079 0.00578656C12.5348 -0.0528642 12.0461 0.340977 11.9875 0.885457C11.9289 1.42994 12.3225 1.91887 12.8667 1.97753C13.3208 2.02647 13.7715 2.07875 14.2226 2.13109L14.3151 2.14181C15.1268 2.23594 15.7755 2.88681 15.8662 3.69507C15.9199 4.17358 15.9735 4.65207 16.0233 5.13412C16.0794 5.67885 16.5663 6.07484 17.1107 6.0186C17.6551 5.96236 18.051 5.47517 17.9947 4.93044C17.9439 4.43828 17.8894 3.9513 17.8358 3.47382C17.6417 1.74397 16.2673 0.371786 14.5433 0.171863L14.4491 0.160929C13.9997 0.10879 13.5415 0.0556309 13.079 0.00578656ZM5.4253 4.89031C5.78576 4.85183 6.12778 4.82414 6.46497 4.82414C6.80216 4.82414 7.14419 4.85183 7.50464 4.89031C7.6755 4.90856 7.81906 5.05447 7.83608 5.22131C7.8726 5.5792 7.89871 5.92109 7.89871 6.25874C7.89871 6.59637 7.8726 6.93825 7.83608 7.29614C7.81906 7.46299 7.6755 7.60891 7.50464 7.62714C7.14419 7.66564 6.80216 7.69331 6.46497 7.69331C6.12778 7.69331 5.78576 7.66564 5.4253 7.62714C5.25445 7.60891 5.11088 7.46299 5.09387 7.29614C5.05734 6.93825 5.03124 6.59637 5.03124 6.25874C5.03124 5.92109 5.05734 5.5792 5.09387 5.22131C5.11088 5.05447 5.25445 4.90856 5.4253 4.89031ZM6.46497 2.841C6.02427 2.841 5.60174 2.87707 5.215 2.91837C4.1168 3.03563 3.23477 3.9163 3.12215 5.01988C3.08286 5.40489 3.04927 5.82308 3.04927 6.25874C3.04927 6.69438 3.08286 7.11257 3.12215 7.49759C3.23477 8.60116 4.1168 9.48183 5.215 9.5991C5.60174 9.64039 6.02427 9.67646 6.46497 9.67646C6.90568 9.67646 7.32819 9.64039 7.71494 9.5991C8.81315 9.48183 9.69518 8.60116 9.80779 7.49759C9.84709 7.11257 9.88068 6.69438 9.88068 6.25874C9.88068 5.82308 9.84709 5.40489 9.80779 5.01988C9.69518 3.9163 8.81315 3.03563 7.71494 2.91837C7.32819 2.87707 6.90568 2.841 6.46497 2.841ZM11.9875 17.1145C12.0461 17.6589 12.5348 18.0528 13.079 17.9942C13.5415 17.9444 13.9997 17.8912 14.4491 17.839L14.5433 17.8282C16.2673 17.6281 17.6417 16.2561 17.8358 14.5261C17.8894 14.0487 17.9439 13.5616 17.9947 13.0696C18.051 12.5248 17.6551 12.0376 17.1107 11.9814C16.5663 11.9251 16.0794 12.3211 16.0233 12.8659C15.9735 13.3479 15.9199 13.8265 15.8662 14.3049C15.7755 15.1131 15.1268 15.764 14.3151 15.8581L14.2226 15.869C13.7719 15.9212 13.3204 15.9735 12.8667 16.0225C12.3225 16.0812 11.9289 16.5701 11.9875 17.1145ZM6.0125 17.1145C5.95387 17.6589 5.46523 18.0528 4.92106 17.9942C4.45862 17.9444 4.0004 17.8912 3.55097 17.839L3.45671 17.8282C1.73276 17.6281 0.358328 16.2561 0.164234 14.5261C0.110659 14.0487 0.0561044 13.5616 0.00531847 13.0696C-0.0508928 12.5248 0.344872 12.0376 0.889283 11.9814C1.4337 11.9251 1.92059 12.3211 1.97681 12.8659C2.02655 13.3479 2.08014 13.8265 2.13382 14.3049C2.22452 15.1131 2.87326 15.764 3.6849 15.8581L3.77743 15.869C4.22843 15.9213 4.67932 15.9735 5.13335 16.0225C5.6775 16.0812 6.07111 16.5701 6.0125 17.1145ZM5.47398 11.7025C5.47398 11.1549 5.03031 10.711 4.483 10.711C3.9357 10.711 3.49201 11.1549 3.49201 11.7025V13.7228C3.49201 14.2704 3.9357 14.7144 4.483 14.7144H6.46497C7.01228 14.7144 7.45595 14.2704 7.45595 13.7228C7.45595 13.1752 7.01228 12.7313 6.46497 12.7313H5.47398V11.7025ZM13.8624 14.7144C13.3151 14.7144 12.8714 14.2704 12.8714 13.7228V12.6941H11.8804C11.3331 12.6941 10.8894 12.2501 10.8894 11.7025C10.8894 11.1548 11.3331 10.7109 11.8804 10.7109H13.8624C14.4097 10.7109 14.8534 11.1549 14.8534 11.7025V13.7228C14.8534 14.2704 14.4097 14.7144 13.8624 14.7144ZM13.9421 9.67646C14.4894 9.67646 14.9331 9.23251 14.9331 8.68488C14.9331 8.13726 14.4894 7.69331 13.9421 7.69331H11.9601C11.4128 7.69331 10.9691 8.13726 10.9691 8.68488C10.9691 9.23251 11.4128 9.67646 11.9601 9.67646H13.9421ZM9.31147 14.6957C8.76417 14.6957 8.32048 14.2519 8.32048 13.7042V11.7211C8.32048 11.1734 8.76417 10.7295 9.31147 10.7295C9.85878 10.7295 10.3025 11.1734 10.3025 11.7211V13.7042C10.3025 14.2519 9.85878 14.6957 9.31147 14.6957ZM12.8714 5.65845C12.8714 6.20608 13.3151 6.65002 13.8624 6.65002C14.4097 6.65002 14.8534 6.20608 14.8534 5.65845V4.23843C14.8534 3.69079 14.4097 3.24686 13.8624 3.24686H11.8804C11.3331 3.24686 10.8894 3.69079 10.8894 4.23843C10.8894 4.78605 11.3331 5.23 11.8804 5.23H12.8714V5.65845Z" fill="#142204" fill-opacity="0.9"/>
</svg>