<svg width="20" height="20" viewBox="0 0 20 20" fill="none" xmlns="http://www.w3.org/2000/svg">
<path d="M16.2283 6.26008C16.0783 5.84008 15.5664 4.73136 13.9773 3.16879C12.2933 1.51278 11.1272 1.04649 10.764 0.932494C10.0401 0.910227 9.31593 0.899369 8.59168 0.899922C5.91511 0.899922 4.07689 1.03707 2.93089 1.16864C1.99042 1.27664 1.28581 1.98421 1.1824 2.92793C1.04567 4.1665 0.900391 6.24551 0.900391 9.47138C0.900391 12.6972 1.0461 14.7763 1.1824 16.0148C1.28581 16.9585 1.99042 17.6661 2.93089 17.7741C3.74189 17.8671 4.89943 17.9627 6.45521 18.0111M16.2343 6.45337C15.3425 6.58665 13.7384 6.48423 12.5211 6.37151C12.0571 6.32996 11.6222 6.12668 11.2921 5.79699C10.962 5.46729 10.7574 5.03202 10.714 4.56679C10.5995 3.36593 10.4978 1.79564 10.6371 0.929065M17.1376 14.2962C17.1376 14.2962 16.9354 13.3928 15.7224 12.1765C14.5097 10.9598 13.609 10.7571 13.609 10.7571M3.89145 5.18565L5.60062 6.89994L7.73709 3.89993M3.89145 9.89995L5.60062 11.6142L7.73709 8.61423M18.2763 13.1537C18.8976 12.531 19.1352 11.6207 18.6156 10.9101C18.386 10.599 18.1332 10.3058 17.8593 10.0332C17.5431 9.71609 17.2482 9.46838 16.9846 9.27466C16.2766 8.75352 15.369 8.9918 14.7477 9.61452L9.4749 14.9031C9.24287 15.1363 9.08392 15.4315 9.05657 15.7603C9.0194 16.2064 8.99205 16.9645 9.06384 18.0865C9.07662 18.2861 9.16144 18.4742 9.30244 18.6157C9.44345 18.7571 9.63098 18.8422 9.82998 18.855C10.9482 18.927 11.7045 18.8995 12.1493 18.8618C12.4766 18.8344 12.7715 18.6754 13.0039 18.4418L18.2763 13.1537Z" stroke="#142204" stroke-opacity="0.9" stroke-width="1.8" stroke-linecap="round" stroke-linejoin="round"/>
</svg>
