<svg width="95" height="96" viewBox="0 0 95 96" fill="none" xmlns="http://www.w3.org/2000/svg">
<path d="M47.3398 1C54.6786 0.995537 62.0322 1.1667 67.7666 1.51562C70.6313 1.68994 73.1098 1.90928 74.9863 2.17676C75.9228 2.31024 76.7311 2.45945 77.3711 2.62598C77.9571 2.77847 78.5725 2.98529 78.9707 3.32227L78.9717 3.32324C83.8598 7.46801 87.9782 15.2821 90.6465 24.0391C93.3239 32.826 94.5973 42.744 93.6523 51.2363C91.4272 71.1848 76.8052 85.8981 52.5117 93.1924C51.2608 93.5679 50.055 93.9096 49.1172 94.1582C48.6493 94.2822 48.2415 94.3848 47.9258 94.457C47.7686 94.493 47.6261 94.5231 47.5068 94.5449C47.4124 94.5622 47.2581 94.5889 47.1152 94.5889C46.9874 94.5889 46.8712 94.5667 46.8213 94.5566C46.7518 94.5426 46.677 94.5235 46.6025 94.5039C46.4526 94.4644 46.2653 94.4093 46.0518 94.3428C45.6224 94.2091 45.0499 94.0183 44.3779 93.7861C43.0315 93.321 41.2611 92.681 39.3916 91.9775V91.9766C23.451 85.9837 12.5226 78.004 6.51074 67.4307C0.493661 56.8478 -0.498439 43.8443 3.05859 28.0234V28.0225C4.08584 23.462 6.02037 18.4435 8.30859 14.0146C10.5882 9.60258 13.2669 5.68122 15.8262 3.37988H15.8271C16.0455 3.18382 16.3116 3.0469 16.5518 2.94629C16.8043 2.84051 17.0956 2.74705 17.4111 2.66309C18.0425 2.49512 18.8426 2.34563 19.7705 2.21094C21.6302 1.94101 24.0943 1.71883 26.9473 1.54102C32.6587 1.18504 40.001 1.00446 47.3398 1ZM47.5693 9.43457C41.1883 9.43279 34.8081 9.49672 29.8916 9.62695C27.4321 9.6921 25.3476 9.77374 23.8154 9.87109C23.0481 9.91985 22.4313 9.97207 21.9805 10.0264C21.7543 10.0536 21.5819 10.0794 21.46 10.1035C21.3994 10.1155 21.3632 10.1242 21.3457 10.1289C21.0023 10.3061 20.4248 10.8159 19.6719 11.7178C18.9333 12.6025 18.1102 13.7584 17.2852 15.0664C15.6322 17.6869 14.0188 20.8389 13.0752 23.4971C8.63337 36.0313 8.0591 47.1991 11.0781 56.5693C14.092 65.9235 20.7232 73.6016 30.9189 79.1123C33.5773 80.5491 38.2562 82.6889 41.29 83.8584C42.8105 84.4421 44.3096 84.9724 45.4951 85.3545C46.0888 85.5459 46.596 85.6972 46.9834 85.7998C47.4025 85.9108 47.5739 85.9338 47.5811 85.9355C47.5434 85.9355 47.5734 85.9382 47.7246 85.9072C47.8539 85.8807 48.0278 85.8389 48.2451 85.7812C48.679 85.6662 49.2516 85.4968 49.9258 85.2842C51.2728 84.8594 52.9942 84.2717 54.7598 83.625C67.3358 79.0055 76.0094 72.3389 80.8906 63.7637C85.6169 55.4606 86.8647 45.2332 84.4756 33.0615L84.2334 31.8779C83.2428 27.2374 81.3917 22.1651 79.3506 18.0332C78.3305 15.9683 77.2737 14.1597 76.2676 12.7676C75.255 11.3666 74.3698 10.4966 73.7031 10.1396C73.6859 10.1351 73.6533 10.1275 73.6025 10.1172C73.485 10.0934 73.3175 10.0673 73.0947 10.04C72.6504 9.98563 72.0397 9.93294 71.2773 9.88379C69.7556 9.78567 67.6794 9.7032 65.2266 9.63672C60.3238 9.50383 53.9503 9.43635 47.5693 9.43457ZM35.583 34.126C36.6902 33.4742 38.2284 33.1686 40.1152 33.2949C44.2716 33.573 47.1935 34.2566 48.9756 36.6289C49.847 37.789 50.3818 39.271 50.7256 41.1016C51.0693 42.9316 51.2348 45.1837 51.3184 47.9355L51.5312 54.9756C55.1562 55.6734 57.4014 56.2314 58.7441 56.918C59.4981 57.3035 60.0659 57.7754 60.416 58.418C60.7584 59.0466 60.8232 59.7162 60.8232 60.3408C60.8232 61.0516 60.7295 61.7435 60.4238 62.3418C60.0994 62.9766 59.5812 63.4194 58.9082 63.6826C58.2701 63.9322 57.5101 64.0152 56.6631 64.0049C55.8073 63.9944 54.7903 63.8872 53.5996 63.7061V63.7051C50.9988 63.3125 48.0901 63.2019 45.4043 63.4053H45.4033C43.6401 63.5371 41.5502 63.7062 40.0977 63.834L38.8926 63.9453C37.985 64.0354 37.2381 64.0668 36.6191 63.9258C35.9067 63.7633 35.4356 63.3931 35.041 62.8975L35.0391 62.8955C34.4232 62.1168 34.0278 61.2821 33.9609 60.4189C33.8923 59.5319 34.1794 58.7182 34.7393 58.0352C35.8053 56.7347 37.833 55.9241 40.3877 55.5361L41.0254 55.4375C41.5981 55.3454 41.9864 55.2685 42.2803 55.1621C42.5949 55.0481 42.702 54.936 42.791 54.7539C42.922 54.4858 43.0305 54.0036 43.0859 53.0498C43.1401 52.1176 43.1406 50.8722 43.1406 49.1533C43.1406 47.1558 43.1368 45.6947 43.0713 44.5986C43.0044 43.4798 42.8771 42.8829 42.71 42.5391C42.5864 42.2851 42.434 42.1447 42.0664 42.0215C41.6153 41.8704 40.9714 41.7909 39.9141 41.6787C38.0226 41.4779 36.5189 40.9075 35.4629 40.0986C34.4101 39.2922 33.7573 38.2021 33.7627 37.0273C33.7683 35.8281 34.4587 34.788 35.583 34.126ZM42.7998 21.4531C43.6949 19.7961 45.5098 18.5718 47.6494 19.2598L47.8574 19.332L47.8594 19.333C49.523 19.9631 50.3716 21.8195 50.5986 23.4404C50.8267 25.069 50.5178 27.085 49.1318 28.1924L49.1289 28.1943C48.7548 28.491 48.2262 28.6819 47.7656 28.7998C47.2742 28.9256 46.714 29.0049 46.1885 29.0049C45.5462 29.0049 44.9416 28.9133 44.3955 28.6582C43.8354 28.3965 43.4056 27.9953 43.0693 27.4893C41.7663 25.5275 41.8801 23.156 42.7998 21.4531Z" fill="#C9FF8A" stroke="#C9FF8A" stroke-width="2"/>
</svg>