<svg width="23" height="26" viewBox="0 0 23 26" fill="none" xmlns="http://www.w3.org/2000/svg">
<path d="M14.4053 21.2627C14.8646 21.2628 15.2951 21.4874 15.5557 21.8643C15.8164 22.2415 15.8725 22.7223 15.7061 23.1494C15.3832 23.9773 14.8268 24.6556 14.0576 25.1123V25.1133C13.3035 25.5608 12.4229 25.7499 11.5 25.75C10.577 25.75 9.69561 25.5609 8.94141 25.1133V25.1123C8.17228 24.6556 7.61579 23.9773 7.29297 23.1494C7.12655 22.7223 7.18259 22.2415 7.44336 21.8643C7.70396 21.4872 8.13527 21.2627 8.59473 21.2627H14.4053ZM11.5 0.25C14.0806 0.25001 16.2932 0.980174 17.8584 2.54492L18.1416 2.8457C19.5099 4.38577 20.1503 6.47622 20.1504 8.88867C20.1504 9.8662 20.2946 10.3949 20.4326 10.6982C20.5625 10.9833 20.7271 11.1664 20.999 11.415L21.1143 11.5176L21.3418 11.7236C21.5913 11.9561 21.8936 12.2677 22.1357 12.6572C22.5457 13.317 22.75 14.108 22.75 15.1221C22.7499 16.5624 21.9423 17.6062 20.9736 18.2979C20.0338 18.9689 18.8356 19.3979 17.6846 19.6846C15.3657 20.2621 12.771 20.3721 11.5 20.3721C10.229 20.3721 7.63428 20.2619 5.31543 19.6846C4.16447 19.3979 2.96621 18.9689 2.02637 18.2979C1.05777 17.6062 0.250135 16.5624 0.25 15.1221C0.25 14.1081 0.454281 13.317 0.864258 12.6572C1.18699 12.1379 1.61656 11.7571 1.88574 11.5176C1.9286 11.4794 1.96647 11.4457 2 11.415C2.27209 11.1663 2.43758 10.9834 2.56738 10.6982C2.70544 10.395 2.84961 9.8662 2.84961 8.88867C2.84969 6.31542 3.57793 4.10828 5.1416 2.54492C6.70672 0.980179 8.91938 0.25 11.5 0.25ZM11.5 3.02246C9.43836 3.02246 8.02358 3.59773 7.12207 4.49902C6.21926 5.40164 5.64168 6.82093 5.6416 8.88867C5.6416 10.1253 5.46076 11.0733 5.11133 11.8408C4.75383 12.6261 4.26968 13.1094 3.8916 13.4551H3.89062C3.82717 13.5131 3.76981 13.5652 3.71777 13.6123C3.43953 13.8642 3.33442 13.9627 3.24023 14.1143C3.16264 14.2392 3.04199 14.4952 3.04199 15.1221C3.0421 15.3982 3.16219 15.6941 3.65625 16.0469C4.18156 16.4219 4.98849 16.7444 5.99512 16.9951C7.99153 17.4923 10.3241 17.5996 11.5 17.5996C12.6759 17.5996 15.0084 17.4923 17.0049 16.9951C18.0114 16.7444 18.8184 16.4219 19.3438 16.0469C19.8378 15.6941 19.9579 15.3982 19.958 15.1221C19.958 14.4951 19.8374 14.2392 19.7598 14.1143V14.1133C19.6657 13.962 19.5602 13.8638 19.2822 13.6123C19.2307 13.5655 19.172 13.5133 19.1084 13.4551C18.7304 13.1094 18.2461 12.6261 17.8887 11.8408C17.5392 11.0732 17.3584 10.1253 17.3584 8.88867C17.3583 6.82092 16.7808 5.40164 15.8779 4.49902C14.9764 3.59771 13.5617 3.02247 11.5 3.02246Z" fill="#B4FF5E" stroke="#B4FF5E" stroke-width="0.5"/>
</svg>
