<svg width="13" height="14" viewBox="0 0 13 14" fill="none" xmlns="http://www.w3.org/2000/svg">
<path d="M7.5785 3.13546C5.52516 3.72682 5.38226 3.74602 3.63542 4.75018M7.5785 10.0647C5.5261 9.47338 5.3832 9.45418 3.63636 8.45098M9.58858 4.70506C10.8757 4.70506 11.5996 3.96586 11.5996 2.65258C11.5996 1.3393 10.8757 0.600098 9.58764 0.600098C8.30149 0.600098 7.57756 1.3393 7.57756 2.65258C7.57756 3.96682 8.30149 4.70506 9.58764 4.70506H9.58858ZM9.58858 12.6001C10.8757 12.6001 11.5996 11.8609 11.5996 10.5476C11.5996 9.23338 10.8757 8.49514 9.58858 8.49514C8.30243 8.49514 7.5785 9.23434 7.5785 10.5476C7.5785 11.8609 8.30243 12.6001 9.58858 12.6001ZM2.61063 8.65258C3.89679 8.65258 4.62072 7.91338 4.62072 6.6001C4.62072 5.28682 3.89679 4.54762 2.61063 4.54762C1.32354 4.54762 0.599609 5.28682 0.599609 6.6001C0.599609 7.91338 1.32354 8.65258 2.61063 8.65258Z" stroke="#B4FF5E" stroke-width="1.2" stroke-linecap="round" stroke-linejoin="round"/>
</svg>
