<svg width="18" height="18" viewBox="0 0 18 18" fill="none" xmlns="http://www.w3.org/2000/svg">
<path d="M6.95563 3.07945C5.83509 3.13088 4.73772 3.25175 3.66741 3.37519C3.06414 3.44622 2.50255 3.71848 2.0736 4.14788C1.64465 4.57729 1.37347 5.13868 1.30396 5.74115C1.14941 7.12729 1 8.561 1 10.0269C1 11.494 1.14941 12.9277 1.30396 14.3152C1.44307 15.5496 2.43095 16.5358 3.66741 16.6785C5.06358 16.8393 6.50612 17 7.98215 17C9.45947 17 10.902 16.8393 12.2982 16.6785C12.9008 16.6074 13.4618 16.3353 13.8905 15.9065C14.3191 15.4776 14.5904 14.917 14.6603 14.3152C14.7827 13.2981 14.8737 12.2775 14.9334 11.2548M13.0328 1.65586L8.28663 7.03069L7.63749 10.0846C7.53187 10.5758 8.04578 11.0412 8.5262 10.8895L11.5684 9.93542L16.4705 4.78561C17.2858 3.93052 17.1428 2.49938 16.1575 1.62886C15.1954 0.780202 13.7966 0.791775 13.0328 1.65586Z" stroke="#142204" stroke-width="2" stroke-linecap="round" stroke-linejoin="round"/>
</svg>