<svg width="16" height="16" viewBox="0 0 16 16" fill="none" xmlns="http://www.w3.org/2000/svg">
<path d="M11.9766 0.21875C13.1858 0.0312375 14.1391 0.226807 14.7441 0.804688C15.3507 1.38424 15.5679 2.31001 15.3916 3.48828C15.2557 4.40031 14.7037 6.11992 14.0332 7.87988C13.3614 9.64331 12.5628 11.4682 11.9258 12.5918C11.2924 13.7085 10.5797 14.4574 9.75391 14.8223C8.92381 15.1889 8.00278 15.1567 6.97656 14.7627C6.78929 14.6908 6.65573 14.64 6.5498 14.6074C6.44421 14.575 6.37864 14.5652 6.32812 14.5684C6.28124 14.5714 6.2346 14.5861 6.16699 14.625C6.09522 14.6664 6.01041 14.7286 5.88477 14.8213C5.61245 15.0218 5.25091 15.2481 5.07715 15.3203C4.90201 15.3931 4.61162 15.4502 4.41797 15.4502C4.17521 15.4501 3.90449 15.3589 3.63477 15.2021C3.26281 14.9858 3.01971 14.802 2.88086 14.4531C2.74985 14.1238 2.7169 13.657 2.69434 12.9004C2.67438 12.231 2.66364 11.9302 2.57129 11.6719C2.47949 11.4152 2.3048 11.1949 1.90918 10.7021C0.837561 9.36611 0.24484 8.2107 0.161133 7.1748C0.0763652 6.12557 0.51589 5.22732 1.43652 4.41699L1.58789 4.29199C1.97295 3.99512 2.57699 3.6477 3.30273 3.28516C4.13683 2.8685 5.14485 2.42526 6.19434 2.00781C8.28976 1.17433 10.5687 0.436909 11.9766 0.21875ZM12.8545 1.50098C12.4928 1.48947 12.044 1.54404 11.499 1.66406C10.4089 1.90418 8.95966 2.40165 7.09961 3.12891C5.61581 3.70905 4.45943 4.20583 3.58887 4.66797C2.71593 5.13137 2.14481 5.55335 1.81641 5.97852C1.49502 6.39465 1.40265 6.81831 1.5 7.31055C1.59965 7.81396 1.89828 8.39398 2.37891 9.10645H2.37988C2.42763 9.17731 2.47128 9.24404 2.51172 9.30566C2.55231 9.36751 2.58928 9.42397 2.62402 9.47559C2.69439 9.58013 2.75135 9.65857 2.80371 9.71484C2.85555 9.77056 2.89434 9.79527 2.92578 9.80566C2.95402 9.81492 2.99133 9.81755 3.05078 9.79785C3.18379 9.75373 3.37767 9.61782 3.70215 9.33691C4.02094 9.06093 4.4443 8.66521 5.0332 8.12598C6.30387 6.96294 7.62647 5.813 8.67578 4.94434C9.20025 4.51016 9.65747 4.14494 10.0068 3.88379C10.1813 3.75341 10.3303 3.64731 10.4482 3.57129C10.5072 3.53333 10.5608 3.50144 10.6064 3.47754C10.6486 3.45549 10.6959 3.43455 10.7402 3.42578L10.8213 3.41309C11.0085 3.39528 11.1809 3.44771 11.3037 3.56934C11.4259 3.69049 11.4802 3.8623 11.4678 4.05078L11.459 4.13281C11.4309 4.30255 11.3185 4.45152 11.0352 4.71777C10.7452 4.99021 10.2431 5.41309 9.37793 6.12988C8.5604 6.80723 7.42036 7.80038 6.50488 8.62793L5.68457 9.38281L4.01465 10.9502C4.01007 12.3542 4.00922 13.0521 4.03711 13.4316C4.05127 13.6241 4.07265 13.7185 4.09668 13.7764C4.11856 13.8289 4.14516 13.8593 4.20605 13.9238C4.29064 14.0134 4.34869 14.0591 4.3916 14.0811C4.4271 14.0992 4.45133 14.1014 4.48047 14.0947L4.55762 14.0547C4.60648 14.0265 4.66884 13.987 4.74023 13.9385C4.88277 13.8416 5.05705 13.7124 5.22754 13.5752L5.48926 13.3682C5.5692 13.3076 5.64325 13.2558 5.71289 13.2129C5.85518 13.1252 5.99035 13.0695 6.14258 13.0576C6.29271 13.046 6.44491 13.0784 6.61816 13.1387C6.79041 13.1987 6.99668 13.2913 7.25586 13.4102C7.81964 13.6684 8.29525 13.7741 8.72656 13.7129C9.15439 13.6521 9.56152 13.4235 9.9834 12.9648C10.8372 12.0366 11.7108 10.2147 12.8887 7.14844C13.5045 5.54497 13.8987 4.31057 14.0322 3.40527C14.1671 2.49044 14.0269 1.97477 13.666 1.7207C13.48 1.58974 13.2164 1.5125 12.8545 1.50098Z" fill="#142204" stroke="#142204" stroke-width="0.3"/>
</svg>