<svg width="14" height="14" viewBox="0 0 14 14" fill="none" xmlns="http://www.w3.org/2000/svg">
<path d="M4.99288 3.34009C4.27695 3.36416 3.57283 3.43231 2.8835 3.50915C1.72504 3.63827 0.792842 4.57047 0.668841 5.72949C0.577301 6.58509 0.5 7.46351 0.5 8.35906C0.5 9.2546 0.577301 10.133 0.668841 10.9886C0.792842 12.1476 1.72504 13.0798 2.8835 13.2089M2.8835 13.2089C3.74396 13.3048 4.62744 13.3872 5.5282 13.3872C6.42896 13.3872 7.31244 13.3048 8.17291 13.2089M2.8835 13.2089C2.74902 13.1939 2.61772 13.168 2.49024 13.1323C2.63799 12.4469 3.03378 11.7742 3.57557 11.3314C4.12661 10.881 4.81642 10.635 5.52811 10.635C6.23981 10.635 6.92962 10.881 7.48066 11.3314C8.0317 11.7818 8.4101 12.4089 8.55172 13.1063C8.55172 13.1063 8.55134 13.1175 8.55111 13.1365C8.42844 13.1701 8.302 13.1945 8.17291 13.2089M8.17291 13.2089C9.33137 13.0798 10.2636 12.1476 10.3876 10.9886C10.4662 10.2535 10.5344 9.50171 10.552 8.7366M8.79732 2.15967C9.28769 1.66929 9.3636 1.21944 9.71983 0.766135C9.99867 0.411288 10.5267 0.411288 10.8055 0.766135C11.1618 1.21944 11.2377 1.66929 11.728 2.15967C12.2184 2.65004 12.6683 2.72594 13.1216 3.08217C13.4764 3.36103 13.4764 3.88898 13.1216 4.16783C12.6683 4.52407 12.2184 4.59998 11.7281 5.09034C11.2377 5.58072 11.1618 6.03056 10.8056 6.48387C10.5267 6.83872 9.99877 6.83872 9.71987 6.48387C9.36364 6.03056 9.28773 5.58072 8.79736 5.09034C8.30699 4.59997 7.85714 4.52407 7.40383 4.16783C7.04899 3.88898 7.04899 3.36103 7.40383 3.08217C7.85714 2.72594 8.30696 2.65003 8.79732 2.15967ZM5.52109 9.05976C6.55584 9.05976 7.13788 8.47771 7.13788 7.44297C7.13788 6.40822 6.55584 5.82618 5.52109 5.82618C4.48635 5.82618 3.9043 6.40822 3.9043 7.44297C3.9043 8.47771 4.48635 9.05976 5.52109 9.05976Z" stroke="#142204" stroke-linecap="round" stroke-linejoin="round"/>
</svg>