<svg width="65" height="65" viewBox="0 0 65 65" fill="none" xmlns="http://www.w3.org/2000/svg">
<path d="M11.2548 64.4936C8.20981 64.4705 1.54637 65.2462 0.605746 55.3739C0.0464445 51.5686 1.87624 37.0558 2.11962 36.5797C2.26584 35.056 3.54505 32.0965 5.16962 28.015C6.37315 24.5354 11.1508 15.5597 17.34 11.2957C23.5292 7.03176 30.1968 4.31836 38.638 2.17609C45.6597 0.852651 54.8412 0.171307 55.3722 0.656156C60.2726 2.68565 64.0221 4.41666 64.5 11.2957C64.3032 15.6452 63.9505 18.9125 56.8935 21.9353C53.4367 23.1861 50.7578 23.1926 46.2445 23.4552C38.9542 23.9155 35.1856 25.1131 29.5103 29.535C23.9905 34.2434 23.8056 37.4053 23.4698 42.5396C23.6694 39.8438 23.4119 48.3944 21.9038 55.3739C19.516 61.6511 17.3873 63.9782 11.2548 64.4936Z" fill="#CEFF97" fill-opacity="0.9" stroke="#CEFF97" stroke-opacity="0.9" stroke-linejoin="round"/>
</svg>