<svg width="29" height="29" viewBox="0 0 29 29" fill="none" xmlns="http://www.w3.org/2000/svg">
<path d="M11.1779 4.87886C9.35701 4.96244 7.5738 5.15885 5.83454 5.35944C4.85423 5.47486 3.94165 5.91729 3.2446 6.61507C2.54756 7.31285 2.10688 8.22512 1.99394 9.20412C1.74278 11.4566 1.5 13.7864 1.5 16.1684C1.5 18.5525 1.74278 20.8823 1.99394 23.1369C2.21998 25.1428 3.82529 26.7454 5.83454 26.9774C8.10332 27.2386 10.4475 27.4998 12.846 27.4998C15.2466 27.4998 17.5908 27.2386 19.8595 26.9774C20.8389 26.8617 21.7505 26.4197 22.447 25.7228C23.1436 25.0259 23.5843 24.1148 23.6981 23.1369C23.8969 21.4841 24.0448 19.8257 24.1418 18.1639M21.0534 2.56553L13.3408 11.2996L12.2859 16.2622C12.1143 17.0604 12.9494 17.8168 13.7301 17.5702L18.6737 16.0198L26.6395 7.65137C27.9644 6.26185 27.732 3.93624 26.1309 2.52165C24.5675 1.14258 22.2945 1.16139 21.0534 2.56553Z" stroke="#142204" stroke-width="3" stroke-linecap="round" stroke-linejoin="round"/>
</svg>