<svg width="35" height="42" viewBox="0 0 35 42" fill="none" xmlns="http://www.w3.org/2000/svg">
<path d="M17.5 42C15.1667 39.786 12.4931 38.093 9.47917 36.9209C6.46528 35.7488 3.30556 35.1628 0 35.1628V13.6744C3.27315 13.6744 6.41667 14.2686 9.43056 15.457C12.4444 16.6453 15.1343 18.3628 17.5 20.6093C19.8657 18.3628 22.5556 16.6453 25.5694 15.457C28.5833 14.2686 31.7269 13.6744 35 13.6744V35.1628C31.662 35.1628 28.4942 35.7488 25.4965 36.9209C22.4988 38.093 19.8333 39.786 17.5 42ZM17.5 36.9209C19.5417 35.3907 21.713 34.1698 24.0139 33.2581C26.3148 32.3465 28.6806 31.7442 31.1111 31.4512V17.9721C28.7454 18.3953 26.4201 19.25 24.1354 20.536C21.8507 21.8221 19.6389 23.5395 17.5 25.6884C15.3611 23.5395 13.1493 21.8221 10.8646 20.536C8.57986 19.25 6.25463 18.3953 3.88889 17.9721V31.4512C6.31944 31.7442 8.68519 32.3465 10.9861 33.2581C13.287 34.1698 15.4583 35.3907 17.5 36.9209ZM17.5 15.6279C15.3611 15.6279 13.5301 14.8628 12.0069 13.3326C10.4838 11.8023 9.72222 9.96279 9.72222 7.81395C9.72222 5.66512 10.4838 3.82558 12.0069 2.29535C13.5301 0.765116 15.3611 0 17.5 0C19.6389 0 21.4699 0.765116 22.9931 2.29535C24.5162 3.82558 25.2778 5.66512 25.2778 7.81395C25.2778 9.96279 24.5162 11.8023 22.9931 13.3326C21.4699 14.8628 19.6389 15.6279 17.5 15.6279ZM17.5 11.7209C18.5694 11.7209 19.485 11.3384 20.2465 10.5733C21.0081 9.80814 21.3889 8.88837 21.3889 7.81395C21.3889 6.73953 21.0081 5.81977 20.2465 5.05465C19.485 4.28954 18.5694 3.90698 17.5 3.90698C16.4306 3.90698 15.515 4.28954 14.7535 5.05465C13.9919 5.81977 13.6111 6.73953 13.6111 7.81395C13.6111 8.88837 13.9919 9.80814 14.7535 10.5733C15.515 11.3384 16.4306 11.7209 17.5 11.7209Z" fill="#C4C8C3"/>
</svg>