<svg width="420" height="363" viewBox="0 0 420 363" fill="none" xmlns="http://www.w3.org/2000/svg">
<path d="M0.0839844 362.75L210.001 0.166504L419.917 362.75H0.0839844ZM65.9215 324.583H354.08L210.001 76.4998L65.9215 324.583ZM210.001 305.5C215.408 305.5 219.94 303.671 223.598 300.013C227.255 296.356 229.084 291.823 229.084 286.417C229.084 281.01 227.255 276.477 223.598 272.82C219.94 269.162 215.408 267.333 210.001 267.333C204.594 267.333 200.061 269.162 196.404 272.82C192.746 276.477 190.917 281.01 190.917 286.417C190.917 291.823 192.746 296.356 196.404 300.013C200.061 303.671 204.594 305.5 210.001 305.5ZM190.917 248.25H229.084V152.833H190.917V248.25Z" fill="white"/>
</svg>