<svg width="35" height="27" viewBox="0 0 35 27" fill="none" xmlns="http://www.w3.org/2000/svg">
<path d="M1.88563 6.30253H32.6027M17.2442 1.25V6.30253M1.38345 18.8075L7.91339 6.30253L13.893 18.8075M1.38345 18.8075H1.38601C0.559208 23.4887 3.61812 25.2495 7.91594 25.2495C12.2138 25.2495 14.7198 23.4887 13.893 18.8075M1.38345 18.8075C0.556648 23.4887 3.61312 25.25 7.91095 25.25C12.2088 25.25 14.7172 23.4887 13.893 18.8075M1.38345 18.8075H13.893M20.5816 18.8075L27.1116 6.30253L33.0911 18.8075M20.5816 18.8075C19.7548 23.4887 22.8163 25.2495 27.1141 25.2495C31.4119 25.2495 33.9179 23.4887 33.0911 18.8075M20.5816 18.8075C19.7548 23.4887 22.8113 25.25 27.1091 25.25C31.4069 25.25 33.9154 23.4887 33.0911 18.8075M20.5816 18.8075H33.0911" stroke="#142204" stroke-width="2.5" stroke-linecap="round" stroke-linejoin="round"/>
</svg>