<svg width="35" height="34" viewBox="0 0 35 34" fill="none" xmlns="http://www.w3.org/2000/svg">
<path d="M11.8572 24.7745C11.0538 24.7606 10.265 24.5564 9.55588 24.1786C7.10006 22.9077 5.04618 20.9792 3.62377 18.6086C2.20136 16.238 1.46645 13.5188 1.50118 10.7547L1.57892 4.01949C4.82395 2.32248 8.43972 1.45731 12.1018 1.50162C15.7638 1.54593 19.3576 2.49833 22.5606 4.27335L22.4984 9.43619M24.3284 19.8131C25.1551 19.4452 26.2902 19.624 26.8915 19.9245M19.0716 18.4324C18.5377 17.6397 17.4726 17.3703 16.8117 17.4739M20.7156 32.3746C19.9322 32.5519 19.1178 32.541 18.3394 32.3429C17.5609 32.1448 16.8405 31.765 16.2373 31.2348C14.142 29.4293 12.5903 27.0768 11.756 24.4404C10.9216 21.8039 10.8374 18.9874 11.5128 16.3058L13.1481 9.77263C16.698 8.87294 20.4158 8.86824 23.9679 9.75893C27.52 10.6496 30.7953 12.4079 33.5 14.8759L31.8673 21.3884C31.2084 24.0724 29.817 26.5209 27.8481 28.4611C25.8791 30.4013 23.41 31.7544 20.7156 32.3746Z" stroke="#142204" stroke-width="3" stroke-linecap="round" stroke-linejoin="round"/>
</svg>