<svg width="21" height="35" viewBox="0 0 21 35" fill="none" xmlns="http://www.w3.org/2000/svg">
<path d="M1.64501 11.1472L3.52253 3.26184C3.70845 2.48104 4.24801 1.86376 5.0118 1.7459C5.82354 1.62064 7.11463 1.5 9.07667 1.5C10.4805 1.5 11.4387 1.54077 12.1357 1.60644C13.4945 1.73447 14.2561 3.26056 13.8945 4.63121L12.6105 9.49749C12.6105 9.49749 13.404 9.44373 14.5038 9.42819C17.4175 9.38705 18.8808 12.3511 17.6956 15.1247L13.9451 23.9H19.498C18.2695 27.74 11.7923 32.8413 7.87785 33.5C4.19234 31.58 2.51322 26.1743 2.29051 23.9H6.64935L8.62444 17.5H6.41446C3.2212 17.5 0.876138 14.3764 1.64501 11.1472Z" stroke="#142204" stroke-width="3" stroke-linecap="round" stroke-linejoin="round"/>
</svg>