<svg width="75" height="75" viewBox="0 0 75 75" fill="none" xmlns="http://www.w3.org/2000/svg">
<path d="M37.4995 33.2384C37.4995 31.3836 39.0118 30.2465 41.6721 28.4691C44.1448 26.8131 45.4474 24.6769 44.8678 21.7623C44.5612 20.313 43.8404 18.984 42.793 17.9365C41.7456 16.889 40.4167 16.1681 38.9676 15.8614C37.8804 15.6585 36.7619 15.6958 35.6906 15.9708C34.6194 16.2459 33.6212 16.7519 32.7661 17.4535C31.911 18.1551 31.2198 19.0353 30.7407 20.0323C30.2617 21.0293 30.0066 22.119 29.9931 23.2251M37.5068 46.0886V44.7086M13.986 57.085C9.05164 56.6213 4.9066 53.0112 4.2222 48.1094C2.57431 36.3898 2.5929 24.4959 4.27739 12.7814C4.93972 8.19985 8.68185 4.73881 13.285 4.25857C21.3306 3.41794 29.4146 2.99784 37.504 3.00001C45.7885 3.00001 53.7751 3.46921 61.5574 4.26961C63.8335 4.48505 65.972 5.45664 67.6316 7.02941C69.2912 8.60218 70.3764 10.6855 70.714 12.947C71.5627 18.8543 71.9925 24.8142 72 30.7822C72 36.8321 71.4867 42.7109 70.6809 48.4241C70.3445 50.7292 69.2448 52.8548 67.5578 54.461C65.8707 56.0672 63.6938 57.0611 61.3752 57.2837C53.249 58.1345 45.084 58.5619 36.9134 58.5643C31.1236 65.2214 26.686 68.5169 18.9313 72V57.5376L15.1781 57.1954L13.986 57.085Z" stroke="#B4FF5E" stroke-width="6" stroke-linecap="round" stroke-linejoin="round"/>
</svg>
