<svg width="14" height="14" viewBox="0 0 14 14" fill="none" xmlns="http://www.w3.org/2000/svg">
<path d="M10.1695 11.3972C9.97892 10.6795 9.56677 10.0382 8.98911 9.56603C8.35724 9.04956 7.56625 8.76743 6.75016 8.76743C5.93408 8.76743 5.1431 9.04956 4.51122 9.56603C3.93358 10.0382 3.5214 10.6795 3.33083 11.3972M6.75 12.75C10.59 12.75 12.75 10.59 12.75 6.75C12.75 2.91 10.59 0.75 6.75 0.75C2.91 0.75 0.75 2.91 0.75 6.75C0.75 10.59 2.91 12.75 6.75 12.75ZM6.7491 7.28546C8.04141 7.28546 8.76833 6.55853 8.76833 5.26623C8.76833 3.97392 8.04141 3.247 6.7491 3.247C5.45679 3.247 4.72987 3.97392 4.72987 5.26623C4.72987 6.55853 5.45679 7.28546 6.7491 7.28546Z" stroke="#142204" stroke-width="1.5" stroke-linecap="round" stroke-linejoin="round"/>
</svg>