<svg width="12" height="14" viewBox="0 0 12 14" fill="none" xmlns="http://www.w3.org/2000/svg">
<path d="M0.765711 5.60435L0.017414 5.55383L0.0174139 5.55383L0.765711 5.60435ZM1.72831 9.33409L1.11959 9.77223L1.11959 9.77223L1.72831 9.33409ZM5.05634 12.5282L4.62438 13.1413L4.62446 13.1414L5.05634 12.5282ZM6.44365 12.5282L6.87554 13.1413L6.87561 13.1413L6.44365 12.5282ZM9.77167 9.33409L10.3804 9.77223L10.3804 9.77223L9.77167 9.33409ZM10.7343 5.60435L11.4826 5.55384L11.4826 5.55382L10.7343 5.60435ZM5.69308 0.75V0C2.67139 0 0.226194 2.46127 0.017414 5.55383L0.765711 5.60435L1.51401 5.65487C1.67453 3.27705 3.53142 1.5 5.69308 1.5V0.75ZM0.765711 5.60435L0.0174139 5.55383C-0.0792863 6.98626 0.219684 8.52195 1.11959 9.77223L1.72831 9.33409L2.33703 8.89595C1.68708 7.99296 1.43491 6.82659 1.51401 5.65487L0.765711 5.60435ZM1.72831 9.33409L1.11959 9.77223C2.10022 11.1346 3.10427 12.0703 4.62438 13.1413L5.05634 12.5282L5.4883 11.9151C4.07308 10.918 3.19983 10.0947 2.33702 8.89595L1.72831 9.33409ZM5.05634 12.5282L4.62446 13.1414C5.30337 13.6195 6.19663 13.6196 6.87554 13.1413L6.44365 12.5282L6.01176 11.915C5.8509 12.0283 5.6491 12.0283 5.48822 11.915L5.05634 12.5282ZM6.44365 12.5282L6.87561 13.1413C8.39574 12.0703 9.39975 11.1346 10.3804 9.77223L9.77167 9.33409L9.16295 8.89595C8.30013 10.0947 7.42692 10.918 6.01169 11.9151L6.44365 12.5282ZM9.77167 9.33409L10.3804 9.77223C11.2803 8.52196 11.5793 6.98626 11.4826 5.55384L10.7343 5.60435L9.986 5.65486C10.0651 6.82659 9.81291 7.99296 9.16295 8.89595L9.77167 9.33409ZM10.7343 5.60435L11.4826 5.55382C11.2738 2.46128 8.82861 0 5.80692 0V0.75V1.5C7.96857 1.5 9.82544 3.27705 9.986 5.65488L10.7343 5.60435ZM5.80692 0.75V0H5.69308V0.75V1.5H5.80692V0.75ZM5.75077 6.28846V7.03846C6.3283 7.03846 6.88435 6.87079 7.29408 6.45467C7.70212 6.04027 7.86414 5.48185 7.86414 4.90385H7.11414H6.36414C6.36414 5.212 6.28074 5.34589 6.22524 5.40225C6.17143 5.4569 6.0458 5.53846 5.75077 5.53846V6.28846ZM7.11414 4.90385H7.86414C7.86414 4.32585 7.70212 3.76742 7.29408 3.35302C6.88435 2.9369 6.3283 2.76923 5.75077 2.76923V3.51923V4.26923C6.0458 4.26923 6.17143 4.35079 6.22524 4.40544C6.28074 4.46181 6.36414 4.59569 6.36414 4.90385H7.11414ZM5.75077 3.51923V2.76923C5.17325 2.76923 4.61719 2.9369 4.20747 3.35302C3.79942 3.76742 3.63741 4.32585 3.63741 4.90385H4.38741H5.13741C5.13741 4.59569 5.2208 4.46181 5.2763 4.40544C5.33012 4.35079 5.45575 4.26923 5.75077 4.26923V3.51923ZM4.38741 4.90385H3.63741C3.63741 5.48185 3.79942 6.04027 4.20747 6.45467C4.61719 6.87079 5.17325 7.03846 5.75077 7.03846V6.28846V5.53846C5.45575 5.53846 5.33012 5.4569 5.2763 5.40225C5.2208 5.34589 5.13741 5.212 5.13741 4.90385H4.38741Z" fill="#142204"/>
</svg>