<svg width="77" height="76" viewBox="0 0 77 76" fill="none" xmlns="http://www.w3.org/2000/svg">
<path d="M21.3863 21.166V26.7792M55.5364 21.166V26.7792M38.4613 29.5858V36.6023C38.4613 39.7024 35.9131 42.2155 32.7697 42.2155H29.9238M28.7066 56.6075C31.3391 59.074 34.8313 60.4486 38.4621 60.4486C42.0929 60.4486 45.5851 59.074 48.2176 56.6075M55.6142 4.00024C57.7247 4.22447 59.8164 4.46484 61.8876 4.70155C67.3487 5.32579 71.7063 9.62039 72.3198 15.0084C72.5509 17.0378 72.7837 19.0874 73 21.1555M55.6142 72.0002C57.7247 71.7763 59.8164 71.536 61.8876 71.2992C67.3487 70.675 71.7063 66.3803 72.3198 60.9922C72.5509 58.963 72.7837 56.9131 73 54.8452M21.3861 4.00024C19.2753 4.22447 17.1836 4.46484 15.1125 4.70155C9.65137 5.32579 5.29382 9.62039 4.68049 15.0084C4.44946 17.0378 4.21652 19.0874 4 21.1555M21.3861 72.0002C19.2753 71.7763 17.1836 71.536 15.1125 71.2992C9.65137 70.675 5.29382 66.3803 4.68049 60.9922C4.44946 58.963 4.21652 56.9131 4 54.8452" stroke="#B4FF5E" stroke-width="8" stroke-linecap="round" stroke-linejoin="round"/>
</svg>
