<svg width="72" height="72" viewBox="0 0 72 72" fill="none" xmlns="http://www.w3.org/2000/svg">
<path d="M28.0234 8.08521C33.9939 2.58347 40.7131 0.169439 47.2969 0.867432C54.0864 1.58724 60.601 5.60237 65.9023 12.678C69.9389 18.063 71.7178 23.5728 71.1455 29.0676C70.5741 34.5532 67.671 39.9104 62.5674 45.0237C58.8681 48.7277 55.3228 51.1917 51.5547 52.4788C47.7767 53.769 43.8376 53.8544 39.3916 52.9055V52.9045C38.6369 52.7443 38.1999 52.6587 37.7881 52.6848C37.4169 52.7084 37.0141 52.8304 36.4004 53.2278C35.1035 54.0678 33.1527 55.9306 29.0762 59.8333L29.0752 59.8323C25.1913 63.5515 21.2072 67.2952 19.5088 68.8235L18.9277 69.3362C17.9139 70.2001 17.2723 70.7599 15.9707 71.0188C14.7879 71.254 13.016 71.2502 9.71973 71.2502C6.423 71.2502 4.66082 71.2536 3.6543 71.0823C3.12079 70.9914 2.69382 70.8375 2.34473 70.5364C2.10318 70.328 1.93217 70.0725 1.79297 69.8372L1.66309 69.6106C1.4664 69.2656 1.32749 68.7964 1.2207 68.3C1.11038 67.7872 1.0216 67.1796 0.952148 66.5178C0.813145 65.1932 0.746372 63.6062 0.75 62.0315C0.753641 60.4568 0.827545 58.8766 0.972656 57.5667C1.04514 56.9123 1.13695 56.3135 1.25 55.8108C1.35878 55.3271 1.50196 54.863 1.70801 54.5266C1.85133 54.2924 2.2436 53.8181 2.75488 53.2258C3.29093 52.6048 4.01461 51.7897 4.87207 50.8401C6.58754 48.9403 8.84884 46.4906 11.2412 43.9475C14.1544 40.8507 16.3133 38.492 17.7354 36.8528C18.4477 36.0317 18.9659 35.4016 19.2998 34.9543C19.4671 34.7303 19.5756 34.5673 19.6387 34.4583C19.5646 34.0025 19.3265 32.9153 19.0527 31.8538C17.0081 23.9869 20.0934 15.7044 27.4482 8.6272L28.0234 8.08521ZM57.7002 12.8831C53.1272 8.53119 48.6692 6.55741 44.2969 6.76782C39.9154 6.97878 35.4396 9.39092 30.8555 14.2014C27.9385 17.264 26.1551 20.0177 25.332 22.7756C24.5136 25.5181 24.6244 28.3364 25.624 31.5735L25.8604 32.3674C26.0845 33.1498 26.27 33.89 26.4004 34.5129C26.487 34.927 26.5514 35.3014 26.5859 35.6067C26.6031 35.7586 26.6146 35.905 26.6152 36.0374C26.6158 36.1541 26.6089 36.3232 26.5576 36.4866L26.5566 36.4905C26.5108 36.6339 26.4242 36.7592 26.3916 36.8069C26.34 36.8822 26.2753 36.9687 26.2031 37.0608C26.0578 37.2462 25.858 37.4868 25.6133 37.7717C25.1223 38.3435 24.4314 39.1181 23.5938 40.0383C21.9173 41.88 19.6387 44.3179 17.1631 46.9084C11.9807 52.3298 9.44927 54.9869 8.19434 56.7942C7.58466 57.6722 7.30981 58.3063 7.17383 58.927C7.0325 59.5723 7.02967 60.2452 7.03516 61.2698C7.04049 62.057 7.06289 62.8632 7.09473 63.5256C7.12758 64.2091 7.16854 64.6782 7.2002 64.8391L7.22559 64.9456C7.23515 64.9481 7.24555 64.9525 7.25781 64.9553C7.41443 64.9913 7.68049 65.0188 8.14648 65.0344C8.60267 65.0497 9.20397 65.053 10.0107 65.053C11.2339 65.053 12.0523 65.0539 12.8027 64.9153C13.5203 64.7828 14.1975 64.5162 15.0791 63.9329C16.9084 62.7224 19.4687 60.2585 24.7979 55.1331C27.6448 52.3951 29.7022 50.3828 31.2432 48.9407C32.7735 47.5085 33.8531 46.5808 34.7432 46.0491C35.6875 45.4849 36.4634 45.3393 37.3398 45.4856C37.7421 45.5528 38.1505 45.6787 38.5723 45.8196C39.0095 45.9657 39.461 46.1282 40.0234 46.304H40.0244C43.3023 47.3294 46.1542 47.4701 48.8984 46.7014C51.4824 45.9775 54.0356 44.4294 56.7959 41.928L57.3506 41.4143C62.4743 36.5807 64.9606 31.779 65.0166 27.0911C65.0725 22.4071 62.704 17.6454 57.7002 12.884V12.8831ZM49.6377 14.3059C51.7368 14.306 53.7498 15.1402 55.2383 16.6252C56.7265 18.1101 57.5701 20.125 57.585 22.2307V22.2415C57.5701 24.3474 56.7267 26.3629 55.2383 27.8479C53.7499 29.3328 51.7367 30.1671 49.6377 30.1672C47.5385 30.1672 45.5247 29.333 44.0361 27.8479C42.5477 26.3629 41.7052 24.3474 41.6904 22.2415L41.6895 22.2307H41.6904C41.7053 20.125 42.548 18.1101 44.0361 16.6252C45.5247 15.1402 47.5385 14.3059 49.6377 14.3059ZM49.6377 19.2737C49.4313 19.2737 48.9441 19.3597 48.418 19.5227C48.166 19.6008 47.9307 19.6893 47.7412 19.7776C47.6468 19.8216 47.5703 19.8618 47.5127 19.8977C47.4844 19.9154 47.4636 19.931 47.4482 19.9426C47.4347 19.953 47.4281 19.959 47.4268 19.9602C47.4267 19.9602 47.4207 19.9657 47.4102 19.9797C47.3987 19.995 47.3839 20.0171 47.3662 20.0461C47.3302 20.1052 47.2894 20.184 47.2451 20.2815C47.1564 20.4769 47.0678 20.7198 46.9893 20.9797C46.8253 21.5226 46.7373 22.0265 46.7373 22.2366C46.7374 22.4401 46.8223 22.898 46.9844 23.3958C47.0618 23.6336 47.1487 23.856 47.2363 24.0364C47.3306 24.2304 47.4014 24.3243 47.4268 24.3499C47.4284 24.3514 47.4352 24.3575 47.4482 24.3674C47.4635 24.379 47.4846 24.3939 47.5127 24.4114C47.5703 24.4473 47.6468 24.4885 47.7412 24.5325C47.9307 24.6208 48.1661 24.7083 48.418 24.7864C48.9441 24.9494 49.4313 25.0364 49.6377 25.0364C49.859 25.0363 50.4597 24.9438 51.0977 24.7776C51.4058 24.6973 51.6947 24.6061 51.9238 24.5149C52.1837 24.4114 52.2695 24.345 52.2646 24.3499C52.2901 24.3243 52.3598 24.2304 52.4541 24.0364C52.5418 23.856 52.6286 23.6336 52.7061 23.3958C52.8681 22.898 52.954 22.4401 52.9541 22.2366C52.9541 22.2381 52.9541 22.229 52.9512 22.2083C52.9482 22.1872 52.9422 22.1588 52.9336 22.1223C52.916 22.0479 52.8882 21.9544 52.8486 21.844C52.7693 21.6227 52.6548 21.3629 52.5225 21.0999C52.3131 20.6838 52.0943 20.3281 51.9404 20.1184L51.8105 19.9602L51.8086 19.9592C51.8076 19.9583 51.8066 19.956 51.8047 19.9543C51.8007 19.9509 51.7947 19.9465 51.7871 19.9407C51.7716 19.9287 51.7497 19.9135 51.7217 19.8958C51.6648 19.8599 51.5903 19.8193 51.498 19.7756C51.3121 19.6876 51.0808 19.5995 50.834 19.5217C50.3187 19.3593 49.8428 19.2738 49.6377 19.2737Z" fill="#B4FF5E" stroke="#B4FF5E" stroke-width="1.5"/>
</svg>
