<svg width="79" height="79" viewBox="0 0 79 79" fill="none" xmlns="http://www.w3.org/2000/svg">
<path d="M30.1328 9.40454C36.8521 2.93533 44.4755 0.0884657 51.9346 0.87915C59.3871 1.66926 66.5453 6.07691 72.375 13.8577C76.8123 19.7772 78.7626 25.8268 78.1348 31.8557C77.5274 37.6874 74.5191 43.393 69.2285 48.8567L68.709 49.385C64.6392 53.4601 60.7434 56.1668 56.6074 57.5793C52.4619 58.9951 48.1383 59.0891 43.252 58.0461V58.0452C42.423 57.8691 41.9302 57.7714 41.4639 57.801C41.0384 57.8281 40.5828 57.9697 39.8994 58.4124C38.8222 59.1101 37.3404 60.4419 34.7744 62.8762L31.8213 65.6956C26.9315 70.3781 21.8988 75.0923 20.6465 76.1604C19.5293 77.1123 18.8361 77.7164 17.4238 77.9973C16.1304 78.2546 14.189 78.2502 10.5537 78.2502C6.91736 78.2502 4.98513 78.2531 3.88477 78.0657C3.30453 77.9668 2.85033 77.8007 2.48047 77.4817C2.22337 77.2598 2.04036 76.9881 1.88867 76.7317L1.74609 76.4827C1.5354 76.1131 1.38382 75.6056 1.2666 75.0608C1.14584 74.4994 1.04801 73.8331 0.97168 73.1057C0.818926 71.65 0.745996 69.9047 0.75 68.1721C0.754005 66.4396 0.834693 64.7023 0.994141 63.2629C1.0738 62.5439 1.17514 61.8872 1.29883 61.3372C1.41824 60.8062 1.57385 60.3059 1.79395 59.9465C1.94747 59.6954 2.37479 59.178 2.94043 58.5227C3.53033 57.8393 4.32627 56.9424 5.27051 55.8967C7.15964 53.8047 9.65024 51.1068 12.2852 48.3059C15.494 44.8948 17.8721 42.2962 19.4395 40.4895C20.2246 39.5845 20.7975 38.8887 21.167 38.3938C21.353 38.1447 21.4754 37.962 21.5469 37.8381C21.5521 37.829 21.5552 37.8196 21.5596 37.8118C21.4812 37.3165 21.2126 36.0983 20.9072 34.9143C18.664 26.2837 22.0449 17.1871 30.1328 9.40454ZM63.4541 13.9836C58.4081 9.18153 53.4793 6.99291 48.6357 7.22583C43.7829 7.45937 38.836 10.1315 33.7793 15.4377C30.5618 18.8158 28.588 21.8588 27.6768 24.9124C26.7701 27.9505 26.8943 31.0707 27.999 34.6477C28.363 35.8238 28.6607 36.9662 28.8516 37.8782C28.9467 38.3328 29.018 38.7416 29.0557 39.0745C29.0744 39.2405 29.0863 39.3999 29.0869 39.5422C29.0875 39.6687 29.0802 39.8446 29.0273 40.0129L29.0264 40.0168C28.9796 40.1631 28.8899 40.2927 28.8535 40.3459C28.7981 40.427 28.7284 40.5206 28.6494 40.6213C28.4904 40.8242 28.2711 41.0881 28.002 41.4016C27.4619 42.0305 26.7016 42.8835 25.7793 43.8967C23.9333 45.9247 21.4237 48.6101 18.6973 51.4631C12.9921 57.4314 10.1981 60.3637 8.81152 62.3606C8.13601 63.3334 7.82727 64.0406 7.6748 64.7366C7.51699 65.4571 7.51448 66.2073 7.52051 67.3342L7.54199 68.6292C7.55324 69.0512 7.56838 69.4562 7.58594 69.8215C7.62227 70.5774 7.66781 71.1026 7.7041 71.2834C7.72014 71.3615 7.73451 71.4106 7.74316 71.4407C7.76236 71.4471 7.78824 71.4586 7.8252 71.467C8.00537 71.5084 8.30459 71.5387 8.81836 71.5559C9.32227 71.5728 9.98578 71.5764 10.874 71.5764C12.2189 71.5764 13.128 71.5773 13.9629 71.4231C14.765 71.275 15.5209 70.9776 16.499 70.3303C18.5213 68.9922 21.3476 66.2712 27.2139 60.6292C30.3505 57.6126 32.6157 55.3968 34.3125 53.8088C35.9987 52.2309 37.183 51.215 38.1553 50.634C39.1817 50.0209 40.0177 49.8649 40.9629 50.0227C41.3998 50.0957 41.8451 50.2328 42.3096 50.3879C42.7892 50.5482 43.2888 50.7273 43.9092 50.9211H43.9102C47.5314 52.054 50.6877 52.2121 53.7275 51.3606C56.7792 50.5057 59.7866 48.6134 63.0684 45.5198C68.7205 40.1878 71.474 34.8804 71.5361 29.6887C71.5981 24.5009 68.9747 19.2367 63.4541 13.9836ZM54.5205 15.6809C56.8125 15.6809 59.0114 16.5916 60.6367 18.2131C62.2617 19.8344 63.182 22.0349 63.1982 24.3342V24.345C63.1821 26.6446 62.2619 28.8456 60.6367 30.467C59.0114 32.0886 56.8125 32.9993 54.5205 32.9993C52.2287 32.9992 50.0305 32.0884 48.4053 30.467C46.7801 28.8456 45.8599 26.6446 45.8438 24.345V24.3342C45.86 22.0348 46.7802 19.8345 48.4053 18.2131C50.0305 16.5917 52.2286 15.681 54.5205 15.6809ZM54.5205 21.0002C54.2815 21.0003 53.7368 21.0984 53.1553 21.2786C52.8756 21.3652 52.613 21.4637 52.4004 21.5627C52.1709 21.6697 52.0606 21.75 52.0312 21.7795C52.0039 21.8072 51.924 21.9178 51.8164 22.1545C51.7168 22.3738 51.6185 22.6452 51.5312 22.9338C51.35 23.5339 51.25 24.0974 51.25 24.3401C51.25 24.5762 51.347 25.0899 51.5264 25.6409C51.6124 25.9051 51.7093 26.1532 51.8076 26.3557C51.9124 26.5714 51.9942 26.6836 52.0312 26.7209C52.0606 26.7505 52.1709 26.8308 52.4004 26.9377C52.613 27.0368 52.8756 27.1353 53.1553 27.2219C53.7368 27.4021 54.2815 27.5002 54.5205 27.5002C54.774 27.5002 55.4438 27.3957 56.1484 27.2122C56.4895 27.1233 56.8111 27.0231 57.0674 26.9211C57.1954 26.8702 57.2976 26.8222 57.373 26.7805C57.4536 26.736 57.4761 26.7136 57.4688 26.7209C57.5058 26.6836 57.5876 26.5714 57.6924 26.3557C57.7907 26.1532 57.8876 25.9051 57.9736 25.6409C58.153 25.0899 58.25 24.5762 58.25 24.3401C58.25 24.2995 58.2263 24.1513 58.1299 23.8821C58.0412 23.6347 57.9133 23.3465 57.7666 23.0549C57.4585 22.4427 57.1281 21.9399 56.9688 21.7795C56.9371 21.7477 56.8269 21.667 56.6025 21.5608C56.3938 21.462 56.1365 21.364 55.8623 21.2776C55.2917 21.0977 54.7579 21.0002 54.5205 21.0002Z" fill="#142204" stroke="#142204" stroke-width="1.5"/>
</svg>
