<svg width="80" height="80" viewBox="0 0 80 80" fill="none" xmlns="http://www.w3.org/2000/svg">
<path d="M4.85254 53.8701C5.38839 53.8701 5.97175 53.9194 6.50781 54.1895C7.07916 54.4773 7.46994 54.9483 7.75391 55.542C8.02582 56.1105 8.22254 56.839 8.39648 57.7295C8.57249 58.6306 8.73756 59.7648 8.9209 61.1768H8.91992C9.46915 65.3878 10.1638 67.5575 11.5547 68.8721C12.9579 70.1982 15.2658 70.8424 19.6885 71.3223C21.1828 71.4843 22.4577 71.7206 23.4922 72.0352C24.5106 72.3448 25.3789 72.7552 25.9814 73.3174C26.6241 73.9171 26.9712 74.7064 26.8271 75.6104C26.6957 76.4344 26.179 77.194 25.4961 77.8799C24.5703 78.8096 23.4622 79 21.7021 79C20.375 79 17.4965 78.6794 15.2881 78.2959V78.2949C10.7122 77.5034 7.37576 75.9434 5.10645 72.9707C3.00878 70.2228 1.93067 66.4025 1.43457 61.2539L1.34277 60.207C1.25825 59.1402 1.22336 58.2349 1.26367 57.4795C1.30353 56.7327 1.41947 56.0564 1.68945 55.4912C1.9772 54.8889 2.42247 54.4508 3.01953 54.1865C3.57687 53.9399 4.20958 53.8701 4.85254 53.8701ZM73.5635 54.1768C74.1337 53.9237 74.7473 53.9029 75.3271 53.9521H75.3291C76.0118 54.0117 76.7126 54.1134 77.2949 54.4248C77.9552 54.7779 78.3658 55.3417 78.5752 56.0859C78.7674 56.769 78.7968 57.6223 78.748 58.6436C78.6985 59.6821 78.5616 60.9938 78.3662 62.6377C77.7813 67.5859 76.5792 71.2357 74.2441 73.8018C71.8943 76.3841 68.5397 77.7155 64.0098 78.3506H64.0088C61.5056 78.7003 58.6537 79 57.6768 79C56.4333 79 55.3119 78.6825 54.5127 77.8799C53.8594 77.2238 53.4181 76.4694 53.3389 75.6455C53.2571 74.7951 53.5773 74.0319 54.1338 73.4258C55.1887 72.2774 57.1473 71.6041 59.5186 71.4072H59.5195C64.1829 71.0207 66.767 70.3118 68.3438 68.877C69.8964 67.4637 70.6737 65.1549 71.1221 60.9111L71.2266 59.9717C71.3323 59.0755 71.4428 58.3072 71.5684 57.6553C71.7338 56.7961 71.937 56.0745 72.2305 55.5049C72.5367 54.9106 72.9618 54.4438 73.5635 54.1768ZM40.6064 36.1211C45.7771 36.1581 50.9264 36.2571 54.8496 36.4102C56.809 36.4866 58.4745 36.5768 59.6875 36.6807C60.2914 36.7324 60.8022 36.7894 61.1875 36.8525C61.3776 36.8837 61.5608 36.9198 61.7188 36.9648C61.7975 36.9873 61.8899 37.0183 61.9824 37.0596C62.0404 37.0855 62.1423 37.1343 62.25 37.2178L62.3584 37.3135L62.4854 37.4502C63.0959 38.1551 63.3251 39.146 63.3252 40.001C63.3252 40.9129 63.0646 41.9802 62.3584 42.6895C61.9864 43.063 61.5095 43.239 60.8721 43.3516C60.2431 43.4627 59.3085 43.5351 57.874 43.5898C54.9877 43.7001 49.8653 43.7416 40.6104 43.7891H40.6094C32.7964 43.8283 27.6335 43.8241 24.3135 43.7598C22.6556 43.7277 21.441 43.6805 20.5791 43.6143C20.1488 43.5812 19.7908 43.5423 19.502 43.4951C19.2324 43.4511 18.949 43.3893 18.7129 43.2803V43.2793C17.4083 42.6802 16.8095 41.3246 16.75 40.123C16.6907 38.9246 17.1538 37.5092 18.4326 36.8301L18.4346 36.8281C18.6201 36.7302 18.8291 36.6788 18.9736 36.6475C19.1413 36.6111 19.3361 36.5795 19.5479 36.5518C19.9732 36.4961 20.5218 36.448 21.166 36.4053C22.4577 36.3196 24.1894 36.2531 26.2031 36.2051C30.2336 36.1089 35.4358 36.0841 40.6064 36.1211ZM18.0186 1.11621C20.1094 0.895633 22.1262 0.976567 23.6699 1.46387C25.1956 1.94554 26.5823 2.9609 26.6016 4.75098C26.6148 5.99034 25.8721 6.905 24.8125 7.49316C23.9145 7.99161 22.7123 8.31086 21.2822 8.48438L20.6562 8.5498C15.909 8.97591 13.276 9.69505 11.6758 11.125C10.1083 12.5258 9.33409 14.7947 8.89844 18.9746V18.9756C8.76813 20.2124 8.58185 21.4476 8.38477 22.4463C8.28642 22.9446 8.18359 23.396 8.08008 23.7646C7.98735 24.0949 7.86414 24.4721 7.69531 24.7383V24.7393C7.39931 25.2051 7.01595 25.5845 6.48633 25.8281C5.98005 26.0609 5.41961 26.1318 4.83203 26.1318C3.63981 26.1318 2.6285 25.768 1.91309 24.8584L1.91211 24.8594C1.52228 24.3649 1.29908 23.7322 1.16992 23.0869C1.03847 22.43 0.989539 21.6829 1.00195 20.8926C1.02682 19.3112 1.29895 17.4566 1.74023 15.5996C2.18234 13.7392 2.80171 11.8427 3.54102 10.1768C4.27277 8.52788 5.15331 7.0316 6.14648 6.03418C8.92475 3.24408 13.8588 1.55511 18.0186 1.11621ZM57.0479 1.21875C57.9905 1.05294 59.0675 0.995059 60.2061 1.03125C62.4817 1.10363 65.0864 1.55736 67.5088 2.37598C69.7692 3.13986 71.9425 4.24517 73.5381 5.71777L73.8496 6.01758V6.01855C74.8559 7.03032 75.7462 8.55056 76.4834 10.2236C77.2282 11.9139 77.8504 13.8358 78.2891 15.7139C78.7268 17.5879 78.9905 19.4543 79 21.0312C79.0047 21.8192 78.9462 22.5634 78.8008 23.2129C78.6586 23.848 78.4134 24.4753 77.9854 24.9512L77.9863 24.9521C77.2798 25.7412 76.1888 26.1318 75.1064 26.1318C74.5856 26.1318 74.0718 26.0448 73.6211 25.876C73.1862 25.7131 72.7238 25.4411 72.417 25.0107L72.415 25.0068C72.2983 24.8416 72.2226 24.6497 72.1777 24.5254C72.1242 24.3771 72.0727 24.2044 72.0225 24.0195C71.9215 23.6479 71.8142 23.1756 71.707 22.6406C71.4922 21.5675 71.2674 20.196 71.084 18.7812L70.9805 18.0195C70.4577 14.3317 69.8328 12.4137 68.625 11.2227C67.3313 9.94694 65.1839 9.3204 60.915 8.75977H60.9141C58.7395 8.47295 57.3567 8.26158 56.4346 8.00879C55.446 7.73775 54.8646 7.38634 54.377 6.78125C53.7159 5.96136 53.2998 5.09568 53.332 4.2168C53.3664 3.2808 53.8956 2.58064 54.585 2.11328C55.2511 1.66173 56.1186 1.38221 57.0479 1.21875Z" fill="#081730" stroke="#081730" stroke-width="2"/>
</svg>
