<svg width="73" height="73" viewBox="0 0 73 73" fill="none" xmlns="http://www.w3.org/2000/svg">
<path d="M4.58984 49.001C5.08051 49.001 5.6275 49.0457 6.13379 49.3008C6.67541 49.5737 7.04258 50.0192 7.30664 50.5713C7.55862 51.0982 7.73913 51.7685 7.89746 52.5791C8.05784 53.4002 8.20756 54.4319 8.37402 55.7139L8.46973 56.4092C8.95428 59.7782 9.57809 61.5509 10.7373 62.6465C11.986 63.8266 14.0516 64.4098 18.0693 64.8457H18.0684C19.4284 64.9932 20.5926 65.2083 21.5391 65.4961C22.4693 65.7789 23.2731 66.1566 23.835 66.6807C24.4372 67.2426 24.7675 67.9896 24.6309 68.8457C24.5069 69.6214 24.0222 70.3276 23.3965 70.9561C22.5283 71.8276 21.4895 72 19.8877 72C18.8267 72 16.6886 71.7758 14.8262 71.4863L14.0488 71.3594C9.88168 70.6386 6.82689 69.2138 4.74707 66.4893C2.69938 63.8067 1.71909 60.0165 1.31152 54.8535L1.2627 54.1523C1.22295 53.4782 1.21157 52.8831 1.23926 52.3643C1.27573 51.6813 1.38234 51.0541 1.63477 50.5254C1.90513 49.9594 2.32486 49.5441 2.8877 49.2949C3.41086 49.0634 4.00081 49.001 4.58984 49.001ZM66.9346 49.2871C67.4729 49.0482 68.0483 49.03 68.5811 49.0752L68.583 49.0762C69.2035 49.1303 69.8567 49.2224 70.4033 49.5146C71.028 49.8487 71.4154 50.3829 71.6113 51.0791C71.7901 51.7142 71.8158 52.5014 71.7715 53.4307C71.7263 54.3771 71.6012 55.571 71.4238 57.0635C70.8919 61.5631 69.7974 64.9001 67.6582 67.251C65.6388 69.47 62.8138 70.6747 59.0713 71.293L58.3105 71.4092C56.0388 71.7266 53.4433 72 52.5488 72C51.4055 72 50.3602 71.7078 49.6113 70.9561C49.0087 70.3508 48.5932 69.647 48.5186 68.8711C48.4414 68.0687 48.7439 67.3512 49.2637 66.7852C50.245 65.7164 52.0529 65.1013 54.2139 64.9219C58.4481 64.5709 60.7647 63.9291 62.1709 62.6494C63.5532 61.3914 64.2571 59.327 64.6641 55.4756C64.79 54.2848 64.9176 53.3048 65.0703 52.5117C65.2211 51.7285 65.4082 51.063 65.6807 50.5342C65.9658 49.981 66.365 49.54 66.9346 49.2871ZM37.0518 32.8857C41.7466 32.9193 46.4223 33.0094 49.9854 33.1484C51.7649 33.2179 53.2794 33.3 54.3828 33.3945C54.9317 33.4416 55.3978 33.4938 55.751 33.5518C55.9253 33.5804 56.0957 33.6139 56.2441 33.6562C56.318 33.6774 56.4059 33.7063 56.4951 33.7461C56.5692 33.7792 56.7226 33.853 56.8643 33.9951C57.5289 34.6626 57.7695 35.6596 57.7695 36.501C57.7695 37.3424 57.529 38.3393 56.8643 39.0068C56.507 39.3656 56.0519 39.5293 55.4658 39.6328C54.888 39.7349 54.034 39.8018 52.7314 39.8516C50.1091 39.9517 45.4566 39.9891 37.0547 40.0322H37.0537C29.9606 40.0678 25.2723 40.0642 22.2568 40.0059C20.7509 39.9767 19.6456 39.9334 18.8604 39.873C18.4684 39.8429 18.1408 39.8071 17.875 39.7637C17.6284 39.7234 17.3609 39.6659 17.1348 39.5615V39.5605C15.9101 38.9979 15.3549 37.7296 15.2998 36.6162C15.2449 35.5057 15.6729 34.1788 16.876 33.54L16.8779 33.5391C17.0581 33.444 17.2581 33.395 17.3906 33.3662C17.5463 33.3324 17.7262 33.3037 17.9199 33.2783C18.3088 33.2274 18.809 33.1834 19.3945 33.1445C20.5691 33.0666 22.1429 33.0065 23.9717 32.9629C27.6322 32.8756 32.3567 32.8522 37.0518 32.8857ZM16.5342 1.10645C18.4389 0.905534 20.2838 0.977992 21.7021 1.42578C23.1023 1.86788 24.4094 2.81174 24.4277 4.49609C24.4404 5.66541 23.7374 6.52352 22.7559 7.06836C21.8078 7.59448 20.4999 7.8989 18.9453 8.03711L18.9463 8.03809C14.6354 8.42501 12.2736 9.07753 10.8457 10.3535C9.45075 11.6002 8.74979 13.6276 8.35449 17.4199V17.4219C8.23592 18.5472 8.06721 19.6714 7.8877 20.5811C7.79817 21.0347 7.70322 21.4464 7.6084 21.7842C7.52434 22.0835 7.41034 22.439 7.24902 22.6934L7.24805 22.6943C6.97167 23.1292 6.61142 23.4879 6.11133 23.7178C5.63476 23.9368 5.11129 24.0019 4.57129 24.002C3.46827 24.002 2.51821 23.6642 1.84668 22.8096L1.84766 22.8086C1.48187 22.344 1.27485 21.7556 1.15625 21.1631C1.03519 20.5583 0.99062 19.8732 1.00195 19.1514C1.02464 17.7071 1.27211 16.0157 1.67383 14.3252C2.07633 12.6315 2.64171 10.9049 3.31543 9.38672C3.98166 7.88549 4.786 6.51481 5.69922 5.59766C8.24251 3.04353 12.7467 1.50601 16.5342 1.10645ZM51.9619 1.2002C52.8254 1.04832 53.8094 0.995317 54.8477 1.02832C56.9229 1.0943 59.2971 1.5078 61.5049 2.25391C63.5642 2.94984 65.5502 3.95947 67.0117 5.30859L67.2969 5.58203L67.2979 5.58301C68.223 6.5132 69.0359 7.90566 69.707 9.42871C70.3858 10.9692 70.9521 12.7198 71.3516 14.4297C71.75 16.1355 71.9913 17.8369 72 19.2773C72.0043 19.9971 71.9504 20.6807 71.8164 21.2793C71.6855 21.8636 71.4591 22.4509 71.0557 22.8994C70.393 23.6394 69.3759 24.002 68.373 24.002C67.8902 24.0019 67.4128 23.9202 66.9922 23.7627C66.5875 23.6111 66.1494 23.3554 65.8564 22.9443L65.8535 22.9414C65.7399 22.7806 65.6691 22.5963 65.6279 22.4824C65.5781 22.3445 65.5304 22.185 65.4844 22.0156C65.3919 21.6754 65.2938 21.2438 65.1963 20.7568C65.0007 19.7802 64.7966 18.5333 64.6299 17.2471L64.5361 16.5557C64.0614 13.2084 63.4965 11.4963 62.4238 10.4385C61.3462 9.37587 59.5927 8.81139 56.1816 8.3252L55.4766 8.22852C53.5035 7.96829 52.241 7.77546 51.3965 7.54395C50.5993 7.32539 50.081 7.04755 49.6572 6.60059L49.4814 6.39844C48.8748 5.64601 48.4813 4.83844 48.5117 4.00879C48.5444 3.12215 49.0474 2.46226 49.6904 2.02637C50.3102 1.6063 51.1119 1.34972 51.9619 1.2002Z" fill="#B4FF5E" stroke="#B4FF5E" stroke-width="2"/>
</svg>
