<svg width="76" height="76" viewBox="0 0 76 76" fill="none" xmlns="http://www.w3.org/2000/svg">
<path fill-rule="evenodd" clip-rule="evenodd" d="M20.7778 0.0244322C23.0754 -0.223204 25.1386 1.43968 25.3861 3.7386C25.6336 6.03754 23.9717 8.10188 21.6741 8.34956C19.7566 8.55622 17.8538 8.77694 15.9491 8.99793L15.5585 9.0432C12.1315 9.44066 9.39241 12.1888 9.00947 15.6014C8.7828 17.6218 8.55653 19.6421 8.34654 21.6774C8.10916 23.9774 6.0534 25.6493 3.75475 25.4119C1.45613 25.1744 -0.214881 23.1174 0.0224558 20.8174C0.236885 18.7394 0.467226 16.6833 0.693432 14.6672C1.51294 7.36342 7.31612 1.56976 14.595 0.725643L14.993 0.679478C16.8906 0.459334 18.8253 0.234886 20.7778 0.0244322ZM55.2224 0.0244322C52.9247 -0.223204 50.8615 1.43968 50.614 3.7386C50.3666 6.03754 52.0284 8.10188 54.326 8.34956C56.2433 8.55622 58.1463 8.77694 60.0509 8.99793L60.4414 9.0432C63.8685 9.44066 66.6078 12.1888 66.9905 15.6014C67.2175 17.6218 67.4435 19.6421 67.6538 21.6774C67.8909 23.9774 69.9467 25.6493 72.2452 25.4119C74.5437 25.1744 76.2152 23.1174 75.9775 20.8174C75.7633 18.7394 75.5329 16.6833 75.3069 14.6672C74.4874 7.36342 68.6842 1.56976 61.4049 0.725643L61.0071 0.679478C59.1098 0.459334 57.175 0.234886 55.2224 0.0244322ZM22.9068 20.648C24.4288 20.4855 25.8728 20.3686 27.2965 20.3686C28.7202 20.3686 30.1643 20.4855 31.6863 20.648C32.4077 20.725 33.0138 21.3411 33.0857 22.0455C33.2399 23.5566 33.3501 25.0001 33.3501 26.4258C33.3501 27.8513 33.2399 29.2948 33.0857 30.8059C33.0138 31.5104 32.4077 32.1265 31.6863 32.2035C30.1643 32.366 28.7202 32.4829 27.2965 32.4829C25.8728 32.4829 24.4288 32.366 22.9068 32.2035C22.1854 32.1265 21.5793 31.5104 21.5074 30.8059C21.3532 29.2948 21.243 27.8513 21.243 26.4258C21.243 25.0001 21.3532 23.5566 21.5074 22.0455C21.5793 21.3411 22.1854 20.725 22.9068 20.648ZM27.2965 11.9953C25.4358 11.9953 23.6518 12.1476 22.0189 12.322C17.382 12.8171 13.6579 16.5355 13.1824 21.195C13.0165 22.8206 12.8747 24.5863 12.8747 26.4258C12.8747 28.2652 13.0165 30.0309 13.1824 31.6565C13.6579 36.316 17.382 40.0344 22.0189 40.5295C23.6518 40.7039 25.4358 40.8561 27.2965 40.8561C29.1573 40.8561 30.9413 40.7039 32.5742 40.5295C37.2111 40.0344 40.9352 36.316 41.4107 31.6565C41.5766 30.0309 41.7184 28.2652 41.7184 26.4258C41.7184 24.5863 41.5766 22.8206 41.4107 21.195C40.9352 16.5355 37.2111 12.8171 32.5742 12.322C30.9413 12.1476 29.1573 11.9953 27.2965 11.9953ZM50.614 72.2613C50.8615 74.56 52.9247 76.2229 55.2224 75.9756C57.175 75.7652 59.1098 75.5408 61.0071 75.3203L61.4049 75.2745C68.6842 74.4299 74.4874 68.6367 75.3069 61.3325C75.5329 59.3167 75.7633 57.2603 75.9775 55.1826C76.2152 52.8826 74.5437 50.8255 72.2452 50.5881C69.9467 50.3506 67.8909 52.0226 67.6538 54.3225C67.4435 56.3576 67.2175 58.3784 66.9905 60.3986C66.6078 63.811 63.8685 66.5591 60.4414 66.9565L60.0509 67.0023C58.148 67.2228 56.2417 67.4438 54.326 67.6504C52.0284 67.8982 50.3666 69.9625 50.614 72.2613ZM25.3861 72.2613C25.1386 74.56 23.0754 76.2229 20.7778 75.9756C18.8253 75.7652 16.8906 75.5408 14.993 75.3203L14.595 75.2745C7.31612 74.4299 1.51294 68.6367 0.693432 61.3325C0.467226 59.3167 0.236885 57.2603 0.0224558 55.1826C-0.214881 52.8826 1.45613 50.8255 3.75475 50.5881C6.0534 50.3506 8.10916 52.0226 8.34654 54.3225C8.55653 56.3576 8.7828 58.3784 9.00947 60.3986C9.39241 63.811 12.1315 66.5591 15.5585 66.9565L15.9491 67.0023C17.8534 67.2233 19.7571 67.4438 21.6741 67.6504C23.9717 67.8982 25.6336 69.9625 25.3861 72.2613ZM23.1124 49.4107C23.1124 47.0985 21.2391 45.224 18.9282 45.224C16.6174 45.224 14.7441 47.0985 14.7441 49.4107V57.9407C14.7441 60.2529 16.6174 62.1274 18.9282 62.1274H27.2965C29.6074 62.1274 31.4807 60.2529 31.4807 57.9407C31.4807 55.6286 29.6074 53.7542 27.2965 53.7542H23.1124V49.4107ZM58.5301 62.1274C56.2194 62.1274 54.3458 60.2529 54.3458 57.9407V53.5971H50.1616C47.8508 53.5971 45.9775 51.7227 45.9775 49.4105C45.9775 47.0982 47.8508 45.2239 50.1616 45.2239H58.5301C60.8409 45.2239 62.7143 47.0983 62.7143 49.4105V57.9407C62.7143 60.2529 60.8409 62.1274 58.5301 62.1274ZM58.8665 40.8561C61.1773 40.8561 63.0507 38.9817 63.0507 36.6695C63.0507 34.3573 61.1773 32.4829 58.8665 32.4829H50.4981C48.1872 32.4829 46.3139 34.3573 46.3139 36.6695C46.3139 38.9817 48.1872 40.8561 50.4981 40.8561H58.8665ZM39.3151 62.0487C37.0043 62.0487 35.1309 60.1747 35.1309 57.862V49.489C35.1309 47.1768 37.0043 45.3024 39.3151 45.3024C41.626 45.3024 43.4992 47.1768 43.4992 49.489V57.862C43.4992 60.1747 41.626 62.0487 39.3151 62.0487ZM54.3458 23.8912C54.3458 26.2034 56.2194 28.0779 58.5301 28.0779C60.8409 28.0779 62.7143 26.2034 62.7143 23.8912V17.8956C62.7143 15.5833 60.8409 13.709 58.5301 13.709H50.1616C47.8508 13.709 45.9775 15.5833 45.9775 17.8956C45.9775 20.2078 47.8508 22.0822 50.1616 22.0822H54.3458V23.8912Z" fill="#081730"/>
</svg>
