<svg width="69" height="68" viewBox="0 0 69 68" fill="none" xmlns="http://www.w3.org/2000/svg">
<path fill-rule="evenodd" clip-rule="evenodd" d="M18.8641 0.0218603C20.9501 -0.199709 22.8232 1.28814 23.0479 3.34506C23.2726 5.40201 21.7638 7.24905 19.6778 7.47066C17.9369 7.65556 16.2094 7.85305 14.4801 8.05078L14.1254 8.09129C11.0141 8.4469 8.52732 10.9057 8.17965 13.9592C7.97386 15.7669 7.76842 17.5745 7.57778 19.3956C7.36226 21.4534 5.49585 22.9494 3.40892 22.7369C1.32201 22.5245 -0.195089 20.684 0.0203875 18.6261C0.215067 16.7668 0.424192 14.9271 0.629564 13.1233C1.37359 6.58832 6.64227 1.40452 13.2507 0.649259L13.6121 0.607954C15.3349 0.410983 17.0914 0.210161 18.8641 0.0218603ZM50.1361 0.0218603C48.0501 -0.199709 46.1769 1.28814 45.9522 3.34506C45.7275 5.40201 47.2364 7.24905 49.3223 7.47066C51.063 7.65556 52.7907 7.85305 54.5199 8.05078L54.8745 8.09129C57.9859 8.4469 60.4729 10.9057 60.8203 13.9592C61.0265 15.7669 61.2316 17.5745 61.4225 19.3956C61.6378 21.4534 63.5043 22.9494 65.5911 22.7369C67.6779 22.5245 69.1953 20.684 68.9796 18.6261C68.7851 16.7668 68.5759 14.9271 68.3708 13.1233C67.6267 6.58832 62.3581 1.40452 55.7492 0.649259L55.3881 0.607954C53.6655 0.410983 51.9089 0.210161 50.1361 0.0218603ZM20.797 18.4745C22.1787 18.3291 23.4898 18.2245 24.7824 18.2245C26.075 18.2245 27.386 18.3291 28.7678 18.4745C29.4227 18.5434 29.9731 19.0946 30.0383 19.725C30.1783 21.077 30.2784 22.3685 30.2784 23.6441C30.2784 24.9196 30.1783 26.2112 30.0383 27.5632C29.9731 28.1935 29.4227 28.7448 28.7678 28.8137C27.386 28.9591 26.075 29.0636 24.7824 29.0636C23.4898 29.0636 22.1787 28.9591 20.797 28.8137C20.142 28.7448 19.5917 28.1935 19.5265 27.5632C19.3865 26.2112 19.2864 24.9196 19.2864 23.6441C19.2864 22.3685 19.3865 21.077 19.5265 19.725C19.5917 19.0946 20.142 18.5434 20.797 18.4745ZM24.7824 10.7327C23.093 10.7327 21.4733 10.8689 19.9908 11.025C15.781 11.4679 12.3999 14.7949 11.9682 18.964C11.8176 20.4185 11.6889 21.9983 11.6889 23.6441C11.6889 25.2899 11.8176 26.8697 11.9682 28.3242C12.3999 32.4933 15.781 35.8202 19.9908 36.2633C21.4733 36.4192 23.093 36.5555 24.7824 36.5555C26.4718 36.5555 28.0914 36.4192 29.5739 36.2633C33.7837 35.8202 37.1648 32.4933 37.5965 28.3242C37.7472 26.8697 37.8759 25.2899 37.8759 23.6441C37.8759 21.9983 37.7472 20.4185 37.5965 18.964C37.1648 14.7949 33.7837 11.4679 29.5739 11.025C28.0914 10.8689 26.4718 10.7327 24.7824 10.7327ZM45.9522 64.6548C46.1769 66.7116 48.0501 68.1995 50.1361 67.9782C51.9089 67.7899 53.6655 67.5891 55.3881 67.3918L55.7492 67.3509C62.3581 66.5952 67.6267 61.4118 68.3708 54.8764C68.5759 53.0729 68.7851 51.2329 68.9796 49.3739C69.1953 47.316 67.6779 45.4755 65.5911 45.263C63.5043 45.0505 61.6378 46.5465 61.4225 48.6044C61.2316 50.4252 61.0265 52.2333 60.8203 54.0408C60.4729 57.094 57.9859 59.5528 54.8745 59.9085L54.5199 59.9494C52.7922 60.1467 51.0615 60.3445 49.3223 60.5293C47.2364 60.751 45.7275 62.598 45.9522 64.6548ZM23.0479 64.6548C22.8232 66.7116 20.9501 68.1995 18.8641 67.9782C17.0914 67.7899 15.3349 67.5891 13.6121 67.3918L13.2507 67.3509C6.64227 66.5952 1.37359 61.4118 0.629564 54.8764C0.424192 53.0729 0.215067 51.2329 0.0203875 49.3739C-0.195089 47.316 1.32201 45.4755 3.40892 45.263C5.49585 45.0505 7.36226 46.5465 7.57778 48.6044C7.76842 50.4252 7.97386 52.2333 8.17965 54.0408C8.52732 57.094 11.0141 59.5528 14.1254 59.9085L14.4801 59.9494C16.209 60.1472 17.9374 60.3445 19.6778 60.5293C21.7638 60.751 23.2726 62.598 23.0479 64.6548ZM20.9836 44.2095C20.9836 42.1407 19.2829 40.4636 17.1848 40.4636C15.0868 40.4636 13.386 42.1407 13.386 44.2095V51.8417C13.386 53.9105 15.0868 55.5876 17.1848 55.5876H24.7824C26.8804 55.5876 28.5811 53.9105 28.5811 51.8417C28.5811 49.773 26.8804 48.0959 24.7824 48.0959H20.9836V44.2095ZM53.1392 55.5876C51.0413 55.5876 49.3403 53.9105 49.3403 51.8417V47.9553H45.5415C43.4435 47.9553 41.7427 46.2782 41.7427 44.2094C41.7427 42.1405 43.4435 40.4635 45.5415 40.4635H53.1392C55.2371 40.4635 56.938 42.1406 56.938 44.2094V51.8417C56.938 53.9105 55.2371 55.5876 53.1392 55.5876ZM53.4446 36.5555C55.5425 36.5555 57.2434 34.8784 57.2434 32.8096C57.2434 30.7408 55.5425 29.0636 53.4446 29.0636H45.8469C43.7489 29.0636 42.0481 30.7408 42.0481 32.8096C42.0481 34.8784 43.7489 36.5555 45.8469 36.5555H53.4446ZM35.694 55.5172C33.596 55.5172 31.8952 53.8405 31.8952 51.7713V44.2797C31.8952 42.2108 33.596 40.5337 35.694 40.5337C37.792 40.5337 39.4927 42.2108 39.4927 44.2797V51.7713C39.4927 53.8405 37.792 55.5172 35.694 55.5172ZM49.3403 21.3764C49.3403 23.4452 51.0413 25.1223 53.1392 25.1223C55.2371 25.1223 56.938 23.4452 56.938 21.3764V16.0118C56.938 13.943 55.2371 12.2659 53.1392 12.2659H45.5415C43.4435 12.2659 41.7427 13.943 41.7427 16.0118C41.7427 18.0806 43.4435 19.7578 45.5415 19.7578H49.3403V21.3764Z" fill="#B4FF5E"/>
</svg>