<svg width="65" height="65" viewBox="0 0 65 65" fill="none" xmlns="http://www.w3.org/2000/svg">
<path d="M11.2548 0.507423C8.20981 0.530453 1.54637 -0.245239 0.605746 9.62705C0.0464445 13.4324 1.87624 27.9452 2.11962 28.4212C2.26584 29.9449 3.54505 32.9044 5.16962 36.9859C6.37315 40.4655 11.1508 49.4413 17.34 53.7053C23.5292 57.9692 30.1968 60.6826 38.638 62.8249C45.6597 64.1483 54.8412 64.8297 55.3722 64.3448C60.2726 62.3153 64.0221 60.5843 64.5 53.7053C64.3032 49.3557 63.9505 46.0885 56.8935 43.0657C53.4367 41.8148 50.7578 41.8083 46.2445 41.5457C38.9542 41.0855 35.1856 39.8879 29.5103 35.466C23.9905 30.7575 23.8056 27.5957 23.4698 22.4614C23.6694 25.1572 23.4119 16.6065 21.9038 9.62705C19.516 3.34985 17.3873 1.02281 11.2548 0.507423Z" fill="#CEFF97" fill-opacity="0.9" stroke="#CEFF97" stroke-opacity="0.9" stroke-linejoin="round"/>
</svg>