<svg width="65" height="65" viewBox="0 0 65 65" fill="none" xmlns="http://www.w3.org/2000/svg">
<path d="M53.7452 0.507423C56.7902 0.530453 63.4536 -0.245239 64.3943 9.62705C64.9536 13.4324 63.1238 27.9452 62.8804 28.4212C62.7342 29.9449 61.455 32.9044 59.8304 36.9859C58.6269 40.4655 53.8492 49.4413 47.66 53.7053C41.4708 57.9692 34.8032 60.6826 26.362 62.8249C19.3403 64.1483 10.1588 64.8297 9.62775 64.3448C4.72745 62.3153 0.977867 60.5843 0.5 53.7053C0.696758 49.3557 1.04952 46.0885 8.10646 43.0657C11.5633 41.8148 14.2422 41.8083 18.7555 41.5457C26.0458 41.0855 29.8144 39.8879 35.4897 35.466C41.0095 30.7575 41.1944 27.5957 41.5302 22.4614C41.3306 25.1572 41.5881 16.6065 43.0962 9.62705C45.484 3.34985 47.6127 1.02281 53.7452 0.507423Z" fill="#CEFF97" fill-opacity="0.9" stroke="#CEFF97" stroke-opacity="0.9" stroke-linejoin="round"/>
</svg>