<svg width="30" height="26" viewBox="0 0 30 26" fill="none" xmlns="http://www.w3.org/2000/svg">
<path d="M26.6667 24V2.66667H2.66667V13.3333H0V2.66667C0 1.93333 0.261111 1.30556 0.783333 0.783333C1.30556 0.261111 1.93333 0 2.66667 0H26.6667C27.4 0 28.0278 0.261111 28.55 0.783333C29.0722 1.30556 29.3333 1.93333 29.3333 2.66667V21.3333C29.3333 22.0667 29.0722 22.6944 28.55 23.2167C28.0278 23.7389 27.4 24 26.6667 24ZM10.6667 14.6667C9.2 14.6667 7.94444 14.1444 6.9 13.1C5.85556 12.0556 5.33333 10.8 5.33333 9.33333C5.33333 7.86667 5.85556 6.61111 6.9 5.56667C7.94444 4.52222 9.2 4 10.6667 4C12.1333 4 13.3889 4.52222 14.4333 5.56667C15.4778 6.61111 16 7.86667 16 9.33333C16 10.8 15.4778 12.0556 14.4333 13.1C13.3889 14.1444 12.1333 14.6667 10.6667 14.6667ZM10.6667 12C11.4 12 12.0278 11.7389 12.55 11.2167C13.0722 10.6944 13.3333 10.0667 13.3333 9.33333C13.3333 8.6 13.0722 7.97222 12.55 7.45C12.0278 6.92778 11.4 6.66667 10.6667 6.66667C9.93333 6.66667 9.30556 6.92778 8.78333 7.45C8.26111 7.97222 8 8.6 8 9.33333C8 10.0667 8.26111 10.6944 8.78333 11.2167C9.30556 11.7389 9.93333 12 10.6667 12ZM0 25.3333V21.6C0 20.8444 0.194444 20.15 0.583333 19.5167C0.972222 18.8833 1.48889 18.4 2.13333 18.0667C3.51111 17.3778 4.91111 16.8611 6.33333 16.5167C7.75556 16.1722 9.2 16 10.6667 16C12.1333 16 13.5778 16.1722 15 16.5167C16.4222 16.8611 17.8222 17.3778 19.2 18.0667C19.8444 18.4 20.3611 18.8833 20.75 19.5167C21.1389 20.15 21.3333 20.8444 21.3333 21.6V25.3333H0ZM2.66667 22.6667H18.6667V21.6C18.6667 21.3556 18.6056 21.1333 18.4833 20.9333C18.3611 20.7333 18.2 20.5778 18 20.4667C16.8 19.8667 15.5889 19.4167 14.3667 19.1167C13.1444 18.8167 11.9111 18.6667 10.6667 18.6667C9.42222 18.6667 8.18889 18.8167 6.96667 19.1167C5.74444 19.4167 4.53333 19.8667 3.33333 20.4667C3.13333 20.5778 2.97222 20.7333 2.85 20.9333C2.72778 21.1333 2.66667 21.3556 2.66667 21.6V22.6667Z" fill="#E0E4DB"/>
</svg>
