<svg width="57" height="63" viewBox="0 0 57 63" fill="none" xmlns="http://www.w3.org/2000/svg">
<path d="M9.5 63C6.86111 63 4.61806 62.0813 2.77083 60.2438C0.923611 58.4062 0 56.175 0 53.55V44.1H9.5V0H57V53.55C57 56.175 56.0764 58.4062 54.2292 60.2438C52.3819 62.0813 50.1389 63 47.5 63H9.5ZM47.5 56.7C48.3972 56.7 49.1493 56.3981 49.7563 55.7944C50.3632 55.1906 50.6667 54.4425 50.6667 53.55V6.3H15.8333V44.1H44.3333V53.55C44.3333 54.4425 44.6368 55.1906 45.2438 55.7944C45.8507 56.3981 46.6028 56.7 47.5 56.7ZM19 22.05V15.75H47.5V22.05H19ZM19 31.5V25.2H47.5V31.5H19ZM9.5 56.7H38V50.4H6.33333V53.55C6.33333 54.4425 6.63681 55.1906 7.24375 55.7944C7.8507 56.3981 8.60278 56.7 9.5 56.7ZM9.5 56.7H6.33333H38H9.5Z" fill="#E0E4DB"/>
</svg>
