<svg width="43" height="46" viewBox="0 0 43 46" fill="none" xmlns="http://www.w3.org/2000/svg">
<path d="M0.716807 32.0477C-1.87804 26.8746 2.99562 21.6944 8.54651 23.7261C11.4408 24.7835 11.3196 24.9475 11.3196 19.9241C11.3196 13.5605 11.8875 7.456 12.6289 5.87817C13.8479 3.27619 16.8515 1.95976 19.6578 2.80095C21.2546 3.27857 21.2427 3.28332 22.7445 1.73164C25.6887 -1.30757 30.7311 -0.185985 32.24 3.84411C32.7556 5.21996 32.7556 5.21996 35.0463 5.21996C40.0602 5.21996 41.3291 6.96887 41.8685 14.6061C42.9687 30.2037 40.9132 43.0996 36.9925 45.1835C34.9014 46.2956 34.2384 44.2402 35.8661 41.7023C38.5703 37.494 39.535 29.1938 38.8174 16.3122C38.5132 10.8564 38.4633 10.4833 37.9168 9.67065C36.7311 7.9051 34.0008 8.05956 33.1216 9.94154C32.7651 10.7043 32.7057 11.5811 32.7033 16.1031C32.701 21.8108 32.5774 22.4691 31.4534 22.778C31.0519 22.8873 30.6788 22.7875 30.2439 22.4548C29.6166 21.9772 29.6166 21.9772 29.6166 14.1879C29.6166 3.97956 29.3029 2.88887 26.4657 3.26669C24.2226 3.56609 24.1513 3.87738 24.1513 13.4061C24.1513 22.6853 24.1085 22.9229 22.4 22.9229C20.9481 22.9229 20.8245 22.2766 20.8245 14.5918C20.8245 7.84808 20.815 7.71501 20.2875 6.95699C19.5152 5.85203 17.8352 5.49322 16.5901 6.17045C15.1358 6.96174 14.9338 8.02867 14.5964 16.7756C14.2471 25.8172 14.0926 25.2112 16.9299 25.9265C21.7513 27.1455 25.9239 31.5772 24.0111 33.452C23.1271 34.317 22.3572 33.9843 20.8626 32.0976C19.1635 29.9518 17.7734 29.2057 14.8198 28.8493C13.5509 28.6972 11.6404 28.1792 9.38057 27.376C5.40037 25.9621 4.36908 26.1213 3.40196 28.2908C2.56552 30.1681 2.78651 30.4366 10.5544 37.014C18.1893 43.4774 18.7453 44.2093 16.7992 45.2524C16.5473 45.3879 16.1742 45.4972 15.9699 45.4972C15.7631 45.4972 12.4031 42.7788 8.49899 39.4544C2.11641 34.02 1.33225 33.2738 0.716807 32.0477Z" fill="#C1EE8D" stroke="#C1EE8D" stroke-width="0.8" stroke-linejoin="round"/>
</svg>