<svg width="19" height="21" viewBox="0 0 19 21" fill="none" xmlns="http://www.w3.org/2000/svg">
<path d="M5.95215 12.2026C5.66882 12.2026 5.43132 12.1068 5.23965 11.9151C5.04798 11.7235 4.95215 11.486 4.95215 11.2026C4.95215 10.9193 5.04798 10.6818 5.23965 10.4901C5.43132 10.2985 5.66882 10.2026 5.95215 10.2026C6.23548 10.2026 6.47298 10.2985 6.66465 10.4901C6.85632 10.6818 6.95215 10.9193 6.95215 11.2026C6.95215 11.486 6.85632 11.7235 6.66465 11.9151C6.47298 12.1068 6.23548 12.2026 5.95215 12.2026ZM9.95215 12.2026C9.66882 12.2026 9.43132 12.1068 9.23965 11.9151C9.04798 11.7235 8.95215 11.486 8.95215 11.2026C8.95215 10.9193 9.04798 10.6818 9.23965 10.4901C9.43132 10.2985 9.66882 10.2026 9.95215 10.2026C10.2355 10.2026 10.473 10.2985 10.6646 10.4901C10.8563 10.6818 10.9521 10.9193 10.9521 11.2026C10.9521 11.486 10.8563 11.7235 10.6646 11.9151C10.473 12.1068 10.2355 12.2026 9.95215 12.2026ZM13.9521 12.2026C13.6688 12.2026 13.4313 12.1068 13.2396 11.9151C13.048 11.7235 12.9521 11.486 12.9521 11.2026C12.9521 10.9193 13.048 10.6818 13.2396 10.4901C13.4313 10.2985 13.6688 10.2026 13.9521 10.2026C14.2355 10.2026 14.473 10.2985 14.6646 10.4901C14.8563 10.6818 14.9521 10.9193 14.9521 11.2026C14.9521 11.486 14.8563 11.7235 14.6646 11.9151C14.473 12.1068 14.2355 12.2026 13.9521 12.2026ZM2.95215 20.2026C2.40215 20.2026 1.93132 20.0068 1.53965 19.6151C1.14798 19.2235 0.952148 18.7526 0.952148 18.2026V4.20264C0.952148 3.65264 1.14798 3.1818 1.53965 2.79014C1.93132 2.39847 2.40215 2.20264 2.95215 2.20264H3.95215V0.202637H5.95215V2.20264H13.9521V0.202637H15.9521V2.20264H16.9521C17.5021 2.20264 17.973 2.39847 18.3646 2.79014C18.7563 3.1818 18.9521 3.65264 18.9521 4.20264V18.2026C18.9521 18.7526 18.7563 19.2235 18.3646 19.6151C17.973 20.0068 17.5021 20.2026 16.9521 20.2026H2.95215ZM2.95215 18.2026H16.9521V8.20264H2.95215V18.2026ZM2.95215 6.20264H16.9521V4.20264H2.95215V6.20264Z" fill="#C1C9BE"/>
</svg>