<svg width="364" height="364" viewBox="0 0 364 364" fill="none" xmlns="http://www.w3.org/2000/svg">
<path d="M133.053 131.542C137.001 120.319 144.793 110.856 155.049 104.828C165.306 98.8006 177.364 96.5972 189.09 98.6084C200.815 100.62 211.45 106.716 219.111 115.817C226.773 124.918 230.966 136.437 230.948 148.333C230.948 181.917 180.573 198.708 180.573 198.708M181.917 265.875H182.085M349.833 181.917C349.833 274.654 274.654 349.833 181.917 349.833C89.1788 349.833 14 274.654 14 181.917C14 89.1788 89.1788 14 181.917 14C274.654 14 349.833 89.1788 349.833 181.917Z" stroke="#C9FF8A" stroke-width="28" stroke-linecap="round" stroke-linejoin="round"/>
</svg>