<svg width="36" height="30" viewBox="0 0 36 30" fill="none" xmlns="http://www.w3.org/2000/svg">
<path d="M21.383 2.7C20.5083 2.70212 19.6582 2.99341 18.9621 3.52954C18.2661 4.06567 17.7621 4.81728 17.5269 5.67L12.1264 25.3368C11.9973 25.8109 11.7192 26.2296 11.3342 26.5297C10.9492 26.8297 10.4782 26.9948 9.99232 27C9.5171 26.9936 9.05516 26.8403 8.66847 26.5607C8.28177 26.281 7.98882 25.8883 7.8289 25.4353L4.1036 15.0673C3.86081 14.3609 3.45401 13.7238 2.91739 13.2096C2.38078 12.6953 1.73003 12.319 1.01986 12.1122C0.676016 12.0279 0.379352 11.8088 0.195127 11.5031C0.0109016 11.1974 -0.0457935 10.8301 0.0375135 10.4821C0.120821 10.1341 0.337306 9.83379 0.639345 9.64733C0.941384 9.46086 1.30424 9.40348 1.64808 9.4878C2.78731 9.79682 3.83482 10.3826 4.69971 11.1942C5.5646 12.0058 6.22072 13.0188 6.61114 14.1453L9.91096 23.3253L14.9581 4.9437C15.3511 3.52397 16.1912 2.2729 17.3509 1.3806C18.5105 0.488293 19.9263 0.00354059 21.383 0H30.6662C31.0199 0 31.3592 0.142232 31.6093 0.395406C31.8595 0.64858 32 0.991958 32 1.35C32 1.70804 31.8595 2.05142 31.6093 2.30459C31.3592 2.55777 31.0199 2.7 30.6662 2.7H21.383Z" fill="#B4FF5E"/>
<path d="M32.7832 20.9289C32.7834 20.9935 32.8054 21.0563 32.8457 21.1075L33.7182 22.1845C33.8758 22.3774 33.9703 22.6122 33.9895 22.8585C34.0087 23.1047 33.9516 23.3509 33.8257 23.5649L33.3132 24.4314C33.1873 24.6457 32.9982 24.8178 32.7707 24.9252C32.5432 25.0327 32.288 25.0704 32.0382 25.0335L30.6482 24.8279C30.5828 24.8185 30.516 24.8305 30.4582 24.8622L28.8132 25.7923C28.756 25.8262 28.712 25.8779 28.6882 25.9391L28.1732 27.2168C28.0817 27.4472 27.9213 27.6451 27.713 27.7849C27.5047 27.9246 27.2582 27.9996 27.0057 28H25.9857C25.7332 27.9996 25.4867 27.9246 25.2784 27.7849C25.0702 27.6451 24.9098 27.4472 24.8182 27.2168L24.3057 25.9367C24.2815 25.8763 24.2375 25.8256 24.1807 25.7923L22.5357 24.8622C22.478 24.8305 22.4112 24.8185 22.3457 24.8279L20.9557 25.0335C20.706 25.0704 20.4507 25.0327 20.2232 24.9252C19.9958 24.8178 19.8067 24.6457 19.6807 24.4314L19.1682 23.5649C19.0418 23.3506 18.9844 23.104 19.0036 22.8572C19.0228 22.6105 19.1176 22.3751 19.2757 22.182L20.1507 21.1075C20.1925 21.0569 20.2154 20.9939 20.2157 20.9289V19.0687C20.2154 19.0036 20.1925 18.9406 20.1507 18.89L19.2757 17.8131C19.1182 17.6202 19.0236 17.3853 19.0045 17.1391C18.9853 16.8928 19.0424 16.6466 19.1682 16.4326L19.6807 15.5662C19.8067 15.3519 19.9958 15.1797 20.2232 15.0723C20.4507 14.9649 20.706 14.9272 20.9557 14.9641L22.3407 15.1696C22.4062 15.1791 22.473 15.167 22.5307 15.1354L24.1807 14.2004C24.2375 14.1671 24.2815 14.1163 24.3057 14.056L24.8207 12.7832C24.9123 12.5528 25.0727 12.3549 25.2809 12.2151C25.4892 12.0754 25.7357 12.0004 25.9882 12H27.0132C27.2657 12.0004 27.5122 12.0754 27.7205 12.2151C27.9288 12.3549 28.0892 12.5528 28.1807 12.7832L28.6932 14.056C28.7165 14.1181 28.7606 14.1707 28.8182 14.2053L30.4657 15.1354C30.5235 15.167 30.5903 15.1791 30.6557 15.1696L32.0457 14.9641C32.2955 14.9272 32.5507 14.9649 32.7782 15.0723C33.0057 15.1797 33.1948 15.3519 33.3207 15.5662L33.8307 16.4326C33.9575 16.6467 34.0153 16.8932 33.9965 17.1399C33.9778 17.3867 33.8834 17.6222 33.7257 17.8155L32.8507 18.8925C32.8095 18.9424 32.7866 19.0045 32.7857 19.0687L32.7832 20.9289Z" stroke="#B4FF5E" stroke-width="2.5" stroke-linecap="round" stroke-linejoin="round"/>
<path d="M26.4958 18.7744C26.1886 18.7662 25.8877 18.8612 25.6433 19.0437C25.1508 19.4475 25.1183 20.3678 25.5283 20.8402C25.6528 20.9673 25.8034 21.067 25.9702 21.1329C26.137 21.1987 26.3161 21.2291 26.4958 21.222" stroke="#B4FF5E" stroke-width="2.5" stroke-linecap="round" stroke-linejoin="round"/>
<path d="M26.4958 18.7744C26.8108 18.7744 27.1276 18.8645 27.3451 19.0432C27.8401 19.447 27.8701 20.3698 27.4626 20.8397C27.3382 20.9668 27.1876 21.0666 27.0208 21.1324C26.854 21.1982 26.6755 21.2291 26.4958 21.222" stroke="#B4FF5E" stroke-width="2.5" stroke-linecap="round" stroke-linejoin="round"/>
</svg>