<svg width="28" height="35" viewBox="0 0 28 35" fill="none" xmlns="http://www.w3.org/2000/svg">
<path d="M5.13638 24.8557C2.82281 24.9433 1.53253 26.744 1.53253 28.9623C1.53253 31.1808 2.82281 32.9812 5.13638 33.0691C11.4997 33.3103 17.7864 33.3103 24.1496 33.0691C24.8013 33.0442 25.4223 32.8724 25.9494 32.5896C24.4587 31.9968 23.3171 30.8328 23.3171 28.9623C23.3171 27.0918 24.4587 25.9277 25.9491 25.335C25.4223 25.0521 24.8013 24.8803 24.1496 24.8557M5.13638 24.8557C11.4997 24.6144 17.7864 24.6144 24.1496 24.8557M5.13638 24.8557C2.89935 24.9406 1.6212 26.6258 1.53891 28.743C1.10562 21.3455 1.13745 14.0464 1.7862 6.66604C2.00415 4.1866 3.89255 2.16287 6.30596 1.80835C11.3739 1.06388 16.147 1.06388 21.2149 1.80835C23.6285 2.16287 25.5167 4.1866 25.7346 6.66604C26.2851 12.9263 26.4577 19.0618 25.9391 25.3279C25.415 25.049 24.7962 24.8803 24.1496 24.8557M16.2364 11.4284H21.7065L15.8945 19.8058H22.0483M5.50678 14.6694L8.02562 6.95433C8.15475 6.55881 8.51728 6.29203 8.92562 6.29203C9.33395 6.29203 9.69648 6.55881 9.82561 6.95433L12.3444 14.6694M6.41847 11.877H11.4328" stroke="#B4FF5E" stroke-width="2.5" stroke-linecap="round" stroke-linejoin="round"/>
</svg>