<svg width="28" height="35" viewBox="0 0 28 35" fill="none" xmlns="http://www.w3.org/2000/svg">
<path d="M21.6011 17.5225C21.6012 17.5589 21.6129 17.5942 21.6344 17.623L22.0997 18.2288C22.1837 18.3373 22.2342 18.4694 22.2444 18.6079C22.2546 18.7464 22.2242 18.8849 22.1571 19.0053L21.8837 19.4927C21.8165 19.6132 21.7157 19.71 21.5944 19.7704C21.4731 19.8309 21.3369 19.8521 21.2037 19.8313L20.4624 19.7157C20.4275 19.7104 20.3919 19.7172 20.3611 19.735L19.4837 20.2581C19.4532 20.2772 19.4297 20.3063 19.4171 20.3408L19.1424 21.0594C19.0936 21.189 19.008 21.3004 18.8969 21.379C18.7858 21.4576 18.6544 21.4998 18.5197 21.5H17.9757C17.8411 21.4998 17.7096 21.4576 17.5985 21.379C17.4874 21.3004 17.4019 21.189 17.3531 21.0594L17.0797 20.3394C17.0668 20.3054 17.0433 20.2769 17.0131 20.2581L16.1357 19.735C16.1049 19.7172 16.0693 19.7104 16.0344 19.7157L15.293 19.8313C15.1599 19.8521 15.0237 19.8309 14.9024 19.7704C14.7811 19.71 14.6802 19.6132 14.613 19.4927L14.3397 19.0053C14.2723 18.8847 14.2417 18.746 14.2519 18.6072C14.2622 18.4684 14.3127 18.336 14.397 18.2274L14.8637 17.623C14.886 17.5945 14.8982 17.5591 14.8984 17.5225V16.4761C14.8982 16.4395 14.886 16.4041 14.8637 16.3756L14.397 15.7698C14.313 15.6614 14.2626 15.5292 14.2524 15.3907C14.2422 15.2522 14.2726 15.1137 14.3397 14.9933L14.613 14.506C14.6802 14.3854 14.7811 14.2886 14.9024 14.2282C15.0237 14.1678 15.1599 14.1465 15.293 14.1673L16.0317 14.2829C16.0666 14.2882 16.1023 14.2814 16.133 14.2637L17.0131 13.7377C17.0433 13.719 17.0668 13.6904 17.0797 13.6565L17.3544 12.9406C17.4032 12.811 17.4888 12.6996 17.5998 12.621C17.7109 12.5424 17.8424 12.5002 17.9771 12.5H18.5237C18.6584 12.5002 18.7898 12.5424 18.9009 12.621C19.012 12.6996 19.0976 12.811 19.1464 12.9406L19.4197 13.6565C19.4321 13.6914 19.4556 13.721 19.4864 13.7405L20.3651 14.2637C20.3959 14.2814 20.4315 14.2882 20.4664 14.2829L21.2077 14.1673C21.3409 14.1465 21.4771 14.1678 21.5984 14.2282C21.7197 14.2886 21.8205 14.3854 21.8877 14.506L22.1597 14.9933C22.2273 15.1138 22.2581 15.2524 22.2482 15.3912C22.2382 15.53 22.1878 15.6625 22.1037 15.7712L21.6371 16.377C21.6151 16.4051 21.6029 16.44 21.6024 16.4761L21.6011 17.5225Z" stroke="#B4FF5E" stroke-width="1.5" stroke-linecap="round" stroke-linejoin="round"/>
<path d="M18.2478 16.3106C18.0839 16.306 17.9235 16.3594 17.7931 16.4621C17.5304 16.6892 17.5131 17.2069 17.7318 17.4726C17.7982 17.5441 17.8785 17.6002 17.9674 17.6372C18.0564 17.6743 18.1519 17.6914 18.2478 17.6874" stroke="#B4FF5E" stroke-width="1.5" stroke-linecap="round" stroke-linejoin="round"/>
<path d="M18.2478 16.3106C18.4158 16.3106 18.5847 16.3613 18.7007 16.4618C18.9647 16.689 18.9807 17.208 18.7634 17.4723C18.697 17.5438 18.6167 17.5999 18.5277 17.637C18.4388 17.674 18.3436 17.6914 18.2478 17.6874" stroke="#B4FF5E" stroke-width="1.5" stroke-linecap="round" stroke-linejoin="round"/>
<path d="M5.13638 24.8557C2.82281 24.9433 1.53253 26.744 1.53253 28.9623C1.53253 31.1808 2.82281 32.9812 5.13638 33.0691C11.4997 33.3103 17.7864 33.3103 24.1496 33.0691C24.8013 33.0442 25.4223 32.8724 25.9494 32.5896C24.4587 31.9968 23.3171 30.8328 23.3171 28.9623C23.3171 27.0918 24.4587 25.9277 25.9491 25.335C25.4223 25.0521 24.8013 24.8803 24.1496 24.8557M5.13638 24.8557C11.4997 24.6144 17.7864 24.6144 24.1496 24.8557M5.13638 24.8557C2.89935 24.9406 1.6212 26.6258 1.53891 28.743C1.10562 21.3455 1.13745 14.0464 1.7862 6.66604C2.00415 4.1866 3.89255 2.16287 6.30596 1.80835C11.3739 1.06388 16.147 1.06388 21.2149 1.80835C23.6285 2.16287 25.5167 4.1866 25.7346 6.66604C26.285 12.9263 26.4577 19.0618 25.9391 25.3279C25.415 25.049 24.7962 24.8803 24.1496 24.8557" stroke="#B4FF5E" stroke-width="2.5" stroke-linecap="round" stroke-linejoin="round"/>
<path d="M9.86522 6.09565L5.81574 10.9723L5.26189 13.7432C5.17178 14.1889 5.61025 14.6112 6.02014 14.4735L8.61576 13.6079L12.7982 8.93533C13.4938 8.15949 13.3718 6.86099 12.5312 6.07115C11.7103 5.30115 10.5169 5.31165 9.86522 6.09565Z" stroke="#B4FF5E" stroke-width="1.5" stroke-linecap="round" stroke-linejoin="round"/>
</svg>
