<svg width="19" height="22" viewBox="0 0 19 22" fill="none" xmlns="http://www.w3.org/2000/svg">
<path d="M9.99245 15.8272C7.87999 13.2619 7.8415 13.0491 9.01886 10.5291C10.074 8.27171 10.0468 8.08378 8.59999 7.67623C7.59698 7.39322 6.69811 7.63322 5.18792 8.58869C2.8332 10.0785 2.22188 8.87397 4.51999 7.27322C7.41811 5.25359 10.2415 5.9034 13.0128 9.23171C14.3668 10.8528 14.3668 10.8528 15.7162 10.8347C17.5207 10.8076 17.8468 11.557 16.2777 12.1253C14.8332 12.6483 13.9162 12.3789 12.6302 11.0543C11.3034 9.68906 11.1834 9.68454 10.4702 10.9615C9.51924 12.6619 9.63245 13.2438 11.2581 15.0279C12.8521 16.7759 13.563 18.4106 13.563 20.3238C13.563 21.4151 13.5268 21.4876 12.997 21.4876C12.474 21.4876 12.3992 21.3472 12.003 19.6196C11.6091 17.8966 11.4528 17.6023 9.99245 15.8272Z" fill="#B4FF5E"/>
<path d="M16.7419 0.614348C18.9245 1.92076 19.049 4.44982 17.0204 6.26793C16.3683 6.85208 15.9132 7.05359 15.0913 7.12831C14.154 7.21208 13.8709 7.12378 12.8951 6.44907C8.94415 3.72076 12.6166 -1.85131 16.7419 0.614348ZM14.9985 1.40001C13.7238 1.19171 12.5034 2.56152 12.7275 3.94265C12.8272 4.55397 13.0604 4.85737 13.7758 5.29661C14.3577 5.65661 14.8807 5.81963 15.2045 5.74039C17.5592 5.16303 17.3985 1.79171 14.9985 1.40001Z" fill="#B4FF5E"/>
<path d="M1.70792 15.6053C3.05735 15.8951 4.68301 15.603 5.68377 14.8898C6.46716 14.3306 7.22339 14.4506 7.22339 15.1321C7.22339 15.4377 6.87471 15.8566 6.2566 16.2913C5.60679 16.7487 4.82792 17.0453 3.87924 17.1925C2.85131 17.3532 2.18792 17.3351 1.42943 17.1291C-0.64227 16.5653 -0.386421 15.1547 1.70792 15.6053Z" fill="#B4FF5E"/>
</svg>
