<svg width="20" height="20" viewBox="0 0 20 20" fill="none" xmlns="http://www.w3.org/2000/svg">
<path d="M1.12174 9.10727C1.21116 10.3343 1.88333 11.3212 2.71863 11.4579C3.33908 11.5595 3.97613 11.6467 4.62562 11.6467C5.27512 11.6467 5.91215 11.5595 6.5326 11.4579C7.36792 11.3212 8.04008 10.3343 8.12949 9.10727C8.1955 8.20144 8.25123 7.27145 8.25123 6.32335C8.25123 5.37523 8.1955 4.44525 8.12949 3.53943C8.04008 2.31237 7.36792 1.32546 6.5326 1.18875C5.91215 1.08721 5.27512 1 4.62562 1C3.97613 1 3.33908 1.08721 2.71863 1.18875C1.88333 1.32546 1.21116 2.31237 1.12174 3.53943C1.05574 4.44525 1 5.37523 1 6.32335C1 7.27145 1.05574 8.20144 1.12174 9.10727Z" stroke="#CEFF97" stroke-width="2" stroke-linecap="round" stroke-linejoin="round"/>
<path d="M18.878 10.898C18.7885 9.67173 18.1148 8.68546 17.2776 8.54883C16.6557 8.44736 16.0173 8.3602 15.3664 8.3602C14.7155 8.3602 14.0769 8.44736 13.4551 8.54883C12.6179 8.68546 11.9443 9.67173 11.8547 10.898C11.7885 11.8032 11.7326 12.7326 11.7326 13.6801C11.7326 14.6277 11.7885 15.557 11.8547 16.4622C11.9443 17.6885 12.6179 18.6748 13.4551 18.8114C14.0769 18.9128 14.7155 19 15.3664 19C16.0173 19 16.6557 18.9128 17.2776 18.8114C18.1148 18.6748 18.7885 17.6885 18.878 16.4622C18.9441 15.557 19 14.6277 19 13.6801C19 12.7326 18.9441 11.8032 18.878 10.898Z" stroke="#CEFF97" stroke-width="2" stroke-linecap="round" stroke-linejoin="round"/>
<path d="M1.12174 18.0822C1.21116 18.5256 1.88333 18.8822 2.71863 18.9316C3.33908 18.9684 3.97613 18.9998 4.62562 18.9998C5.27512 18.9998 5.91215 18.9684 6.5326 18.9316C7.36792 18.8822 8.04008 18.5256 8.12949 18.0822C8.1955 17.7549 8.25123 17.4187 8.25123 17.0761C8.25123 16.7334 8.1955 16.3974 8.12949 16.0701C8.04008 15.6267 7.36792 15.2701 6.5326 15.2207C5.91215 15.1839 5.27512 15.1525 4.62562 15.1525C3.97613 15.1525 3.33908 15.1839 2.71863 15.2207C1.88333 15.2701 1.21116 15.6267 1.12174 16.0701C1.05574 16.3974 1 16.7334 1 17.0761C1 17.4187 1.05574 17.7549 1.12174 18.0822Z" stroke="#CEFF97" stroke-width="2" stroke-linecap="round" stroke-linejoin="round"/>
<path d="M18.878 1.91766C18.7885 1.47424 18.1148 1.11761 17.2776 1.06821C16.6557 1.03151 16.0173 1 15.3664 1C14.7155 1 14.0769 1.03151 13.4551 1.06821C12.6179 1.11761 11.9443 1.47424 11.8547 1.91766C11.7885 2.245 11.7326 2.58107 11.7326 2.92367C11.7326 3.2663 11.7885 3.60236 11.8547 3.9297C11.9443 4.37311 12.6179 4.72975 13.4551 4.77916C14.0769 4.81585 14.7155 4.84736 15.3664 4.84736C16.0173 4.84736 16.6557 4.81585 17.2776 4.77916C18.1148 4.72975 18.7885 4.37311 18.878 3.9297C18.9441 3.60236 19 3.2663 19 2.92367C19 2.58107 18.9441 2.245 18.878 1.91766Z" stroke="#CEFF97" stroke-width="2" stroke-linecap="round" stroke-linejoin="round"/>
</svg>
