<svg width="18" height="18" viewBox="0 0 18 18" fill="none" xmlns="http://www.w3.org/2000/svg">
<path d="M1 9H7M1 15.0704H13M13 15.0704C13 16.3053 13.72 17 15 17C16.28 17 17 16.3055 17 15.0705C17 13.8354 16.28 13.1407 15 13.1407C13.72 13.1407 13 13.8354 13 15.0704ZM11 9H17M17 2.92933H5M5 2.92933C5 4.16431 4.28 4.8593 3 4.8593C1.72 4.8593 1 4.16462 1 2.92965C1 1.69467 1.72 1 3 1C4.28 1 5 1.69436 5 2.92933ZM7.03125 9C7.03125 10.235 7.75125 10.9296 9.03125 10.9296C10.3113 10.9296 11.0313 10.235 11.0313 9C11.0313 7.76503 10.3113 7.07035 9.03125 7.07035C7.75125 7.07035 7.03125 7.76503 7.03125 9Z" stroke="#CEFF97" stroke-width="2" stroke-linecap="round" stroke-linejoin="round"/>
</svg>