<svg width="20" height="20" viewBox="0 0 20 20" fill="none" xmlns="http://www.w3.org/2000/svg">
<path d="M5.875 9.57924V11.0791M10.2549 9.57924V11.0791M14.6348 9.57924V11.0791M10 18.9985C15.76 18.9985 19 15.7588 19 9.99925C19 4.23973 15.76 1 10 1C4.24 1 1 4.23973 1 9.99925C1 11.7586 1.40433 13.2825 1.98783 14.5499L1.40412 17.7609C1.35562 17.8935 1.34553 18.037 1.375 18.1751C1.40447 18.3131 1.47231 18.44 1.57071 18.5413C1.66911 18.6425 1.79408 18.7139 1.93125 18.7472C2.06842 18.7806 2.21222 18.7745 2.34612 18.7298L5.68683 18.1751C6.92883 18.718 8.3035 19 10 19V18.9985Z" stroke="#CEFF97" stroke-width="2" stroke-linecap="round" stroke-linejoin="round"/>
</svg>