<svg width="16" height="20" viewBox="0 0 16 20" fill="none" xmlns="http://www.w3.org/2000/svg">
<path d="M5.84613 4.79268C5.86676 4.49506 5.88857 4.19931 5.91063 3.90555C6.01378 2.53239 7.01927 1.37257 8.32895 1.17531C8.99163 1.0755 9.66823 1 10.3558 1C11.0433 1 11.7199 1.0755 12.3826 1.17531C13.6922 1.37257 14.6977 2.53238 14.8009 3.90554C14.9032 5.26772 15 6.67258 15 8.1085C15 9.54443 14.9032 10.9493 14.8009 12.3115C14.6977 13.6846 13.6922 14.8444 12.3826 15.0417C11.7199 15.1415 11.0433 15.217 10.3558 15.217C10.2914 15.217 10.2271 15.2163 10.163 15.215M7.67102 4.95827C8.98072 5.15553 9.98621 6.31534 10.0893 7.6885C10.1917 9.05069 10.2884 10.4555 10.2884 11.8915C10.2884 13.3274 10.1917 14.7322 10.0893 16.0944C9.98621 17.4676 8.98072 18.6273 7.67102 18.8246C7.00836 18.9245 6.33174 19 5.6442 19C4.95666 19 4.28005 18.9245 3.61738 18.8246C2.30769 18.6273 1.3022 17.4676 1.19905 16.0944C1.09674 14.7322 1 13.3274 1 11.8915C1 10.4556 1.09674 9.05069 1.19905 7.6885C1.3022 6.31534 2.30769 5.15553 3.61738 4.95827C4.28005 4.85847 4.95666 4.78296 5.6442 4.78296C6.33174 4.78296 7.00836 4.85847 7.67102 4.95827Z" stroke="#CEFF97" stroke-width="2" stroke-linecap="round" stroke-linejoin="round"/>
</svg>
