<svg width="18" height="18" viewBox="0 0 18 18" fill="none" xmlns="http://www.w3.org/2000/svg">
<path d="M0 9C3.55683e-08 6.61305 0.948211 4.32387 2.63604 2.63604C4.32387 0.948212 6.61305 0 9 0C11.3869 0 13.6761 0.948212 15.364 2.63604C17.0518 4.32387 18 6.61305 18 9C18 11.3869 17.0518 13.6761 15.364 15.364C13.6761 17.0518 11.3869 18 9 18C6.61305 18 4.32387 17.0518 2.63604 15.364C0.948211 13.6761 3.55683e-08 11.3869 0 9ZM16.6526 9C16.6535 7.2482 16.4734 7.3882 15.1693 7.11056C13.9294 6.84648 12.6126 6.27852 11.7118 5.61922C10.9386 5.05398 11.0136 5.05127 10.2051 5.66806C8.21273 7.18743 5.63342 7.65681 3.04869 6.96857C1.82596 6.64299 1.56981 6.59763 1.42872 7.43509C0.871619 10.7334 2.46445 14.0436 4.88007 15.3993C5.32503 15.6489 6.03949 15.9455 6.57579 16.102C7.43406 16.3534 7.60951 16.3733 8.94528 16.3733C13.6644 16.3733 16.6507 13.5635 16.6526 9ZM10.0776 4.1704C10.8635 3.4487 10.9783 3.4505 11.8646 4.19934C13.0186 5.17517 15.238 6.15733 15.701 5.89777C16.1279 5.65902 15.2154 4.1089 14.0849 3.15206C10.8192 0.387348 4.56082 1.23566 2.66884 4.69946C2.30257 5.37142 2.30257 5.37142 2.57569 5.53512C2.72582 5.62465 3.20424 5.7802 3.63835 5.88059C4.28046 6.02891 4.64402 6.05604 5.58097 6.02348C7.40873 5.96108 8.71105 5.42388 10.0776 4.1704Z" fill="#CEFF97"/>
<path d="M5.7381 11.8524C6.00851 11.554 6.28254 11.6281 6.85682 12.1563C7.68253 12.916 8.64298 13.1538 9.8214 12.8916C10.5151 12.7369 10.6326 12.6682 11.537 11.8877C11.8735 11.5965 12.2099 11.6363 12.4441 11.9944C12.7688 12.4891 11.8852 13.4686 10.724 13.9C10.2437 14.0781 9.86752 14.1478 9.2435 14.1713C8.69906 14.1921 8.22244 14.1559 7.87787 14.0682C6.32504 13.6712 5.17195 12.4783 5.7381 11.8524Z" fill="#CEFF97"/>
<path d="M11.7468 8.40311C12.3428 8.196 12.7679 8.95478 12.4884 9.72803C12.4188 9.92067 12.2895 10.0572 12.1131 10.1232C11.8988 10.2028 11.8029 10.1965 11.6465 10.0898C11.1499 9.75154 11.2196 8.5876 11.7468 8.40311Z" fill="#CEFF97"/>
<path d="M5.98138 8.40672C6.59365 8.24755 6.99157 9.01628 6.68137 9.76059C6.59907 9.95865 6.46432 10.0961 6.30424 10.1459C6.12608 10.2019 5.99856 10.1847 5.85386 10.0862C5.35644 9.74702 5.44688 8.54509 5.98138 8.40672Z" fill="#CEFF97"/>
</svg>
