<svg width="65" height="65" viewBox="0 0 65 65" fill="none" xmlns="http://www.w3.org/2000/svg">
<path d="M53.7452 64.4936C56.7902 64.4705 63.4536 65.2462 64.3943 55.3739C64.9536 51.5686 63.1238 37.0558 62.8804 36.5797C62.7342 35.056 61.455 32.0965 59.8304 28.015C58.6269 24.5354 53.8492 15.5597 47.66 11.2957C41.4708 7.03176 34.8032 4.31836 26.362 2.17609C19.3403 0.852651 10.1588 0.171307 9.62775 0.656156C4.72745 2.68565 0.977867 4.41666 0.5 11.2957C0.696758 15.6452 1.04952 18.9125 8.10646 21.9353C11.5633 23.1861 14.2422 23.1926 18.7555 23.4552C26.0458 23.9155 29.8144 25.1131 35.4897 29.535C41.0095 34.2434 41.1944 37.4053 41.5302 42.5396C41.3306 39.8438 41.5881 48.3944 43.0962 55.3739C45.484 61.6511 47.6127 63.9782 53.7452 64.4936Z" fill="#CEFF97" fill-opacity="0.9" stroke="#CEFF97" stroke-opacity="0.9" stroke-linejoin="round"/>
</svg>