<svg width="10" height="17" viewBox="0 0 10 17" fill="none" xmlns="http://www.w3.org/2000/svg">
<path d="M0.917969 16.25L3.01797 5.675L1.66797 6.2V8.75H0.167969V5.225L3.95547 3.6125C4.13047 3.5375 4.31484 3.49375 4.50859 3.48125C4.70234 3.46875 4.88672 3.49375 5.06172 3.55625C5.23672 3.61875 5.40234 3.70625 5.55859 3.81875C5.71484 3.93125 5.84297 4.075 5.94297 4.25L6.69297 5.45C7.01797 5.975 7.45859 6.40625 8.01484 6.74375C8.57109 7.08125 9.20547 7.25 9.91797 7.25V8.75C9.04297 8.75 8.26172 8.56875 7.57422 8.20625C6.88672 7.84375 6.29922 7.38125 5.81172 6.81875L5.34297 9.125L6.91797 10.625V16.25H5.41797V11.375L3.84297 10.175L2.49297 16.25H0.917969ZM5.79297 3.125C5.38047 3.125 5.02734 2.97813 4.73359 2.68438C4.43984 2.39063 4.29297 2.0375 4.29297 1.625C4.29297 1.2125 4.43984 0.859375 4.73359 0.565625C5.02734 0.271875 5.38047 0.125 5.79297 0.125C6.20547 0.125 6.55859 0.271875 6.85234 0.565625C7.14609 0.859375 7.29297 1.2125 7.29297 1.625C7.29297 2.0375 7.14609 2.39063 6.85234 2.68438C6.55859 2.97813 6.20547 3.125 5.79297 3.125Z" fill="#9CD49F"/>
</svg>
