<svg width="27" height="27" viewBox="0 0 27 27" fill="none" xmlns="http://www.w3.org/2000/svg">
<path d="M12.0486 1.25H23.6831C24.5485 1.25 25.25 1.95159 25.25 2.81705V15.3315C25.25 16.197 24.5485 16.8986 23.6831 16.8986H14.1723M6.1401 7.71351C7.92485 7.71351 9.37167 6.26661 9.37167 4.48175C9.37167 2.6969 7.92485 1.25 6.1401 1.25C4.35537 1.25 2.90855 2.6969 2.90855 4.48175C2.90855 6.26661 4.35537 7.71351 6.1401 7.71351ZM16.9413 10.5315C16.9413 9.48386 16.0921 8.63462 15.0446 8.63462H6.14003C3.43935 8.63462 1.25 10.8241 1.25 13.5249V17.8654H3.34572L4.0443 25.25H8.23575L9.84563 12.4283H15.0446C16.0921 12.4283 16.9413 11.5791 16.9413 10.5315Z" stroke="#B4FF5E" stroke-width="2.5" stroke-linecap="round" stroke-linejoin="round"/>
</svg>