<svg width="14" height="15" viewBox="0 0 14 15" fill="none" xmlns="http://www.w3.org/2000/svg">
<path d="M8.36333 3.49664C6.12333 4.13728 5.96744 4.15808 4.06179 5.24592M8.36333 11.0034C6.12436 10.3627 5.96846 10.3419 4.06282 9.25512M10.5562 5.19704C11.9603 5.19704 12.75 4.39624 12.75 2.97352C12.75 1.5508 11.9603 0.75 10.5551 0.75C9.15205 0.75 8.36231 1.5508 8.36231 2.97352C8.36231 4.39728 9.15205 5.19704 10.5551 5.19704H10.5562ZM10.5562 13.75C11.9603 13.75 12.75 12.9492 12.75 11.5265C12.75 10.1027 11.9603 9.30296 10.5562 9.30296C9.15308 9.30296 8.36333 10.1038 8.36333 11.5265C8.36333 12.9492 9.15308 13.75 10.5562 13.75ZM2.94385 9.47352C4.34692 9.47352 5.13667 8.67272 5.13667 7.25C5.13667 5.82728 4.34692 5.02648 2.94385 5.02648C1.53974 5.02648 0.75 5.82728 0.75 7.25C0.75 8.67272 1.53974 9.47352 2.94385 9.47352Z" stroke="#142204" stroke-width="1.5" stroke-linecap="round" stroke-linejoin="round"/>
</svg>