<svg width="12" height="17" viewBox="0 0 12 17" fill="none" xmlns="http://www.w3.org/2000/svg">
<path d="M3.77778 16H8.22223M10.9999 6.22817C11.0061 5.30135 10.7732 4.38972 10.3255 3.5879C9.87788 2.7861 9.23169 2.12334 8.45408 1.66843C7.67647 1.21353 6.79577 0.983067 5.90344 1.00097C5.01109 1.01887 4.13962 1.28448 3.37951 1.77024C2.6194 2.25598 1.99835 2.94417 1.58083 3.76333C1.16332 4.58251 0.964552 5.50279 1.00519 6.42867C1.04581 7.35454 1.32435 8.25225 1.81188 9.02859C2.29941 9.80493 2.97815 10.4316 3.77767 10.8436V12.5743C3.77767 12.7273 3.83619 12.8741 3.94038 12.9822C4.04457 13.0905 4.18588 13.1513 4.33322 13.1513H7.66656C7.81389 13.1513 7.95521 13.0905 8.0594 12.9822C8.16358 12.8741 8.22212 12.7273 8.22212 12.5743V10.8436C9.05265 10.4186 9.75265 9.76157 10.2433 8.94625C10.734 8.13092 10.996 7.18962 10.9999 6.22817Z" stroke="#B4FF5E" stroke-width="2" stroke-linecap="round" stroke-linejoin="round"/>
</svg>